<svg xmlns="http://www.w3.org/2000/svg" width="80" height="80" viewBox="0 0 80 80">
    <path fill="#FFF" fill-rule="evenodd" d="M78 12.133h-2.533V62.8h1.266a1.266 1.266 0 1 1 0 2.533H41.267v2.534c0 .06-.027.111-.035.17 2.198.553 3.835 2.529 3.835 4.896A5.072 5.072 0 0 1 40 78a5.072 5.072 0 0 1-5.067-5.067c0-2.367 1.637-4.343 3.835-4.897-.008-.058-.035-.11-.035-.17v-2.533H3.267a1.266 1.266 0 1 1 0-2.533h1.266V12.133H2V2h76v10.133zm-35.467 60.8A2.536 2.536 0 0 0 40 70.4a2.536 2.536 0 0 0-2.533 2.533A2.536 2.536 0 0 0 40 75.467a2.536 2.536 0 0 0 2.533-2.534zm-38-68.4V9.6h70.934V4.533H4.533zm68.4 58.267V12.133H7.067V62.8h65.866zM47.6 59c-.7 0-1.267-.566-1.267-1.267v-3.8a1.266 1.266 0 1 1 2.534 0v3.8c0 .7-.567 1.267-1.267 1.267zm5.067-11.4c.7 0 1.266.566 1.266 1.267v8.866a1.266 1.266 0 1 1-2.533 0v-8.866c0-.7.566-1.267 1.267-1.267zm5.066 2.533c.7 0 1.267.567 1.267 1.267v6.333a1.266 1.266 0 1 1-2.533 0V51.4c0-.7.566-1.267 1.266-1.267zm5.067-8.866c.7 0 1.267.566 1.267 1.266v15.2a1.266 1.266 0 1 1-2.534 0v-15.2c0-.7.567-1.266 1.267-1.266zm5.067 5.066c.7 0 1.266.567 1.266 1.267v10.133a1.266 1.266 0 1 1-2.533 0V47.6c0-.7.566-1.267 1.267-1.267zm-53.2 6.334a1.266 1.266 0 1 1 0-2.534h12.666a1.266 1.266 0 1 1 0 2.534H14.667zm19 2.533a1.266 1.266 0 1 1 0 2.533h-19a1.266 1.266 0 1 1 0-2.533h19zM26.7 45.067c-8.032 0-14.567-6.535-14.567-14.567 0-7.632 5.903-13.9 13.381-14.507l.013-.014.5-.03c.108-.006.216.005.325.002.116-.002.23-.018.348-.018.166 0 .327.02.489.027.201.008.403.015.604.03.338.026.67.065 1 .113.141.022.282.04.421.065.38.066.751.15 1.12.244.101.025.201.05.302.077.382.108.756.233 1.126.372.096.035.193.068.29.106.345.137.681.29 1.013.452.123.06.247.115.369.179.276.144.542.304.808.466.168.102.338.197.503.306.186.125.362.261.542.393.224.163.452.322.667.5.02.016.038.033.057.05.34.282.673.574.987.888.33.33.638.679.934 1.037 0 .001.002.001.002.003.19.23.36.473.535.714.117.162.24.32.352.485.124.188.234.383.35.575.144.238.287.475.417.722.081.155.152.314.228.471.142.294.28.59.402.896.054.138.102.279.153.418.12.326.23.655.327.99.042.145.076.292.113.438.08.325.155.652.215.985.032.179.057.358.082.538.042.297.079.594.102.897.017.223.026.447.034.671.004.154.023.304.023.459 0 .115-.016.227-.016.34-.002.112.008.221.003.333l-.025.557-.024.02c-.326 3.804-2.12 7.186-4.812 9.594-.02.021-.026.048-.046.068-.033.033-.076.046-.112.074-2.558 2.224-5.888 3.58-9.535 3.58zm8.754-6.337a11.978 11.978 0 0 0 3.115-6.33h-9.445l6.33 6.33zM27.71 18.517c-.126-.01-.252-.011-.378-.019v11.369h11.369c-.007-.126-.01-.254-.02-.378-.01-.132-.022-.263-.037-.394a12.563 12.563 0 0 0-.13-.852c-.017-.085-.031-.17-.049-.255-.073-.346-.16-.685-.262-1.018l-.018-.062a12.085 12.085 0 0 0-7.894-7.894l-.062-.018a11.876 11.876 0 0 0-1.018-.262c-.085-.018-.17-.032-.255-.048a12.563 12.563 0 0 0-1.246-.169zm-2.911.114c-5.733.916-10.133 5.881-10.133 11.869 0 6.635 5.398 12.033 12.033 12.033a11.96 11.96 0 0 0 6.835-2.14L25.542 32.4h-.695l-.044-1.257-.002-.017-.001-.04V18.631zm26.6 7.436a1.266 1.266 0 1 1 0-2.534h10.133a1.266 1.266 0 1 1 0 2.534H51.4zM66.967 23.9c.469-.469 1.33-.469 1.799 0 .228.24.367.57.367.899 0 .33-.139.659-.367.9-.24.227-.57.367-.9.367-.329 0-.66-.14-.899-.368-.229-.24-.367-.57-.367-.899 0-.33.138-.66.367-.9zm-2.9-4.168a1.266 1.266 0 1 1 0-2.533h3.8a1.266 1.266 0 1 1 0 2.533h-3.8zm-12.667 0a1.266 1.266 0 1 1 0-2.533h2.533a1.266 1.266 0 1 1 0 2.533H51.4zm7.6 0c-.33 0-.66-.139-.9-.367-.229-.24-.367-.57-.367-.9 0-.329.138-.66.368-.899.468-.468 1.33-.468 1.798 0 .228.24.368.556.368.9 0 .329-.14.658-.368.899-.24.228-.57.367-.899.367z"/>
</svg>
