<svg xmlns="http://www.w3.org/2000/svg" width="80" height="80" viewBox="0 0 80 80">
    <path fill="#FFF" fill-rule="evenodd" d="M41.21 16.751a4.441 4.441 0 0 1 3.725 4.378v2.946c10.507 2.361 18.38 11.765 18.38 22.975 0 12.984-10.563 23.548-23.548 23.548a23.42 23.42 0 0 1-13.77-4.458 1.443 1.443 0 0 1-.262-.192c-5.77-4.296-9.516-11.168-9.516-18.898s3.745-14.6 9.514-18.896c.083-.077.174-.144.272-.2a23.454 23.454 0 0 1 8.595-3.88V21.13a4.441 4.441 0 0 1 3.725-4.378v-9.17a1.442 1.442 0 1 1 2.885 0v9.17zM40.788.513c.268.268.422.64.422 1.02 0 .379-.154.751-.422 1.02-.269.268-.64.422-1.02.422a1.45 1.45 0 0 1-1.02-.423 1.453 1.453 0 0 1-.423-1.02c0-.379.155-.75.423-1.02a1.45 1.45 0 0 1 1.02-.422c.38 0 .751.155 1.02.423zM24.232 33.44a20.695 20.695 0 0 0-3.68 6.008l2.652-.544.163-.032c.216-1.82.504-3.631.865-5.432zm-4.61 18.215l.036.005 3.428.676a69.329 69.329 0 0 1-.008-10.46l-3.41.7-.077.011a20.657 20.657 0 0 0-.487 4.462c0 1.583.18 3.124.519 4.606zm.988 3.134a20.706 20.706 0 0 0 3.622 5.868 69.196 69.196 0 0 1-.851-5.323c-.056-.01-.111-.02-.167-.032l-2.604-.513zm7.36-24.695a66.25 66.25 0 0 0-1.627 8.228 82.487 82.487 0 0 1 5.926-.764c.33-3.455.843-6.894 1.537-10.294a20.594 20.594 0 0 0-5.835 2.83zm-1.953 11.211a66.443 66.443 0 0 0 .009 11.578c2.009.34 4.023.605 6.04.795a97.655 97.655 0 0 1-.242-7.096c.005-2.035.077-4.07.21-6.103a79.857 79.857 0 0 0-6.017.826zm1.954 22.698a20.587 20.587 0 0 0 5.924 2.857 97.962 97.962 0 0 1-1.58-10.262 85.691 85.691 0 0 1-5.96-.736 66.267 66.267 0 0 0 1.616 8.141zM58.982 39.45a20.708 20.708 0 0 0-4.034-6.401c.395 1.911.708 3.836.94 5.769l.443.088 2.651.544zm-7.752-9.583a20.585 20.585 0 0 0-5.79-2.688c.7 3.417 1.22 6.881 1.553 10.355 1.976.176 3.95.425 5.92.745a66.287 66.287 0 0 0-1.683-8.412zM37.485 21.13v2.484a23.696 23.696 0 0 1 4.565 0v-2.484a1.55 1.55 0 0 0-1.549-1.55h-1.467a1.55 1.55 0 0 0-1.55 1.55zm-.587 5.458a94.345 94.345 0 0 0-1.702 10.755 81.454 81.454 0 0 1 8.876-.015 95.283 95.283 0 0 0-1.715-10.778 20.79 20.79 0 0 0-5.46.038zm5.37 40.955a95.214 95.214 0 0 0 1.757-10.721 84.864 84.864 0 0 1-8.78-.015 94.084 94.084 0 0 0 1.745 10.72 20.784 20.784 0 0 0 5.273.036l.005-.02zm8.962-3.309a66.275 66.275 0 0 0 1.671-8.327 85.712 85.712 0 0 1-5.955.717 98.274 98.274 0 0 1-1.598 10.323 20.576 20.576 0 0 0 5.882-2.713zm2.002-11.303a66.42 66.42 0 0 0 .008-11.672c-2-.345-4.005-.613-6.012-.804.029.444.056.887.079 1.33a1.442 1.442 0 1 1-2.881.15 93.6 93.6 0 0 0-.105-1.703 78.614 78.614 0 0 0-9.368.015 96.055 96.055 0 0 0 .033 13.656c3.1.181 6.202.186 9.302.015.037-.499.071-.997.1-1.496a1.442 1.442 0 1 1 2.88.17c-.021.37-.046.742-.072 1.113a82.953 82.953 0 0 0 6.036-.774zm1.716 8.122a20.713 20.713 0 0 0 3.977-6.262l-2.605.513c-.148.03-.297.057-.446.086a69.189 69.189 0 0 1-.926 5.663zm4.93-9.39c.01-.003.023-.004.034-.006a20.65 20.65 0 0 0 .518-4.606c0-1.532-.169-3.024-.486-4.462l-.078-.012-3.687-.757a69.32 69.32 0 0 1-.008 10.573l3.706-.73zm-12.963-5.633c.268.27.423.64.423 1.022 0 .379-.154.75-.423 1.02-.268.268-.64.42-1.02.42-.379 0-.751-.152-1.02-.42a1.456 1.456 0 0 1-.422-1.02c0-.381.154-.753.423-1.022.268-.268.64-.422 1.02-.422.379 0 .751.154 1.02.422zM15.95 63.18a1.47 1.47 0 0 1 .001 2.84 6.337 6.337 0 0 0-4.529 4.588 1.443 1.443 0 0 1-2.799 0 6.337 6.337 0 0 0-4.528-4.587h-.001a1.471 1.471 0 0 1 0-2.842 6.337 6.337 0 0 0 4.53-4.587 1.443 1.443 0 0 1 2.798 0 6.336 6.336 0 0 0 4.528 4.587zm-5.927 3.667a9.233 9.233 0 0 1 2.247-2.247 9.232 9.232 0 0 1-2.247-2.247A9.232 9.232 0 0 1 7.775 64.6a9.23 9.23 0 0 1 2.247 2.247zm18.025-47.542c.996 2.106-.228 4.705-2.788 5.916-.886.42-1.82.619-2.703.619-1.72 0-3.252-.752-3.888-2.097-.508-1.074-.392-2.383.319-3.593.607-1.032 1.572-1.899 2.717-2.44a6.076 6.076 0 0 1 2.123-.576l-2.842-6.006-8.472 4.878 4 8.454c.015.032.028.065.04.097.027.05.053.1.077.15.502 1.06.443 2.326-.161 3.475-.542 1.03-1.474 1.897-2.626 2.442a6.415 6.415 0 0 1-2.725.621c-.299 0-.595-.022-.886-.068-1.386-.217-2.472-.957-2.98-2.031-.509-1.074-.392-2.383.319-3.593.607-1.032 1.571-1.9 2.717-2.441a6.026 6.026 0 0 1 2.126-.569l-3.079-6.506a1.442 1.442 0 0 1 .585-1.867L20.9 7.846a1.443 1.443 0 0 1 2.024.633l5.006 10.577.039.095c.026.05.053.1.078.153zm-15.229 6.108c-.417 0-.87.105-1.296.307-.61.288-1.157.772-1.464 1.295-.21.357-.288.709-.199.897.09.188.411.351.82.415.599.094 1.32-.022 1.93-.31.581-.276 1.058-.705 1.306-1.178.105-.199.258-.58.107-.897-.15-.318-.542-.441-.762-.486a2.197 2.197 0 0 0-.442-.043zm11.207-2.8c1.12-.53 1.67-1.532 1.414-2.074-.153-.323-.616-.529-1.202-.529a3.07 3.07 0 0 0-1.3.307c-.608.289-1.156.773-1.463 1.296-.21.356-.287.708-.198.896.214.454 1.531.681 2.749.105zM67.8 17.147a1.471 1.471 0 0 1-.001 2.842 6.336 6.336 0 0 0-4.527 4.586 1.442 1.442 0 0 1-2.799 0 6.336 6.336 0 0 0-4.528-4.587 1.47 1.47 0 0 1 .002-2.842 6.335 6.335 0 0 0 4.526-4.587 1.443 1.443 0 0 1 2.8 0 6.337 6.337 0 0 0 4.527 4.588zm-5.927 3.667a9.236 9.236 0 0 1 2.247-2.247 9.229 9.229 0 0 1-2.247-2.246 9.229 9.229 0 0 1-2.247 2.246 9.228 9.228 0 0 1 2.247 2.247zm13.6 35.334a1.443 1.443 0 0 1-.12 2.883c-1.95-.082-4.126-.706-5.607-1.214L68.41 68.04l-.008.044-.007.069c-.277 2.122-2.322 3.592-4.82 3.592-.28 0-.563-.018-.851-.056-1.288-.168-2.5-.71-3.417-1.525-1.07-.952-1.593-2.187-1.437-3.387.157-1.2.98-2.258 2.26-2.904 1.094-.552 2.406-.764 3.693-.595a6.21 6.21 0 0 1 2.206.713l1.093-8.358a1.443 1.443 0 0 1 2-1.138c.036.016 3.607 1.537 6.351 1.651zM65.534 67.78c.083-.635-.79-1.472-2.085-1.64a3.69 3.69 0 0 0-.476-.031c-.552 0-1.105.12-1.544.341-.4.202-.668.471-.698.702-.03.231.16.56.494.858.474.422 1.174.728 1.872.82 1.294.169 2.354-.415 2.437-1.05z"/>
</svg>
