<svg xmlns="http://www.w3.org/2000/svg" width="80" height="80" viewBox="0 0 80 80">
    <path fill="#FFF" fill-rule="evenodd" d="M17.947 20.493a1.481 1.481 0 0 1-1.254 1.678 43.819 43.819 0 0 1-4.437.422l2.623 9.437.389 1.398c.363 1.306-.013 2.778-1.031 4.04a6.95 6.95 0 0 1-3.463 2.285 6.006 6.006 0 0 1-1.607.221 5.55 5.55 0 0 1-2.376-.525c-1.285-.607-2.19-1.657-2.552-2.955-.36-1.298-.126-2.665.66-3.848.742-1.116 1.898-1.938 3.255-2.316 1-.278 2.104-.31 3.148-.106l-2.419-8.7a1.482 1.482 0 0 1 1.506-1.877c.021.001 2.3.109 5.88-.408a1.481 1.481 0 0 1 1.678 1.254zm-5.534 13.728c-.102-.366-.523-.717-1.126-.936a3.973 3.973 0 0 0-2.34-.1c-.67.187-1.232.578-1.58 1.101-.303.456-.4.958-.273 1.414.127.457.47.837.964 1.071.568.269 1.25.314 1.922.127a3.978 3.978 0 0 0 1.952-1.292c.403-.5.583-1.017.481-1.385zm66.234 7.158a1.481 1.481 0 1 1-.702 2.879 40.02 40.02 0 0 1-3.69-1.083l-.962 8.585-.145 1.3c-.142 1.26-.978 2.405-2.296 3.14a6.452 6.452 0 0 1-3.096.798c-.22 0-.439-.012-.655-.036-1.296-.145-2.474-.727-3.318-1.64-.898-.971-1.316-2.195-1.176-3.444.14-1.25.818-2.35 1.91-3.098 1.024-.704 2.302-1.01 3.598-.865a6.37 6.37 0 0 1 2.53.868l.88-7.853a1.481 1.481 0 0 1 2.098-1.178c.017.007 1.876.86 5.024 1.627zm-8.444 11.35c.033-.294-.183-.681-.579-1.036a3.43 3.43 0 0 0-1.839-.834 2.58 2.58 0 0 0-.29-.016c-.48 0-.942.133-1.302.38-.214.147-.583.47-.641.985-.058.514.23.912.407 1.103.355.384.892.642 1.472.707a3.427 3.427 0 0 0 1.978-.406c.464-.259.761-.589.794-.883zm-5.57 22.16a1.481 1.481 0 1 1 0 2.963H16.282a1.481 1.481 0 1 1 0-2.963h2.965a4.623 4.623 0 0 1-.31-1.727l.723-56.6c.032-2.521 2.11-4.572 4.63-4.572h32.334c2.522 0 4.6 2.05 4.631 4.572l.722 56.6c.008.6-.1 1.184-.309 1.727h2.965zm-6.1-.496c.316-.32.487-.744.482-1.193l-.722-56.6a1.675 1.675 0 0 0-1.669-1.647H24.291c-.909 0-1.657.739-1.669 1.647L21.9 73.2c-.005.449.166.873.481 1.193.316.32.738.496 1.188.496h33.777c.45 0 .872-.176 1.187-.496zM40.457 43.119c7.984 0 14.479 6.495 14.479 14.478s-6.495 14.479-14.479 14.479c-7.983 0-14.478-6.495-14.478-14.479 0-1.265.164-2.522.486-3.734a1.482 1.482 0 0 1 2.864.762 11.551 11.551 0 0 0-.387 2.972c0 6.35 5.166 11.516 11.515 11.516 6.35 0 11.516-5.166 11.516-11.516s-5.166-11.516-11.516-11.516c-1.78 0-3.488.396-5.073 1.175a1.481 1.481 0 1 1-1.307-2.66 14.338 14.338 0 0 1 6.38-1.477zm0 7.46a7.025 7.025 0 0 1 7.018 7.018 7.025 7.025 0 0 1-7.018 7.017 7.025 7.025 0 0 1-7.017-7.017 7.025 7.025 0 0 1 7.017-7.017zm0 11.072a4.059 4.059 0 0 0 4.055-4.054 4.059 4.059 0 0 0-4.055-4.054 4.059 4.059 0 0 0-4.054 4.054 4.06 4.06 0 0 0 4.054 4.054zm0-43.849c6.194 0 11.234 5.04 11.234 11.233 0 6.195-5.04 11.234-11.234 11.234s-11.233-5.04-11.233-11.234 5.04-11.233 11.233-11.233zm0 19.504c4.56 0 8.27-3.71 8.27-8.27s-3.71-8.271-8.27-8.271-8.27 3.71-8.27 8.27 3.71 8.27 8.27 8.27zm0-13.204a4.939 4.939 0 0 1 4.934 4.934 4.94 4.94 0 0 1-4.934 4.933 4.939 4.939 0 0 1-4.933-4.933 4.939 4.939 0 0 1 4.933-4.934zm0 6.904c1.087 0 1.971-.884 1.971-1.97 0-1.087-.884-1.971-1.97-1.971-1.087 0-1.971.884-1.971 1.97 0 1.087.884 1.971 1.97 1.971zM31.79 49.153a1.486 1.486 0 0 1 0 .579 1.496 1.496 0 0 1-.63.942 1.462 1.462 0 0 1-.533.221 1.46 1.46 0 0 1-1.11-.22 1.418 1.418 0 0 1-.411-.41 1.462 1.462 0 0 1-.221-.533 1.458 1.458 0 0 1 0-.58 1.503 1.503 0 0 1 .631-.942 1.503 1.503 0 0 1 .532-.22 1.466 1.466 0 0 1 .856.084 1.462 1.462 0 0 1 .802.802c.037.09.065.183.084.277zm34.758-33.435a1.481 1.481 0 1 1-2.95.281c-.208-2.18-1.154-3.813-2.811-4.852a7.03 7.03 0 0 0-2.62-.977 1.478 1.478 0 0 1-1.319-1.624 1.485 1.485 0 0 1 1.628-1.323c.19.02 1.916.221 3.757 1.335 1.758 1.064 3.935 3.17 4.315 7.16zm5.68-1.947a1.482 1.482 0 0 1-2.95.28c-.33-3.456-1.858-6.033-4.545-7.658-2.002-1.21-3.937-1.436-3.956-1.438a1.481 1.481 0 1 1 .3-2.947c.105.01 2.591.278 5.19 1.85 2.428 1.469 5.433 4.381 5.96 9.913z"/>
</svg>
