<svg xmlns="http://www.w3.org/2000/svg" width="80" height="80" viewBox="0 0 80 80">
    <path fill="#FFF" fill-rule="evenodd" d="M33.34 68c.813 0 1.472.671 1.472 1.5S34.154 71 33.34 71h-.053c-.814 0-1.474-.671-1.474-1.5s.66-1.5 1.474-1.5h.053zm8 0c.813 0 1.472.671 1.472 1.5s-.66 1.5-1.472 1.5h-.055c-.813 0-1.473-.671-1.473-1.5s.66-1.5 1.473-1.5h.055zm8 0c.813 0 1.472.671 1.472 1.5 0 .828-.66 1.5-1.472 1.5h-.055c-.813 0-1.473-.672-1.473-1.5 0-.829.66-1.5 1.473-1.5h.055zm19.533-.01a1.416 1.416 0 0 1 0 2.665l-9.198 3.296A3.126 3.126 0 0 1 56.741 76H24.884a3.126 3.126 0 0 1-2.934-2.049l-9.198-3.296a1.417 1.417 0 0 1 0-2.666l9.198-3.297a3.132 3.132 0 0 1 1.687-1.789 62.09 62.09 0 0 0-.7-1.058c-1.608-2.4-3.611-5.387-4.55-10.663a1.421 1.421 0 0 1 2.799-.494c.834 4.69 2.578 7.29 4.115 9.583.54.804 1.055 1.575 1.483 2.373h26.924v-2.86c0-2.154.711-3.491 3.045-5.725 1.998-1.909 2.809-2.882 2.809-7.86 0-7.422-1.77-10.842-5.738-11.082H43.535c-1.322 0-2.393.351-3.1 1.015a2.798 2.798 0 0 0-.856 1.661v.12c0 .175-.008.348-.023.52.115 1.52 1.379 3.071 4.007 3.071h3.805c3.001 0 4.941 1.889 4.941 4.811v2.258c0 .782-.636 1.416-1.42 1.416a1.418 1.418 0 0 1-1.421-1.416v-2.258c0-.592 0-1.978-2.1-1.978h-3.805c-2.466 0-4.302-.97-5.451-2.337a6.466 6.466 0 0 1-5.003 2.364c-3.567 0-6.47-2.893-6.47-6.45V18.992c0-1.417-.333-2.536-.962-3.238-.61-.68-1.357-.822-1.877-.822-1.52 0-3.092 1.19-3.092 3.182v19.3c0 .783-.636 1.417-1.421 1.417a1.418 1.418 0 0 1-1.421-1.416v-19.3c0-3.765 3.017-6.015 5.934-6.015 1.555 0 2.974.627 3.996 1.766 1.103 1.23 1.686 3.002 1.686 5.126v2.993a6.895 6.895 0 0 1 3.627-1.017c1.877 0 3.766.749 5.015 2.202 1.257-1.552 3.206-2.35 5.14-2.35 1.302 0 2.538.356 3.57 1.014V10.45c0-3.557 2.903-6.451 6.47-6.451 3.569 0 6.47 2.894 6.47 6.45v24.754c2.629 3.376 2.63 8.743 2.63 10.996 0 5.78-1.123 7.457-3.683 9.902-2.078 1.99-2.17 2.599-2.17 3.681v2.86h.19c1.348 0 2.497.856 2.934 2.05l9.198 3.296zM33.109 41.531a3.63 3.63 0 0 0 3.6-3.173 5.904 5.904 0 0 1 .028-.765V27.346c0-2.449-1.822-3.545-3.628-3.545s-3.627 1.096-3.627 3.545v10.568a3.627 3.627 0 0 0 3.627 3.618zm6.47-8.273c1.1-.64 2.443-.974 3.956-.974h3.3v-4.94c0-1.195-.367-2.136-1.092-2.793-.639-.58-1.52-.9-2.48-.9-1.833 0-3.684 1.142-3.684 3.694v5.913zm14.286-.974l.079.001c1.145.064 2.133.305 2.99.681V10.451a3.627 3.627 0 0 0-3.629-3.619 3.627 3.627 0 0 0-3.628 3.619v21.834h4.188zM21.763 67.77l-4.33 1.552 4.33 1.552V67.77zm35.258 5.118v-7.133a.283.283 0 0 0-.28-.279H24.884a.283.283 0 0 0-.28.28v7.132c0 .152.129.28.28.28h31.858a.283.283 0 0 0 .279-.28zm2.842-2.014l4.33-1.552-4.33-1.552v3.104zM19.313 46c-.828 0-1.5-.666-1.5-1.487v-.026c0-.82.672-1.487 1.5-1.487s1.5.666 1.5 1.487v.026c0 .821-.672 1.487-1.5 1.487z"/>
</svg>
