<svg xmlns="http://www.w3.org/2000/svg" width="80" height="80" viewBox="0 0 80 80">
    <path fill="#FFF" fill-rule="evenodd" d="M30.295 49.337a1.492 1.492 0 0 1 .791 2.404l-3.183 3.832.379 5.025a1.494 1.494 0 0 1-2.073 1.488l-4.5-1.908-4.502 1.908a1.494 1.494 0 0 1-2.072-1.488l.378-5.026-3.179-3.831a1.493 1.493 0 0 1 .792-2.404l4.74-1.174 2.56-4.278a1.494 1.494 0 0 1 2.564 0l2.56 4.278 4.745 1.174zm-5.076 4.791l2.046-2.462-3.036-.752a1.493 1.493 0 0 1-.923-.683l-1.598-2.67-1.597 2.67a1.493 1.493 0 0 1-.924.683l-3.033.752 2.044 2.463c.248.298.37.68.34 1.066l-.24 3.183 2.828-1.198a1.496 1.496 0 0 1 1.165 0l2.827 1.198-.24-3.183c-.029-.386.094-.768.34-1.067zm3.452-10.582a1.494 1.494 0 1 1 1.867-2.332l.021.016a1.494 1.494 0 1 1-1.866 2.333l-.022-.017zm49.082 4.447l-.023.056a1.882 1.882 0 0 1-.036.077c-.005.01-.008.019-.013.027l-5.32 10.094-1.48 11.378a1.492 1.492 0 0 1-1.759 1.275L58.14 68.832 47.161 70.9a1.496 1.496 0 0 1-1.758-1.275l-1.481-11.378-3.998-7.585-3.994 7.584-1.48 11.379A1.496 1.496 0 0 1 32.69 70.9l-10.983-2.068L10.726 70.9a1.497 1.497 0 0 1-1.759-1.276L7.491 58.246 2.17 48.153l-.013-.028a1.116 1.116 0 0 1-.035-.075c-.008-.02-.017-.038-.024-.058a1.582 1.582 0 0 1-.029-.083l-.017-.055c-.008-.029-.014-.059-.02-.088l-.012-.055a1.176 1.176 0 0 1-.018-.148A1.03 1.03 0 0 1 2 47.478v-.068l.005-.076.008-.076.003-.03 5.08-32.805c.545-3.734 3.565-5.496 6.127-5.253 2.28.217 4.66 2.114 4.495 5.768a1.494 1.494 0 0 1-2.985-.135c.07-1.55-.6-2.545-1.793-2.658-1.223-.116-2.606.782-2.89 2.722L5.41 44.85l7.5-3.689 7.704-8.305a1.495 1.495 0 0 1 2.19 0l3.287 3.54a1.494 1.494 0 1 1-2.19 2.032l-2.191-2.36-6.798 7.328a1.494 1.494 0 0 1-.436.324l-8.944 4.4 4.728 8.97c.083.158.137.328.16.505l1.308 10.076 9.705-1.828c.183-.035.37-.035.553 0l9.705 1.828L33 57.594c.023-.176.077-.346.16-.503l4.725-8.972-3.29-1.619a1.493 1.493 0 1 1 1.319-2.68l4.01 1.972 4.012-1.973a1.494 1.494 0 0 1 1.319 2.682l-3.294 1.619 4.728 8.97c.083.158.138.328.16.504l1.312 10.077 9.7-1.828c.184-.035.371-.035.554 0l9.706 1.828 1.31-10.077c.023-.176.078-.346.16-.503l4.73-8.972-8.945-4.399a1.497 1.497 0 0 1-.436-.324L58.14 36.07l-2.187 2.359a1.494 1.494 0 1 1-2.192-2.032l3.283-3.54a1.495 1.495 0 0 1 2.191 0l7.708 8.305 7.5 3.69-4.64-29.97c-.287-1.955-1.673-2.853-2.896-2.736-1.192.114-1.862 1.107-1.792 2.658a1.494 1.494 0 0 1-2.985.135c-.165-3.652 2.213-5.55 4.493-5.767 2.564-.245 5.585 1.517 6.135 5.264l5.078 32.794.003.03.008.074.005.078v.066c0 .03-.002.058-.004.086 0 .02-.003.038-.005.058-.003.03-.007.06-.013.09-.002.018-.007.036-.01.054l-.021.09-.017.054a1.453 1.453 0 0 1-.03.084zm-25.805 7.58l-3.182-3.832a1.492 1.492 0 0 1 .79-2.404l4.744-1.174 2.556-4.278a1.494 1.494 0 0 1 2.565 0l2.561 4.278 4.744 1.174a1.494 1.494 0 0 1 .79 2.404l-3.18 3.831.381 5.025a1.494 1.494 0 0 1-2.072 1.489l-4.506-1.908-4.5 1.908a1.494 1.494 0 0 1-2.074-1.49l.383-5.024zm3.674-4.659l-3.035.75 2.046 2.464c.248.299.37.682.34 1.068l-.242 3.181 2.825-1.197a1.498 1.498 0 0 1 1.166 0l2.83 1.198-.243-3.182c-.029-.386.093-.769.34-1.068l2.047-2.462-3.036-.752a1.496 1.496 0 0 1-.923-.683l-1.597-2.668-1.594 2.667a1.493 1.493 0 0 1-.924.684zm-5.395-7.023a1.494 1.494 0 0 1-.934-2.66l.02-.017a1.494 1.494 0 0 1 1.868 2.332l-.022.017c-.275.22-.605.328-.932.328z"/>
</svg>
