<svg xmlns="http://www.w3.org/2000/svg" width="80" height="80" viewBox="0 0 80 80">
    <path fill="#FFF" fill-rule="evenodd" d="M70.667 31.397c.063.804.096 1.617.096 2.436 0 9.515-4.332 18.036-11.128 23.697-.1.107-.211.198-.333.272a30.687 30.687 0 0 1-19.372 6.864 30.949 30.949 0 0 1-4.824-.378c-8.108-1.28-15.175-5.728-19.888-12.035a1.537 1.537 0 0 1-.242-.331 30.663 30.663 0 0 1-5.88-18.089c0-2.396.275-4.73.795-6.97a1.53 1.53 0 0 1 .05-.202c2.097-8.772 7.953-16.098 15.764-20.177.1-.068.208-.124.323-.167A30.648 30.648 0 0 1 39.93 3c1.935 0 3.828.181 5.665.523.064.009.127.02.188.037 13.434 2.592 23.79 13.931 24.884 27.835v.002zM46.885 6.967c-.372 2.933-2.152 4.457-5.215 6.548a64.18 64.18 0 0 1 3.885 3.376 52.122 52.122 0 0 1 2.978-1.818 1.542 1.542 0 0 1 1.513 2.687c-.732.412-1.482.863-2.246 1.35a65.803 65.803 0 0 1 4.55 5.23c2.147-1.343 4.493-2.418 7.264-2.09 2.315.274 4.618 1.543 6.967 3.846-2.72-9.35-10.236-16.68-19.696-19.13zm-6.955-.884a27.65 27.65 0 0 0-8.282 1.263c2.256.902 4.782 2.328 7.423 4.204 3.506-2.356 4.622-3.247 4.785-5.188a27.847 27.847 0 0 0-3.926-.279zm-27.75 27.75a27.582 27.582 0 0 0 3.903 14.178c2.29-4.391 6.517-10.065 11.807-15.775 4.897-5.286 10.156-10 15.063-13.552a59.94 59.94 0 0 0-4.342-3.646c-4.55-3.456-8.956-5.617-11.646-5.733a27.942 27.942 0 0 0-11.73 11.877c2.04-1.454 4.648-2.762 7.755-3.193 1.057-.146 3.26-.533 6.132-1.478a1.541 1.541 0 1 1 .964 2.929c-3.103 1.02-5.512 1.443-6.672 1.603-5.889.816-9.755 5.627-10.563 6.719a27.743 27.743 0 0 0-.671 6.072zm45.079 21.658c4.006-9.166-.336-18.971-4.721-25.619-.3-.453-.61-.903-.926-1.352-2.955 1.962-4.779 3.348-6.298 9.485a1.543 1.543 0 0 1-2.993-.74c1.776-7.176 4.287-9.117 7.447-11.222a62.764 62.764 0 0 0-4.563-5.181c-4.86 3.458-10.134 8.16-15.053 13.47-5.704 6.158-10.235 12.412-12.058 16.608 4.088 5.207 9.995 8.92 16.754 10.176 1.587-1.842 3.48-4.89 5.053-11.338a1.542 1.542 0 0 1 2.996.73c-1.349 5.531-2.968 8.84-4.485 11.033a27.618 27.618 0 0 0 18.846-6.05zm4.43-4.456a27.614 27.614 0 0 0 5.936-18.923c-6.165-8.58-9.982-7.463-13.44-5.295.316.45.626.903.926 1.357 3.182 4.823 5.277 9.602 6.225 14.203.621 3.015.738 5.909.353 8.658zm-8.03-35.18a1.542 1.542 0 0 1-.562-2.978c.256-.1.51-.195.757-.283A1.542 1.542 0 0 1 54.89 15.5c-.217.077-.442.161-.67.25a1.535 1.535 0 0 1-.56.106zm-19.96 2.075a1.542 1.542 0 0 1-.633-2.948c.235-.105.47-.215.706-.326a1.542 1.542 0 1 1 1.32 2.786c-.254.12-.508.238-.761.352-.205.092-.42.136-.632.136zm9.506 22.47a1.542 1.542 0 0 1 1.258 1.781c-.05.291-.089.528-.129.779a1.542 1.542 0 0 1-3.044-.49c.042-.26.082-.508.135-.812a1.542 1.542 0 0 1 1.78-1.258zm12.141 33.517a1.542 1.542 0 1 1 0 3.083H24.513a1.542 1.542 0 1 1 0-3.084h30.833z"/>
</svg>
