<svg xmlns="http://www.w3.org/2000/svg" width="80" height="80" viewBox="0 0 80 80">
    <path fill="#FFF" fill-rule="evenodd" d="M55.777 34.716l-3.79 4.94a.245.245 0 0 0-.042.217c.014.055.05.128.14.161l2.508.927c.506.187.776.783.603 1.33-.137.435-.513.709-.916.709a.902.902 0 0 1-.313-.056l-2.508-.928c-.67-.248-1.186-.837-1.378-1.576a2.482 2.482 0 0 1 .416-2.122l3.79-4.94a.919.919 0 0 1 1.363-.137c.412.37.468 1.03.127 1.475zm-1.919-5.906c.318.771.084 1.672-.533 2.052a.905.905 0 0 1-.476.138c-.376 0-.74-.244-.924-.67a1.439 1.439 0 0 1-.104-.755c-.663-1.007-2.163-1.154-3.359-1.087-1.637.092-3.113.605-3.128.61-.55.194-1.128-.18-1.291-.835-.163-.656.152-1.344.702-1.537.07-.025 1.734-.604 3.62-.71 3.511-.195 4.924 1.411 5.493 2.794zm14.95 6.335c.328.524.225 1.255-.229 1.634a.92.92 0 0 1-.592.221c-.315 0-.625-.168-.823-.485-.81-1.294-3.418-4.652-5.245-4.116-.1.209-.257.385-.46.493-.507.273-1.11.018-1.346-.568-.285-.709-.013-1.544.619-1.902 1.133-.642 3.031-.869 5.64 1.697a18.55 18.55 0 0 1 2.436 3.026zm-39.85 10.6c.155.561-.136 1.153-.647 1.321l-2.536.834a1.98 1.98 0 0 1-.62.1 2.04 2.04 0 0 1-1.347-.52c-.554-.485-.853-1.238-.802-2.013l.425-6.483c.039-.584.5-1.023 1.035-.981.532.042.933.55.895 1.134l-.426 6.483c-.007.105.04.17.082.206a.2.2 0 0 0 .202.043l2.535-.835c.512-.167 1.052.15 1.205.711zm-8.06-7.658c.149.381.134.81-.04 1.179l-1 2.11a1.053 1.053 0 0 1-.943.624.99.99 0 0 1-.482-.126c-.521-.288-.727-.978-.46-1.541l.49-1.036c-1.215-.066-2.472.383-3.394.83a12.94 12.94 0 0 0-2.363 1.485c-.463.385-1.128.293-1.485-.208-.357-.5-.273-1.218.19-1.605.188-.157 4.664-3.849 8.678-2.505.365.122.66.411.81.793zM35 31.027c.596.05 1.042.642.997 1.319-.045.677-.564 1.183-1.16 1.134-.062-.005-3.866-.288-6.112 1.602l.96.617c.52.335.702 1.085.408 1.676-.199.4-.565.625-.942.625a.978.978 0 0 1-.532-.16l-1.949-1.253c-.34-.218-.576-.593-.647-1.03-.072-.437.029-.885.277-1.229 2.721-3.77 8.457-3.322 8.7-3.301zM57.155 48.17a7.986 7.986 0 0 1 .399 6.208 1.054 1.054 0 0 1-1.002.707c-.3 0-.59-.126-.792-.352l-.43-.48a12.39 12.39 0 0 0-12.095-3.776c-.171.04-.346.035-.511-.007l-1.665 7.537c-.788 3.566-3.475 6.434-7.014 7.483l-3.658 1.085a10.272 10.272 0 0 1-10.025-2.43l-8.922-8.597a13.913 13.913 0 0 1-4.571-10.13 11.668 11.668 0 0 0-.953-4.511l-1.14-2.651c-1.83-4.26-.336-9.223 3.555-11.8C14.793 22.175 22.316 19.945 30.1 20c4.683.035 8.696 3.364 9.542 7.917l.526 2.832a11.71 11.71 0 0 0 1.718 4.284 13.846 13.846 0 0 1 1.83 10.943l-.079.353a8.206 8.206 0 0 1 2.51-1.876 8.26 8.26 0 0 1 6.283-.394 8.14 8.14 0 0 1 4.724 4.111zM41.66 45.483a11.767 11.767 0 0 0-1.552-9.315 13.78 13.78 0 0 1-2.021-5.04l-.526-2.833c-.663-3.566-3.808-6.175-7.477-6.203h-.28a36.61 36.61 0 0 0-20.295 6.102c-3.048 2.02-4.219 5.908-2.784 9.245l1.139 2.651a13.728 13.728 0 0 1 1.121 5.307 11.825 11.825 0 0 0 3.92 8.643l8.935 8.608a8.127 8.127 0 0 0 7.938 1.925l3.659-1.085c2.802-.831 4.93-3.102 5.554-5.926l2.66-12.047a.836.836 0 0 1 .009-.032zm4.452 2.567c3.599 0 7.09 1.332 9.77 3.775a6.045 6.045 0 0 0-4.136-5.786 6.135 6.135 0 0 0-4.666.293 6.067 6.067 0 0 0-2.178 1.769c.404-.034.808-.05 1.21-.05zm-10.457.681c1.292 4.212-1.159 8.668-5.463 9.932a8.29 8.29 0 0 1-2.338.337c-3.506 0-6.752-2.233-7.81-5.684a1.01 1.01 0 0 1 .256-1.013c.268-.267.662-.37 1.03-.27 4.354 1.19 8.998-.059 12.118-3.26l.444-.455c.258-.265.64-.375 1.003-.29.363.086.653.353.76.703zm-6.066 7.966c2.565-.753 4.244-3.033 4.312-5.52a14.485 14.485 0 0 1-11.01 3.248 5.986 5.986 0 0 0 2.09 1.814 6.13 6.13 0 0 0 4.608.458zM71.97 21.41c3.792 2.774 5.097 7.888 3.104 12.159l-1.241 2.658a12.09 12.09 0 0 0-1.126 4.559 14.296 14.296 0 0 1-4.957 10.148l-9.252 8.42A10.144 10.144 0 0 1 51.668 62c-1.103 0-2.213-.18-3.288-.55l-3.618-1.245a10.084 10.084 0 0 1-.43-.159 1.069 1.069 0 0 1-.598-1.382 1.057 1.057 0 0 1 1.372-.603c.113.045.226.087.34.126l3.619 1.245c2.77.953 5.84.317 8.012-1.66l9.263-8.43.026-.023a12.15 12.15 0 0 0 4.225-8.635 14.222 14.222 0 0 1 1.324-5.364l1.24-2.658c1.563-3.346.54-7.353-2.43-9.527a36.173 36.173 0 0 0-20.342-6.999c-3.676-.113-6.916 2.427-7.715 6.036l-.575 2.6a1.059 1.059 0 1 1-2.067-.464l.575-2.6c1.02-4.606 5.16-7.846 9.846-7.703A38.273 38.273 0 0 1 71.97 21.41z"/>
</svg>
