<svg xmlns="http://www.w3.org/2000/svg" width="80" height="80" viewBox="0 0 80 80">
    <path fill="#FFF" fill-rule="evenodd" d="M29.524 38.806c5.381 6.08 5.381 15.97 0 22.05l-9.949 11.238-9.948-11.239c-5.38-6.08-5.38-15.969 0-22.048 2.648-2.993 6.181-4.64 9.948-4.64 3.767 0 7.3 1.647 9.95 4.64zm-1.747 20.502c4.626-5.226 4.626-13.729-.001-18.955-2.198-2.485-5.113-3.853-8.2-3.853-3.089 0-6.002 1.368-8.201 3.853-4.627 5.226-4.627 13.73 0 18.955l8.201 9.265 8.2-9.265zM61.87 33.592l-7.542-8.5c-4.058-4.574-4.058-12.013 0-16.586C56.336 6.245 59.014 5 61.87 5c2.858 0 5.536 1.245 7.543 3.506 4.058 4.573 4.058 12.012 0 16.585l-7.541 8.5zm-5.797-23.537c-3.299 3.718-3.299 9.769 0 13.487l5.797 6.534 5.796-6.534c3.3-3.718 3.3-9.769 0-13.487C66.11 8.3 64.052 7.333 61.87 7.333c-2.18 0-4.238.966-5.796 2.722zm10.297 58.548c.63.141 1.024.766.882 1.396a6.429 6.429 0 0 1-1.215 2.552 1.163 1.163 0 0 1-1.638.196 1.166 1.166 0 0 1-.196-1.638c.379-.482.639-1.029.773-1.624a1.166 1.166 0 0 1 1.394-.882zM42.328 41.167h.414a1.166 1.166 0 1 1 0 2.333h-.417a6.442 6.442 0 0 1-2.29-.421c-.6-.23-.903-.904-.674-1.506a1.171 1.171 0 0 1 1.506-.675c.464.178.955.267 1.46.269zm-2.77-7.378a1.167 1.167 0 0 1-.62-2.158 6.327 6.327 0 0 1 2.677-.926 1.168 1.168 0 0 1 .255 2.32 4.027 4.027 0 0 0-1.696.588 1.167 1.167 0 0 1-.616.176zM26.075 72.667a1.166 1.166 0 1 1 0 2.333H23.74a1.166 1.166 0 1 1 0-2.333h2.334zm20.917-21h2.082a1.166 1.166 0 1 1 0 2.333l-2.285.005h-.05a1.166 1.166 0 0 1-.046-2.331c.1-.005.199-.007.299-.007zM46.408 33a1.166 1.166 0 1 1 0-2.333h2.334a1.166 1.166 0 1 1 0 2.333h-2.334zm14.333 18.667h2.333a1.166 1.166 0 1 1 0 2.333h-2.333a1.166 1.166 0 1 1 0-2.333zm4.169-9.334c0 .645-.523 1.167-1.167 1.167H61.41a1.166 1.166 0 1 1 0-2.333h2.333c.645 0 1.167.521 1.167 1.166zM53.74 54a1.166 1.166 0 1 1 0-2.333h2.333a1.166 1.166 0 1 1 0 2.333h-2.333zm2-21H53.41a1.166 1.166 0 1 1 0-2.333h2.333a1.166 1.166 0 1 1 0 2.333zm-8.331 8.167h2.333a1.166 1.166 0 1 1 0 2.333H47.41a1.166 1.166 0 1 1 0-2.333zm10.5 1.166c0 .645-.523 1.167-1.167 1.167H54.41a1.166 1.166 0 1 1 0-2.333h2.333c.645 0 1.167.521 1.167 1.166zm16.42 4.238a6.427 6.427 0 0 1-.18 2.822 1.167 1.167 0 0 1-2.24-.656 4.086 4.086 0 0 0 .116-1.797 1.166 1.166 0 1 1 2.304-.37zM54.075 72.667a1.166 1.166 0 1 1 0 2.333H51.74a1.166 1.166 0 1 1 0-2.333h2.334zm-7 0a1.166 1.166 0 1 1 0 2.333H44.74a1.166 1.166 0 1 1 0-2.333h2.334zm12.834-9.334c0 .645-.523 1.167-1.166 1.167h-2.334a1.166 1.166 0 1 1 0-2.333h2.334c.645 0 1.166.521 1.166 1.166zm-7 0c0 .645-.523 1.167-1.166 1.167h-2.334a1.166 1.166 0 1 1 0-2.333h2.334c.645 0 1.166.521 1.166 1.166zm8.083 9.334c.645 0 1.207.521 1.207 1.165 0 .645-.48 1.167-1.125 1.167v-1.167L61.04 75l-2.3.001a1.166 1.166 0 1 1 0-2.333h2.252zm4.128-6.162a1.17 1.17 0 0 1-.92-.444 4.093 4.093 0 0 0-1.396-1.136 1.167 1.167 0 0 1 1.04-2.09 6.467 6.467 0 0 1 2.191 1.783 1.166 1.166 0 0 1-.916 1.888zm4.45-15.154a1.167 1.167 0 0 1 .901 2.15 6.37 6.37 0 0 1-2.48.499h-.25a1.166 1.166 0 1 1 0-2.333h.25c.548 0 1.078-.107 1.578-.317zM37.7 39.83a1.168 1.168 0 0 1-1.473-.744 6.422 6.422 0 0 1-.267-2.815 1.161 1.161 0 0 1 1.303-1.011c.64.08 1.092.664 1.012 1.303a4.076 4.076 0 0 0 .17 1.793c.2.613-.133 1.272-.745 1.474zm-4.625 32.836a1.166 1.166 0 1 1 0 2.333H30.74a1.166 1.166 0 1 1 0-2.333h2.334zm11.734-8.64c-.162 0-.327-.036-.484-.107a6.46 6.46 0 0 1-2.248-1.711 1.166 1.166 0 1 1 1.786-1.502c.39.465.885.841 1.432 1.092a1.166 1.166 0 0 1-.486 2.227zm26.395-22a1.168 1.168 0 0 1-1.17 2.019 4.017 4.017 0 0 0-1.716-.534 1.166 1.166 0 1 1 .183-2.327c.96.076 1.87.36 2.703.843zm-31.13 30.64a1.166 1.166 0 1 1 0 2.333h-2.333a1.166 1.166 0 1 1 0-2.333h2.334zm2.907-15.355a1.174 1.174 0 0 1-1.366.928 1.168 1.168 0 0 1-.927-1.366 6.393 6.393 0 0 1 1.136-2.593 1.168 1.168 0 0 1 1.879 1.383 4.053 4.053 0 0 0-.722 1.648zM62.158 22.5a6.425 6.425 0 0 1-6.416-6.417 6.425 6.425 0 0 1 6.416-6.416 6.425 6.425 0 0 1 6.417 6.416 6.425 6.425 0 0 1-6.417 6.417zm0-10.5a4.089 4.089 0 0 0-4.083 4.083 4.088 4.088 0 0 0 4.083 4.084 4.088 4.088 0 0 0 4.084-4.084A4.088 4.088 0 0 0 62.158 12zM19.575 41.167c3.86 0 7 3.14 7 7s-3.14 7-7 7-7-3.14-7-7 3.14-7 7-7zm0 11.666a4.671 4.671 0 0 0 4.667-4.666 4.671 4.671 0 0 0-4.667-4.667 4.671 4.671 0 0 0-4.666 4.667 4.671 4.671 0 0 0 4.666 4.666z"/>
</svg>
