<svg xmlns="http://www.w3.org/2000/svg" width="400" height="346" viewBox="0 0 400 346">
    <style>
        path {
            fill: conic-gradient(#ffffff 25%, #7d5dd4 14%, #ffffff 25%);
        }
    </style>
    <path fill-rule="evenodd" d="M349.963 253.388c5.942-16.689 9.177-34.66 9.177-53.388 0-16.998-2.665-33.373-7.6-48.73l38.845-12.71C396.628 157.917 400 178.564 400 200c0 23.612-4.092 46.268-11.605 67.298l-38.432-13.91zm-.338.94l38.431 13.911c-10.392 28.635-27.14 54.222-48.536 75.058l-28.608-29.174c17.067-16.59 30.426-36.976 38.713-59.794zm1.606-104.01c-6.503-19.807-16.788-37.898-30.003-53.42L352.163 70.2c16.71 19.57 29.71 42.402 37.913 67.409l-38.845 12.71zm-30.653-54.18C291.394 62.288 248.2 40.86 200 40.86c-9.26 0-18.336.791-27.163 2.31l-7.35-40.203A201.272 201.272 0 0 1 200 0c60.561 0 114.835 26.917 151.511 69.44l-30.933 26.698zM171.852 43.342C116.235 53.268 70.625 92.086 51.099 143.718L12.79 129.471C37.273 64.52 94.588 15.664 164.502 3.141l7.35 40.2zM50.748 144.655C44.354 161.892 40.86 180.538 40.86 200a159.55 159.55 0 0 0 4.423 37.413l-39.71 9.671C1.93 231.985 0 216.218 0 200c0-24.473 4.396-47.919 12.44-69.592l38.308 14.247zm-5.228 93.729c7.423 29.972 23.34 56.593 45.05 77.16L62.609 345.34C35.21 319.432 15.135 285.86 5.81 248.056l39.71-9.672z"/>
</svg>
