<svg xmlns="http://www.w3.org/2000/svg" xmlns:xlink="http://www.w3.org/1999/xlink" width="770" height="111" viewBox="0 0 770 111">
    <defs>
        <path id="a" d="M0 .612h3.792v3.795H0z"/>
        <path id="c" d="M.255.421h3.014v3.016H.255z"/>
        <path id="e" d="M.092.421h3.013v3.016H.092z"/>
    </defs>
    <g fill="none" fill-rule="evenodd">
        <path fill="#7D5DD4" d="M72.053 20.584c2.712.044 4.914 2.295 4.87 4.978-.042 2.714-2.293 4.917-4.974 4.874-2.712-.044-4.915-2.295-4.871-4.978.044-2.713 2.294-4.918 4.975-4.874M77.152 25.496a4.862 4.862 0 0 1 4.88-4.87c2.728 0 4.91 2.2 4.881 4.927a4.861 4.861 0 0 1-4.91 4.84 4.862 4.862 0 0 1-4.851-4.897M57.14 25.513c-.002-2.66 2.182-4.842 4.84-4.837 2.657.006 4.832 2.197 4.819 4.86-.013 2.635-2.179 4.798-4.812 4.807-2.659.008-4.846-2.17-4.848-4.83M122.237 20.742a4.749 4.749 0 0 1 4.688 4.83 4.748 4.748 0 0 1-4.871 4.704c-2.65-.068-4.715-2.222-4.657-4.858.058-2.65 2.207-4.725 4.84-4.676M132.155 20.742a4.748 4.748 0 0 1 4.684 4.835c-.044 2.67-2.223 4.77-4.876 4.7-2.651-.073-4.714-2.23-4.652-4.863.062-2.652 2.21-4.724 4.844-4.672M87.339 25.5a4.713 4.713 0 0 1 4.719-4.72 4.714 4.714 0 0 1 4.733 4.768 4.715 4.715 0 0 1-4.75 4.691 4.714 4.714 0 0 1-4.702-4.738M97.377 35.52c.01-2.6 2.138-4.705 4.747-4.695 2.6.01 4.704 2.139 4.694 4.75-.012 2.6-2.14 4.706-4.747 4.696-2.602-.01-4.705-2.14-4.694-4.75M87.344 35.548a4.725 4.725 0 0 1 4.72-4.723 4.725 4.725 0 0 1 4.721 4.723 4.725 4.725 0 0 1-4.72 4.722 4.725 4.725 0 0 1-4.72-4.722M52.063 20.787a4.724 4.724 0 0 1-.015 9.446 4.724 4.724 0 0 1 .015-9.446M77.32 35.523c.014-2.598 2.166-4.716 4.767-4.69 2.572.027 4.67 2.161 4.659 4.74-.014 2.599-2.166 4.716-4.768 4.69-2.57-.027-4.67-2.16-4.657-4.74M107.44 35.554c-.005-2.572 2.127-4.704 4.698-4.697 2.573.007 4.698 2.147 4.679 4.715-.02 2.557-2.112 4.65-4.668 4.667-2.565.018-4.704-2.11-4.708-4.685M37.336 15.472c-.002-2.573 2.134-4.704 4.701-4.692 2.576.012 4.698 2.154 4.675 4.72-.024 2.56-2.118 4.65-4.672 4.663-2.569.013-4.704-2.118-4.704-4.69M112.101 20.838c2.573-.024 4.698 2.091 4.695 4.673a4.677 4.677 0 0 1-4.64 4.67c-2.573.023-4.699-2.092-4.696-4.674a4.68 4.68 0 0 1 4.641-4.669M102.12 20.862a4.628 4.628 0 0 1 4.622 4.672 4.629 4.629 0 0 1-4.67 4.624 4.628 4.628 0 0 1-4.62-4.673 4.627 4.627 0 0 1 4.669-4.623M137.461 25.527a4.626 4.626 0 0 1 4.627-4.665 4.627 4.627 0 0 1 4.663 4.63 4.628 4.628 0 0 1-4.629 4.665 4.626 4.626 0 0 1-4.66-4.63M67.356 35.547a4.626 4.626 0 0 1 4.647-4.647 4.627 4.627 0 0 1 4.643 4.65A4.627 4.627 0 0 1 72 40.196a4.628 4.628 0 0 1-4.644-4.65M117.544 35.576c-.01-2.57 2.019-4.632 4.574-4.647 2.595-.016 4.66 2.03 4.658 4.62a4.592 4.592 0 0 1-4.602 4.619 4.594 4.594 0 0 1-4.63-4.592M61.987 40.142c-2.51.01-4.592-2.05-4.61-4.56-.017-2.538 2.068-4.634 4.603-4.628 2.51.006 4.58 2.076 4.581 4.59.002 2.513-2.063 4.59-4.574 4.598M37.432 25.515c-.002-2.514 2.06-4.59 4.572-4.6 2.534-.01 4.624 2.082 4.61 4.62-.011 2.51-2.089 4.574-4.6 4.57-2.512-.005-4.58-2.077-4.582-4.59M127.531 35.536a4.54 4.54 0 0 1 4.54-4.533c2.528-.001 4.578 2.068 4.545 4.586-.032 2.517-2.07 4.526-4.568 4.505a4.542 4.542 0 0 1-4.517-4.558M152.165 21.001c2.519.012 4.502 2.034 4.478 4.566a4.48 4.48 0 0 1-4.532 4.451c-2.519-.012-4.504-2.035-4.479-4.565A4.48 4.48 0 0 1 152.165 21M47.569 35.547a4.485 4.485 0 0 1 4.501-4.488 4.483 4.483 0 0 1 4.471 4.52 4.487 4.487 0 0 1-8.972-.032M142.019 39.985c-2.462-.076-4.41-2.097-4.348-4.51.065-2.48 2.131-4.463 4.552-4.363 2.47.102 4.403 2.134 4.317 4.538-.089 2.467-2.115 4.41-4.521 4.335M162.09 19.909c-2.46-.07-4.412-2.088-4.355-4.503.058-2.479 2.123-4.465 4.543-4.37 2.47.094 4.406 2.125 4.326 4.53-.084 2.466-2.106 4.412-4.515 4.343M87.655 45.505a4.396 4.396 0 0 1 4.506-4.331 4.394 4.394 0 0 1 4.312 4.522c-.068 2.44-2.048 4.345-4.475 4.304a4.397 4.397 0 0 1-4.343-4.495M97.685 45.606a4.396 4.396 0 0 1 4.406-4.434 4.395 4.395 0 0 1 4.416 4.425 4.394 4.394 0 0 1-4.376 4.402 4.397 4.397 0 0 1-4.446-4.393M77.64 45.558a4.368 4.368 0 0 1 4.451-4.367c2.43.025 4.348 1.982 4.335 4.423-.012 2.458-1.985 4.394-4.45 4.367a4.365 4.365 0 0 1-4.336-4.423M112.116 41.203a4.359 4.359 0 0 1 4.393 4.37 4.359 4.359 0 0 1-4.367 4.397 4.357 4.357 0 0 1-4.394-4.37 4.358 4.358 0 0 1 4.368-4.397M42 39.921c-2.425-.007-4.36-1.971-4.346-4.411.01-2.423 1.98-4.354 4.423-4.336 2.393.017 4.32 1.973 4.317 4.383a4.36 4.36 0 0 1-4.393 4.364M157.798 25.518a4.36 4.36 0 0 1 4.378-4.382 4.36 4.36 0 0 1 4.364 4.394 4.362 4.362 0 0 1-4.346 4.354 4.36 4.36 0 0 1-4.396-4.366M67.638 45.58a4.372 4.372 0 0 1 4.354-4.36 4.372 4.372 0 0 1 4.371 4.402c-.013 2.393-1.983 4.339-4.383 4.33-2.394-.009-4.345-1.971-4.342-4.372M122.146 49.93c-2.388-.01-4.36-2.01-4.327-4.387.033-2.374 1.995-4.311 4.357-4.301 2.387.01 4.36 2.011 4.326 4.388-.033 2.373-1.995 4.31-4.356 4.3M147.814 35.573c-.022-2.36 1.905-4.316 4.283-4.351 2.375-.036 4.369 1.943 4.366 4.33-.005 2.37-1.945 4.312-4.314 4.323-2.364.009-4.312-1.926-4.335-4.302M47.758 15.471c0-2.39 1.926-4.31 4.312-4.3a4.285 4.285 0 0 1 4.282 4.33 4.283 4.283 0 0 1-4.282 4.271 4.287 4.287 0 0 1-4.312-4.3M61.966 49.887a4.286 4.286 0 0 1-4.294-4.318 4.284 4.284 0 0 1 4.33-4.283 4.283 4.283 0 0 1 4.264 4.289 4.287 4.287 0 0 1-4.3 4.312M132.09 49.843a4.245 4.245 0 0 1-4.27-4.272 4.245 4.245 0 0 1 4.238-4.242 4.244 4.244 0 0 1 4.27 4.273 4.243 4.243 0 0 1-4.239 4.241M32.01 39.797c-2.334.007-4.25-1.887-4.265-4.216a4.257 4.257 0 0 1 4.258-4.283 4.257 4.257 0 0 1 4.234 4.246c.001 2.335-1.898 4.246-4.227 4.253M52.03 41.359c2.313-.02 4.253 1.91 4.25 4.231-.002 2.3-1.896 4.204-4.2 4.224-2.313.017-4.252-1.912-4.249-4.231.003-2.301 1.895-4.205 4.199-4.224M158.01 35.568a4.137 4.137 0 0 1 4.124-4.183 4.136 4.136 0 0 1 4.196 4.172 4.134 4.134 0 0 1-4.155 4.154 4.135 4.135 0 0 1-4.166-4.143M137.946 45.615a4.134 4.134 0 0 1 4.116-4.191 4.133 4.133 0 0 1 4.203 4.163 4.132 4.132 0 0 1-4.145 4.162 4.135 4.135 0 0 1-4.174-4.134M31.986 21.372a4.123 4.123 0 0 1 4.14 4.16A4.124 4.124 0 0 1 32 29.648a4.124 4.124 0 0 1-4.143-4.162 4.125 4.125 0 0 1 4.13-4.114M42.012 41.466c2.258-.006 4.131 1.863 4.13 4.124-.003 2.26-1.879 4.128-4.137 4.116-2.238-.01-4.085-1.856-4.099-4.093-.014-2.262 1.846-4.141 4.106-4.147M87.96 55.647c-.017-2.231 1.821-4.1 4.066-4.129 2.25-.03 4.147 1.853 4.143 4.113-.004 2.239-1.858 4.094-4.097 4.1-2.233.007-4.092-1.84-4.111-4.084M152.16 11.385c2.253.02 4.093 1.884 4.06 4.123-.03 2.26-1.901 4.092-4.133 4.05-2.24-.044-4.038-1.869-4.032-4.094.006-2.253 1.863-4.097 4.105-4.079M77.95 55.596c.025-2.258 1.892-4.095 4.126-4.058 2.26.038 4.09 1.914 4.04 4.145-.05 2.244-1.874 4.039-4.097 4.027-2.253-.012-4.094-1.874-4.069-4.114M98.013 55.64c-.013-2.246 1.833-4.1 4.084-4.1 2.248-.002 4.095 1.852 4.082 4.099a4.097 4.097 0 0 1-4.053 4.07c-2.237.028-4.1-1.815-4.113-4.069M152.083 49.645a4.038 4.038 0 0 1-4-4.1 4.037 4.037 0 0 1 4.14-4.016 4.037 4.037 0 0 1 3.97 4.128 4.038 4.038 0 0 1-4.11 3.988M112.14 51.566a4.036 4.036 0 0 1 4.044 4.055 4.038 4.038 0 0 1-4.096 4.063 4.038 4.038 0 0 1-4.015-4.085 4.039 4.039 0 0 1 4.067-4.033M72.004 59.651a4.003 4.003 0 0 1-4.028-4.053 4.002 4.002 0 0 1 4.022-4 4.003 4.003 0 0 1 4.029 4.053 4.003 4.003 0 0 1-4.023 4M168.187 35.525a4.01 4.01 0 0 1 4.023-3.994 4.012 4.012 0 0 1 4.007 4.07c-.02 2.205-1.831 3.978-4.054 3.964-2.208-.013-3.985-1.819-3.976-4.04M122.164 51.607a4.01 4.01 0 0 1 4.01 4.006 4.01 4.01 0 0 1-4.046 4.029 4.011 4.011 0 0 1-3.983-4.036 4.01 4.01 0 0 1 4.019-3.999M27.986 45.502c.04-2.2 1.895-3.972 4.104-3.924 2.2.05 3.963 1.911 3.907 4.122-.055 2.175-1.89 3.93-4.075 3.895-2.2-.034-3.977-1.882-3.936-4.093M57.975 55.597c.018-2.182 1.831-3.978 4.008-3.97 2.202.01 4.019 1.86 3.98 4.055-.037 2.185-1.862 3.967-4.036 3.94-2.182-.028-3.971-1.85-3.952-4.025M172.126 29.49c-2.2-.063-3.965-1.898-3.903-4.056.063-2.2 1.899-3.968 4.055-3.904 2.2.063 3.964 1.899 3.9 4.055-.063 2.202-1.896 3.968-4.052 3.905M132.085 51.668c2.196.008 3.973 1.81 3.943 3.996a3.954 3.954 0 0 1-3.964 3.917c-2.198-.008-3.974-1.81-3.944-3.996a3.954 3.954 0 0 1 3.965-3.917M162.167 49.502c-2.191 0-3.922-1.747-3.91-3.946a3.889 3.889 0 0 1 3.915-3.885 3.887 3.887 0 0 1 3.909 3.947 3.886 3.886 0 0 1-3.914 3.884M55.956 55.658a3.89 3.89 0 0 1-3.92 3.87c-2.178-.007-3.903-1.77-3.88-3.968.02-2.144 1.782-3.856 3.948-3.839 2.15.017 3.863 1.77 3.852 3.937M138.238 55.59c.028-2.121 1.801-3.863 3.903-3.835 2.12.026 3.86 1.801 3.832 3.904-.027 2.12-1.799 3.863-3.902 3.836-2.119-.028-3.86-1.802-3.833-3.905M42.047 59.425a3.771 3.771 0 0 1-3.822-3.806A3.774 3.774 0 0 1 42 51.822a3.774 3.774 0 0 1 3.822 3.809 3.772 3.772 0 0 1-3.776 3.794M168.415 45.544c.015-2.093 1.709-3.755 3.815-3.746 2.118.01 3.782 1.72 3.757 3.861-.025 2.085-1.731 3.736-3.844 3.715-2.087-.02-3.743-1.72-3.728-3.83M152.113 59.393c-2.058-.013-3.746-1.72-3.74-3.779.004-2.08 1.74-3.789 3.819-3.758 2.057.03 3.733 1.749 3.71 3.809-.02 2.058-1.73 3.741-3.789 3.728M102.183 61.93c2.085.074 3.738 1.822 3.643 3.848-.1 2.07-1.806 3.689-3.816 3.618-2.084-.076-3.738-1.822-3.642-3.85.098-2.07 1.805-3.688 3.815-3.616M92.094 69.397c-2.048.025-3.761-1.676-3.761-3.734 0-2.037 1.658-3.71 3.702-3.734 2.049-.026 3.761 1.675 3.761 3.734 0 2.036-1.658 3.709-3.702 3.734M58.268 15.471a3.68 3.68 0 0 1 3.7-3.704 3.683 3.683 0 0 1 3.703 3.704 3.68 3.68 0 0 1-3.7 3.705 3.682 3.682 0 0 1-3.703-3.705M108.426 65.68a3.683 3.683 0 0 1 3.685-3.721 3.683 3.683 0 0 1 3.72 3.686 3.685 3.685 0 0 1-3.685 3.723 3.684 3.684 0 0 1-3.72-3.688M78.331 65.662a3.68 3.68 0 0 1 3.702-3.703 3.682 3.682 0 0 1 3.702 3.703 3.683 3.683 0 0 1-3.702 3.705 3.682 3.682 0 0 1-3.702-3.705M31.999 59.329a3.682 3.682 0 0 1-3.71-3.698 3.684 3.684 0 0 1 3.695-3.712 3.684 3.684 0 0 1 3.71 3.7 3.682 3.682 0 0 1-3.695 3.71M71.982 69.333a3.651 3.651 0 0 1-3.649-3.69 3.65 3.65 0 0 1 3.686-3.65 3.653 3.653 0 0 1 3.65 3.689 3.653 3.653 0 0 1-3.687 3.651M122.133 69.323c-2.024-.01-3.653-1.677-3.63-3.718.021-1.998 1.674-3.614 3.685-3.602 2.025.01 3.653 1.677 3.63 3.716-.02 2-1.675 3.615-3.685 3.604M162.177 59.275c-1.992.004-3.644-1.635-3.656-3.628-.012-2.016 1.655-3.686 3.671-3.674 1.99.014 3.63 1.666 3.626 3.659-.005 1.992-1.65 3.64-3.64 3.643M61.968 62.027c1.987 0 3.645 1.664 3.635 3.65-.01 1.992-1.68 3.644-3.663 3.622-1.973-.022-3.592-1.65-3.604-3.62-.012-1.987 1.645-3.652 3.632-3.652M22.025 41.973c1.997.057 3.589 1.701 3.544 3.665-.042 2.016-1.73 3.637-3.705 3.56-2.005-.08-3.58-1.735-3.513-3.693.067-2.002 1.716-3.586 3.674-3.532M132.057 69.245a3.558 3.558 0 0 1-3.563-3.613 3.561 3.561 0 0 1 3.625-3.552 3.56 3.56 0 0 1 3.536 3.585c0 2-1.598 3.59-3.598 3.58M21.936 59.188a3.535 3.535 0 0 1-3.538-3.573c.004-2.007 1.6-3.576 3.616-3.554 1.975.02 3.524 1.612 3.507 3.603a3.533 3.533 0 0 1-3.585 3.524M55.602 65.75c-.03 1.961-1.65 3.498-3.649 3.462-1.957-.035-3.486-1.665-3.445-3.666.041-1.93 1.652-3.459 3.62-3.432 1.964.025 3.505 1.64 3.474 3.636M145.645 15.51c-.018 1.958-1.638 3.531-3.607 3.502-1.93-.03-3.488-1.636-3.47-3.58.016-1.956 1.636-3.53 3.605-3.501 1.93.03 3.488 1.636 3.472 3.579M142.09 62.133c1.925-.01 3.533 1.584 3.542 3.513.01 1.928-1.581 3.536-3.51 3.546-1.926.01-3.534-1.582-3.542-3.512-.01-1.929 1.581-3.536 3.51-3.547M172.18 52.112c1.92-.018 3.538 1.594 3.532 3.52-.006 1.907-1.579 3.487-3.488 3.505-1.92.017-3.538-1.595-3.533-3.519.006-1.907 1.577-3.488 3.488-3.506M38.568 65.643a3.43 3.43 0 0 1 3.505-3.437 3.43 3.43 0 0 1 3.406 3.477 3.43 3.43 0 0 1-3.504 3.437 3.43 3.43 0 0 1-3.407-3.477M182.21 42.147a3.412 3.412 0 0 1 3.462 3.417c.007 1.924-1.5 3.454-3.417 3.461a3.412 3.412 0 0 1-3.46-3.416c-.006-1.926 1.5-3.455 3.415-3.462M148.722 65.69c-.015-1.873 1.516-3.43 3.388-3.445 1.873-.014 3.43 1.517 3.443 3.39.014 1.873-1.515 3.432-3.388 3.445a3.435 3.435 0 0 1-3.443-3.39M182.222 58.973a3.328 3.328 0 0 1-3.336-3.39 3.328 3.328 0 0 1 3.36-3.308 3.327 3.327 0 0 1 3.334 3.39 3.325 3.325 0 0 1-3.358 3.308M28.644 15.464a3.329 3.329 0 0 1 3.385-3.342 3.327 3.327 0 0 1 3.309 3.357 3.329 3.329 0 0 1-3.383 3.342 3.328 3.328 0 0 1-3.31-3.357M31.996 62.314a3.328 3.328 0 0 1 3.343 3.382 3.326 3.326 0 0 1-3.352 3.316 3.33 3.33 0 0 1-3.343-3.383 3.327 3.327 0 0 1 3.352-3.315M88.739 75.721c-.008-1.862 1.45-3.34 3.306-3.348a3.3 3.3 0 0 1 3.346 3.308c.007 1.862-1.45 3.34-3.306 3.348a3.302 3.302 0 0 1-3.346-3.308M102.11 72.373a3.298 3.298 0 0 1 3.311 3.34 3.299 3.299 0 0 1-3.337 3.315 3.3 3.3 0 0 1-3.313-3.339 3.3 3.3 0 0 1 3.338-3.316M78.72 75.692a3.3 3.3 0 0 1 3.353-3.305 3.298 3.298 0 0 1 3.27 3.323 3.298 3.298 0 0 1-3.349 3.305 3.3 3.3 0 0 1-3.273-3.323M158.868 65.636a3.312 3.312 0 0 1 3.328-3.277c1.814.012 3.287 1.51 3.275 3.33a3.31 3.31 0 0 1-3.328 3.276 3.31 3.31 0 0 1-3.275-3.329M112.077 79.005c-1.812-.026-3.274-1.534-3.249-3.356.022-1.812 1.533-3.276 3.352-3.25 1.812.023 3.274 1.533 3.25 3.354-.024 1.811-1.534 3.275-3.353 3.252M71.995 78.992c-1.806-.005-3.306-1.525-3.282-3.328.023-1.786 1.514-3.258 3.295-3.253 1.805.004 3.305 1.524 3.281 3.326-.023 1.786-1.513 3.259-3.294 3.255M168.913 15.476c-.003-1.804 1.51-3.31 3.312-3.296 1.784.016 3.26 1.503 3.265 3.286.003 1.804-1.51 3.311-3.312 3.297-1.785-.017-3.262-1.503-3.265-3.287M122.172 78.971c-1.78.01-3.27-1.471-3.28-3.26-.01-1.781 1.47-3.272 3.257-3.28 1.78-.01 3.27 1.47 3.28 3.259.01 1.782-1.47 3.272-3.257 3.281M58.734 75.628a3.222 3.222 0 0 1 3.337-3.162 3.224 3.224 0 0 1 3.133 3.308 3.222 3.222 0 0 1-3.337 3.162 3.225 3.225 0 0 1-3.133-3.308M18.725 65.684a3.224 3.224 0 0 1 3.242-3.26 3.224 3.224 0 0 1 3.228 3.217 3.223 3.223 0 0 1-3.243 3.26 3.224 3.224 0 0 1-3.227-3.217M128.88 75.678c.007-1.788 1.445-3.193 3.246-3.174 1.759.018 3.151 1.447 3.142 3.22-.007 1.79-1.444 3.193-3.247 3.175-1.757-.02-3.15-1.446-3.142-3.221M172.192 68.836c-1.742-.006-3.186-1.473-3.162-3.212.025-1.723 1.464-3.14 3.182-3.135 1.74.005 3.186 1.474 3.16 3.212-.023 1.723-1.462 3.14-3.18 3.135M48.884 75.686c.01-1.743 1.479-3.187 3.216-3.158 1.721.028 3.136 1.47 3.127 3.188-.01 1.744-1.48 3.187-3.216 3.159-1.722-.028-3.136-1.47-3.127-3.189M68.85 15.464c.006-1.726 1.456-3.165 3.172-3.145 1.732.017 3.16 1.473 3.131 3.19-.03 1.712-1.439 3.11-3.145 3.116-1.718.005-3.164-1.44-3.158-3.16M138.988 75.724a3.103 3.103 0 0 1 3.08-3.143 3.103 3.103 0 0 1 3.155 3.127 3.103 3.103 0 0 1-3.11 3.113 3.104 3.104 0 0 1-3.125-3.097M42.026 72.623a3.063 3.063 0 0 1 3.073 3.065 3.062 3.062 0 0 1-3.107 3.091 3.064 3.064 0 0 1-3.046-3.095 3.065 3.065 0 0 1 3.08-3.061M182.206 62.632c1.65-.022 3.046 1.355 3.055 3.019.01 1.656-1.372 3.045-3.03 3.042-1.639-.002-2.991-1.339-3.025-2.99-.036-1.647 1.334-3.049 3-3.07M149.11 75.678c.019-1.667 1.417-3.038 3.065-3.007 1.669.031 3.034 1.438 2.991 3.082-.044 1.654-1.402 2.985-3.037 2.977-1.66-.006-3.038-1.399-3.02-3.052M21.97 38.578c-1.656.009-3.042-1.375-3.04-3.035.005-1.66 1.396-3.04 3.05-3.025a3.054 3.054 0 0 1 3.008 3.005c.021 1.653-1.356 3.046-3.017 3.055M129.081 15.491a2.975 2.975 0 0 1 2.974-3.014 2.975 2.975 0 0 1 3.012 2.976 2.976 2.976 0 0 1-2.974 3.013c-1.667.01-3-1.307-3.012-2.975M29.022 75.728c-.01-1.678 1.298-2.999 2.971-2.997a2.941 2.941 0 0 1 2.968 2.943c.01 1.678-1.296 2.999-2.97 2.997a2.941 2.941 0 0 1-2.969-2.943M179.29 35.503a2.963 2.963 0 0 1 3.018-2.899c1.6.04 2.893 1.389 2.868 2.99a2.96 2.96 0 0 1-3.018 2.897 2.96 2.96 0 0 1-2.868-2.988M159.245 75.71c-.008-1.596 1.336-2.94 2.93-2.936 1.598.004 2.935 1.353 2.92 2.947-.016 1.581-1.322 2.889-2.902 2.908-1.592.016-2.941-1.32-2.948-2.92M11.9 62.765c1.582-.02 2.893 1.26 2.924 2.856.031 1.603-1.29 2.941-2.898 2.94a2.905 2.905 0 0 1-2.894-2.887 2.905 2.905 0 0 1 2.869-2.909M92.05 88.52a2.905 2.905 0 0 1-2.881-2.898c0-1.61 1.339-2.931 2.94-2.899 1.594.033 2.873 1.345 2.852 2.927-.022 1.594-1.327 2.88-2.91 2.87M102.12 82.723a2.906 2.906 0 0 1 2.872 2.906c-.006 1.612-1.349 2.929-2.948 2.89-1.596-.04-2.872-1.356-2.844-2.935.028-1.596 1.336-2.878 2.92-2.86M79.171 85.608c.006-1.615 1.286-2.87 2.904-2.851a2.836 2.836 0 0 1 2.82 2.878c-.007 1.613-1.286 2.869-2.906 2.85a2.834 2.834 0 0 1-2.818-2.877M19.117 75.68a2.822 2.822 0 0 1 2.863-2.824 2.823 2.823 0 0 1 2.823 2.865 2.823 2.823 0 0 1-2.863 2.824 2.823 2.823 0 0 1-2.823-2.864M72.007 88.466a2.822 2.822 0 0 1-2.848-2.838 2.823 2.823 0 0 1 2.836-2.852 2.825 2.825 0 0 1 2.85 2.84 2.823 2.823 0 0 1-2.838 2.85M109.285 85.605a2.822 2.822 0 0 1 2.86-2.828 2.824 2.824 0 0 1 2.827 2.86 2.825 2.825 0 0 1-2.86 2.83 2.823 2.823 0 0 1-2.827-2.862M122.142 82.788a2.841 2.841 0 0 1 2.85 2.844 2.844 2.844 0 0 1-2.815 2.822 2.842 2.842 0 0 1-2.848-2.844 2.843 2.843 0 0 1 2.813-2.822M39.208 5.524c.019-1.536 1.314-2.808 2.842-2.79 1.537.018 2.806 1.313 2.79 2.844-.02 1.538-1.314 2.808-2.843 2.79-1.536-.017-2.807-1.313-2.79-2.844M61.97 82.83c1.52 0 2.778 1.254 2.79 2.777.01 1.538-1.289 2.83-2.821 2.805-1.527-.023-2.771-1.29-2.76-2.807.012-1.523 1.273-2.777 2.79-2.775M169.449 75.725a2.73 2.73 0 0 1 2.743-2.778 2.73 2.73 0 0 1 2.762 2.76 2.73 2.73 0 0 1-2.714 2.748 2.731 2.731 0 0 1-2.791-2.73M129.322 85.611a2.729 2.729 0 0 1 2.776-2.743 2.73 2.73 0 0 1 2.728 2.792 2.73 2.73 0 0 1-2.747 2.715 2.729 2.729 0 0 1-2.757-2.764M49.341 85.633a2.712 2.712 0 0 1 2.733-2.728 2.711 2.711 0 0 1 2.696 2.703 2.714 2.714 0 1 1-5.429.025M189.565 65.657c.003-1.473 1.236-2.7 2.705-2.697 1.472.004 2.699 1.236 2.696 2.708-.005 1.472-1.236 2.7-2.706 2.697-1.472-.003-2.7-1.236-2.695-2.708M11.915 72.999c1.47-.008 2.706 1.217 2.714 2.69.007 1.471-1.215 2.706-2.689 2.714-1.47.008-2.704-1.216-2.712-2.69-.009-1.47 1.215-2.707 2.687-2.714M142.1 88.3c-1.453-.005-2.665-1.215-2.67-2.67-.008-1.474 1.245-2.715 2.711-2.687 1.462.028 2.658 1.251 2.641 2.699-.016 1.458-1.23 2.662-2.682 2.657M162.18 2.912a2.617 2.617 0 0 1 2.627 2.68 2.615 2.615 0 0 1-2.649 2.598 2.618 2.618 0 0 1-2.626-2.68 2.619 2.619 0 0 1 2.648-2.598M41.985 83.007c1.47-.015 2.636 1.117 2.651 2.575.015 1.473-1.116 2.638-2.573 2.653-1.47.015-2.637-1.117-2.651-2.575-.015-1.473 1.115-2.638 2.573-2.653M182.233 73.103c1.43 0 2.591 1.153 2.597 2.583a2.597 2.597 0 0 1-5.193 0 2.593 2.593 0 0 1 2.596-2.583M152.12 88.205c-1.414-.012-2.586-1.208-2.564-2.618.021-1.413 1.224-2.58 2.63-2.55 1.392.032 2.536 1.199 2.534 2.587-.003 1.413-1.19 2.593-2.6 2.581M9.372 55.615c.008-1.396 1.174-2.555 2.564-2.548 1.397.006 2.554 1.173 2.548 2.566-.007 1.396-1.173 2.556-2.564 2.548-1.397-.006-2.555-1.172-2.548-2.566M32.07 83.13c1.384.03 2.448 1.17 2.411 2.586-.035 1.38-1.182 2.438-2.598 2.395-1.354-.04-2.406-1.168-2.38-2.554.021-1.387 1.156-2.459 2.568-2.428M162.147 88.08c-1.346-.014-2.472-1.173-2.436-2.51.036-1.331 1.162-2.424 2.48-2.41 1.348.017 2.473 1.176 2.438 2.513-.037 1.331-1.16 2.424-2.482 2.408M189.806 55.616c.006-1.347 1.158-2.478 2.497-2.452 1.328.027 2.426 1.146 2.42 2.468-.006 1.348-1.157 2.48-2.494 2.452-1.329-.026-2.427-1.146-2.423-2.468M192.261 73.274a2.438 2.438 0 0 1 2.43 2.439c-.009 1.341-1.117 2.434-2.452 2.415a2.435 2.435 0 0 1-2.4-2.41 2.436 2.436 0 0 1 2.422-2.444M19.593 85.593a2.354 2.354 0 0 1 2.38-2.34c1.335.006 2.376 1.08 2.353 2.426-.022 1.303-1.09 2.326-2.41 2.31a2.353 2.353 0 0 1-2.323-2.396M102.116 98.012c-1.294.012-2.376-1.068-2.37-2.363a2.374 2.374 0 0 1 2.332-2.343 2.372 2.372 0 0 1 2.37 2.365 2.374 2.374 0 0 1-2.332 2.34M89.714 95.65c.006-1.294 1.1-2.366 2.39-2.343a2.373 2.373 0 0 1 2.313 2.362c-.007 1.294-1.1 2.366-2.393 2.343a2.372 2.372 0 0 1-2.31-2.362M79.682 95.632c.016-1.294 1.119-2.36 2.408-2.325 1.272.034 2.31 1.11 2.295 2.38-.018 1.295-1.119 2.358-2.41 2.324-1.273-.034-2.31-1.109-2.293-2.38M109.802 95.643c.013-1.269 1.08-2.323 2.342-2.311 1.267.012 2.322 1.08 2.309 2.342-.01 1.27-1.08 2.325-2.341 2.312-1.268-.012-2.322-1.081-2.31-2.343M69.719 95.664a2.26 2.26 0 0 1 2.277-2.288 2.26 2.26 0 0 1 2.287 2.28 2.26 2.26 0 0 1-2.278 2.288 2.261 2.261 0 0 1-2.286-2.28M169.92 85.604a2.26 2.26 0 0 1 2.299-2.267 2.262 2.262 0 0 1 2.266 2.3 2.263 2.263 0 0 1-2.302 2.268 2.26 2.26 0 0 1-2.264-2.301M119.906 95.661a2.232 2.232 0 0 1 2.282-2.258 2.234 2.234 0 0 1 2.228 2.254 2.234 2.234 0 0 1-2.282 2.258 2.231 2.231 0 0 1-2.228-2.254M59.731 95.632a2.252 2.252 0 0 1 2.28-2.213 2.252 2.252 0 0 1 2.195 2.297 2.25 2.25 0 0 1-2.249 2.183 2.252 2.252 0 0 1-2.226-2.267M129.858 95.649c.007-1.202 1.027-2.215 2.226-2.208 1.201.007 2.214 1.03 2.206 2.229-.007 1.202-1.027 2.215-2.226 2.208-1.201-.008-2.213-1.03-2.206-2.229M54.195 95.66a2.115 2.115 0 0 1-2.125 2.141c-1.223.006-2.166-.946-2.155-2.172a2.114 2.114 0 0 1 2.156-2.11 2.113 2.113 0 0 1 2.124 2.141M180.11 85.594a2.131 2.131 0 0 1 2.164-2.097 2.127 2.127 0 0 1 2.08 2.18 2.127 2.127 0 0 1-2.132 2.068 2.13 2.13 0 0 1-2.112-2.15M139.984 95.635a2.13 2.13 0 0 1 2.16-2.1 2.13 2.13 0 0 1 2.085 2.177 2.128 2.128 0 0 1-2.132 2.07 2.126 2.126 0 0 1-2.113-2.147M11.944 87.723c-1.138.011-2.115-.959-2.116-2.1-.002-1.14.975-2.112 2.113-2.103 1.12.01 2.065.945 2.087 2.07.024 1.136-.94 2.12-2.084 2.133M150.136 95.631a2.016 2.016 0 0 1 2.06-1.974 2.017 2.017 0 0 1 1.944 2.032 2.017 2.017 0 0 1-2.06 1.974 2.016 2.016 0 0 1-1.944-2.032M41.996 93.682c1.076-.02 2.004.898 2.003 1.979-.002 1.059-.886 1.956-1.948 1.976-1.075.02-2.004-.9-2.003-1.98.002-1.058.886-1.956 1.948-1.975"/>
        <g transform="translate(0 73.191)">
            <mask id="b" fill="#fff">
                <use xlink:href="#a"/>
            </mask>
            <path fill="#7D5DD4" d="M0 2.508A1.882 1.882 0 0 1 1.911.612a1.882 1.882 0 0 1 1.88 1.929 1.883 1.883 0 0 1-1.883 1.866 1.882 1.882 0 0 1-1.91-1.899" mask="url(#b)"/>
        </g>
        <path fill="#7D5DD4" d="M192.286 83.829c1.01.009 1.778.797 1.769 1.813-.009 1.009-.795 1.78-1.81 1.77-1.008-.007-1.778-.795-1.771-1.811.009-1.009.797-1.78 1.812-1.772M162.179 93.89a1.777 1.777 0 0 1 1.759 1.763 1.776 1.776 0 0 1-1.806 1.776 1.778 1.778 0 0 1-1.731-1.792 1.778 1.778 0 0 1 1.778-1.747M200.44 75.69c.01-.937.803-1.726 1.737-1.73.953 0 1.77.835 1.741 1.783-.03.939-.838 1.717-1.766 1.699-.937-.02-1.72-.822-1.712-1.753M33.645 95.708a1.653 1.653 0 0 1-1.687 1.606 1.655 1.655 0 1 1 1.688-1.606"/>
        <g transform="translate(110.367 103.769)">
            <mask id="d" fill="#fff">
                <use xlink:href="#c"/>
            </mask>
            <path fill="#7D5DD4" d="M.255 1.9C.275 1.088.987.402 1.791.421c.811.02 1.497.732 1.478 1.537-.021.81-.732 1.498-1.536 1.479C.922 3.417.236 2.703.255 1.9" mask="url(#d)"/>
        </g>
        <path fill="#7D5DD4" d="M.39 85.592c.02-.812.73-1.498 1.535-1.478.811.019 1.497.732 1.478 1.536-.021.812-.732 1.498-1.536 1.479-.811-.02-1.497-.734-1.478-1.537M170.696 95.672c-.01-.806.683-1.511 1.492-1.52.807-.009 1.51.685 1.52 1.494.009.807-.685 1.511-1.494 1.521-.806.01-1.51-.684-1.518-1.495"/>
        <g transform="translate(100.499 103.769)">
            <mask id="f" fill="#fff">
                <use xlink:href="#e"/>
            </mask>
            <path fill="#7D5DD4" d="M1.603.421c.808.003 1.504.706 1.502 1.513-.005.81-.705 1.506-1.512 1.503C.784 3.432.088 2.73.093 1.924.093 1.114.795.418 1.602.42" mask="url(#f)"/>
        </g>
        <path fill="#7D5DD4" d="M90.559 105.715c-.012-.804.678-1.513 1.488-1.524.805-.012 1.512.678 1.524 1.489.013.806-.679 1.513-1.489 1.524-.805.014-1.512-.678-1.523-1.489M80.588 105.681c.008-.825.646-1.443 1.475-1.428.823.013 1.435.66 1.415 1.49-.021.799-.642 1.4-1.446 1.4-.827 0-1.451-.632-1.444-1.462M122.138 104.283a1.427 1.427 0 0 1 1.436 1.407 1.426 1.426 0 0 1-1.42 1.423 1.428 1.428 0 0 1-1.407-1.378 1.426 1.426 0 0 1 1.39-1.452M70.63 105.698c0-.759.646-1.392 1.4-1.372a1.388 1.388 0 0 1 1.343 1.372c0 .757-.648 1.392-1.401 1.372a1.387 1.387 0 0 1-1.342-1.372M202.195 84.31a1.291 1.291 0 0 1 1.295 1.312c0 .758-.595 1.333-1.357 1.31a1.293 1.293 0 0 1-1.265-1.342 1.29 1.29 0 0 1 1.327-1.28M21.955 94.347a1.292 1.292 0 0 1 1.317 1.293 1.29 1.29 0 0 1-1.336 1.33 1.29 1.29 0 0 1-1.288-1.32c.005-.733.574-1.3 1.307-1.303M130.794 105.722c-.016-.682.57-1.29 1.257-1.305.683-.016 1.288.57 1.303 1.256.015.683-.569 1.29-1.256 1.306-.681.015-1.289-.57-1.304-1.257M60.758 105.695a1.189 1.189 0 0 1 1.244-1.21c.675.015 1.18.536 1.18 1.214a1.189 1.189 0 0 1-1.245 1.21 1.185 1.185 0 0 1-1.18-1.214M142.057 106.805a1.09 1.09 0 0 1-1.057-1.171 1.091 1.091 0 0 1 1.185-1.041 1.088 1.088 0 0 1 1.027 1.138 1.088 1.088 0 0 1-1.155 1.074M182.206 96.767a1.09 1.09 0 0 1-1.079-1.15 1.089 1.089 0 0 1 1.163-1.064 1.088 1.088 0 0 1 1.051 1.12 1.088 1.088 0 0 1-1.135 1.094"/>
        <path fill="#231F20" d="M223 76.205v-55h32.222v11.786h-19.798v9.666h17.468v11.785h-17.468v9.977H256v11.786h-33zm62.74-33.389c-.391 4.459-1.25 8.995-2.5 13.453s-2.344 7.274-3.361 8.602h17.82V33.586h-11.1l-.859 9.23zM260.26 85.99V64.87h5.864c1.484-1.956 3.125-5.787 4.766-11.497 1.72-5.787 2.737-12.668 3.126-20.568l.47-10.95h35.72v43.015h7.425v21.118h-11.724v-9.387h-33.923v9.387H260.26zm75.35-9.386h-10.941V21.855h12.505v34.021l24.229-34.021h10.942v54.748h-12.504V42.58L335.61 76.603zm81.682 0V54.547H397.36v22.056h-12.505V21.855h12.505v20.961h19.932V21.855h12.506v54.748h-12.506zm39.004-15.564c3.05 3.206 6.8 4.771 11.178 4.771 5.001 0 8.909-1.565 11.645-4.615 2.735-3.128 4.142-7.117 4.142-11.965 0-4.927-1.485-8.917-4.531-11.967-3.05-3.049-6.802-4.615-11.256-4.615-4.613 0-8.365 1.566-11.334 4.615-2.968 3.05-4.453 7.04-4.453 11.967 0 4.691 1.56 8.603 4.61 11.81zm-9.847-31.988c5.391-5.396 12.426-8.132 21.025-8.132 8.519 0 15.475 2.579 20.868 7.74 5.472 5.163 8.206 12.046 8.206 20.571 0 8.211-2.734 15.015-8.284 20.335-5.471 5.316-12.428 7.977-20.79 7.977-8.519 0-15.475-2.582-20.947-7.743-5.394-5.163-8.13-12.044-8.13-20.569 0-8.056 2.658-14.78 8.052-20.179zm58.701 47.552V21.855h32.438v11.732h-19.931v9.621h17.584v11.73h-17.584v9.933h20.713v11.732h-33.22zm89.107 0V33.587h-19.149v43.016h-12.506V21.855h44.162v54.748h-12.507zm39.005-15.564c3.05 3.206 6.8 4.771 11.176 4.771 5.003 0 8.91-1.565 11.646-4.615 2.736-3.128 4.143-7.117 4.143-11.965 0-4.927-1.485-8.917-4.531-11.967-3.05-3.049-6.802-4.615-11.258-4.615-4.61 0-8.363 1.566-11.332 4.615-2.97 3.05-4.455 7.04-4.455 11.967 0 4.691 1.562 8.603 4.611 11.81zm-9.847-31.988c5.391-5.396 12.426-8.132 21.023-8.132 8.52 0 15.477 2.579 20.87 7.74 5.472 5.163 8.206 12.046 8.206 20.571 0 8.211-2.734 15.015-8.284 20.335-5.471 5.316-12.428 7.977-20.792 7.977-8.517 0-15.473-2.582-20.945-7.743-5.394-5.163-8.128-12.044-8.128-20.569 0-8.056 2.655-14.78 8.05-20.179zm88.011 47.552V33.587H699.39l-1.172 10.324c-3.361 28.78-10.004 34.882-22.979 32.692l.235-12.513c2.11.39 3.44.234 5.315-1.957.937-1.17 1.718-2.815 2.422-4.927 1.485-4.38 2.814-12.747 3.676-24.4l.78-10.951h36.265v54.748h-12.505zm25.014 0V21.855h32.436v11.732h-19.93v9.621h17.585v11.73h-17.585v9.933h20.713v11.732H736.44z"/>
    </g>
</svg>
