<svg xmlns="http://www.w3.org/2000/svg" width="570" height="820" viewBox="0 0 570 820">
    <path fill="#D3B75C" fill-rule="evenodd" d="M384.639 398.775c.024-8.277 6.555-14.893 14.778-14.97 8.36-.08 15.224 6.611 15.3 14.916.077 8.29-6.718 15.123-15.062 15.145-8.412.021-15.04-6.64-15.016-15.09zm52.06 21.879c.106 8.278-6.688 15.152-15.017 15.192-8.419.041-15.068-6.599-15.063-15.042.006-8.286 6.513-14.921 14.731-15.018 8.364-.101 15.24 6.561 15.348 14.868zm-43.963.033c.086 8.287-6.709 15.132-15.049 15.16-8.415.027-15.049-6.627-15.03-15.076.018-8.279 6.542-14.9 14.765-14.985 8.365-.086 15.227 6.59 15.314 14.901zm28.88-58.847c8.308.009 15.193 6.966 15.055 15.212-.137 8.17-6.899 14.817-15.075 14.816-8.395 0-15.014-6.735-14.94-15.201a14.906 14.906 0 0 1 14.96-14.827zm-44.043 0c8.313-.028 15.218 6.874 15.138 15.132-.08 8.304-7.016 15.027-15.363 14.896-8.222-.13-14.698-6.811-14.656-15.122.043-8.265 6.643-14.877 14.881-14.906zm21.978 95.971c-8.246-.029-14.835-6.628-14.877-14.9-.043-8.448 6.63-15.168 15.024-15.128 8.165.038 14.914 6.75 14.995 14.91.08 8.257-6.821 15.147-15.142 15.118zm-58.813-58.672c-.119-8.427 6.473-15.235 14.806-15.293 8.282-.058 15.192 6.814 15.145 15.06-.049 8.128-6.776 14.86-14.91 14.92-8.209.06-14.926-6.499-15.04-14.687zm87.924-.132c-.066-8.298 6.443-15.028 14.664-15.16 8.318-.133 15.298 6.719 15.287 15.009-.01 8.15-6.782 14.93-14.95 14.97-8.245.04-14.936-6.57-15-14.819zm14.79 58.757c-8.188-.07-14.782-6.77-14.766-15.004.017-8.217 6.663-14.899 14.847-14.927 8.131-.027 14.917 6.668 15.028 14.827.114 8.226-6.839 15.175-15.11 15.104zm-58.727-103.032c.06-8.202 6.77-14.856 14.95-14.823 8.13.033 14.898 6.802 14.928 14.931.03 8.26-6.941 15.13-15.22 15-8.186-.129-14.717-6.859-14.658-15.108zm-29.12 103.033c-8.19-.028-14.828-6.704-14.843-14.927-.014-8.227 6.584-14.932 14.77-15.005 8.134-.07 14.93 6.568 15.103 14.75.173 8.21-6.758 15.21-15.03 15.182zm36.954 7.227c-.157 8.192-6.998 14.852-15.13 14.727-8.186-.125-14.748-6.904-14.66-15.145.09-8.177 6.94-14.87 15.079-14.73 8.16.139 14.866 7.044 14.71 15.148zm43.959.081c-.22 8.219-7.074 14.82-15.207 14.646-8.19-.176-14.702-6.978-14.578-15.226.122-8.159 7.033-14.838 15.158-14.647 8.164.192 14.844 7.145 14.627 15.227zm-7.779-110.52c.145-8.015 6.89-14.618 14.89-14.582 8.17.037 14.901 6.88 14.804 15.048-.098 8.22-6.947 14.921-15.088 14.763-8.189-.159-14.754-7.004-14.606-15.229zm-87.926.407c-.037-8.207 6.69-14.998 14.853-14.988 8.173.009 14.913 6.824 14.844 15.009-.067 8.07-6.628 14.685-14.681 14.803-8.132.119-14.978-6.64-15.016-14.824zm-7.022 80.767c-8.142.082-14.947-6.688-14.959-14.88-.012-8.2 6.756-14.98 14.907-14.933 8.177.047 14.896 6.893 14.788 15.064-.106 8.08-6.69 14.67-14.736 14.75zm146.627-14.874c-.021 8.2-6.826 14.956-14.981 14.873-8.179-.083-14.816-6.902-14.718-15.12.096-8.029 6.761-14.652 14.782-14.69 8.165-.04 14.938 6.742 14.917 14.937zm-15.022-29.126c-8.148-.117-14.776-6.96-14.651-15.122.123-7.995 6.812-14.603 14.794-14.613 8.183-.01 14.84 6.71 14.797 14.938-.043 8.232-6.79 14.914-14.94 14.797zm-131.881-29.734c8.153-.115 14.896 6.566 14.936 14.8.039 8.227-6.624 14.95-14.804 14.935-7.978-.014-14.668-6.63-14.788-14.62-.123-8.168 6.5-15 14.656-15.115zm66.058 139.597c-7.995-.03-14.67-6.677-14.746-14.683-.076-8.16 6.7-14.998 14.828-14.964 8.077.036 14.606 6.568 14.674 14.68.07 8.272-6.563 14.997-14.756 14.967zm22.098-183.514c8.086.062 14.589 6.598 14.64 14.714.053 8.266-6.608 14.989-14.791 14.932-8.003-.056-14.655-6.71-14.712-14.718-.058-8.158 6.744-14.99 14.863-14.928zm-43.874 0c8.103.13 14.547 6.685 14.555 14.803.008 8.257-6.723 14.969-14.883 14.843-8.026-.125-14.614-6.793-14.623-14.806-.011-8.157 6.854-14.971 14.95-14.84zm-51.485 80.661c.038 8.155-6.3 14.664-14.427 14.815-8.092.152-14.973-6.668-14.924-14.789.05-8.013 6.696-14.614 14.717-14.62 8.102-.005 14.595 6.471 14.634 14.594zm29.279 102.737c-8.01-.042-14.647-6.687-14.666-14.68-.02-8.137 6.859-14.902 14.97-14.724 8.144.18 14.438 6.678 14.378 14.847-.061 8.107-6.607 14.597-14.682 14.557zm146.57-102.695c.021 8.149-6.347 14.653-14.468 14.774-8.097.122-14.96-6.717-14.882-14.832.077-8.017 6.74-14.601 14.756-14.578 8.11.024 14.571 6.503 14.593 14.636zM333.72 479.496c-7.987.04-14.687-6.566-14.776-14.571-.09-8.13 6.729-14.94 14.86-14.84 8.126.1 14.508 6.595 14.489 14.742-.018 8.129-6.475 14.628-14.573 14.669zm109.923 21.978c-7.983.054-14.692-6.546-14.792-14.553-.103-8.129 6.706-14.942 14.843-14.854 8.12.088 14.516 6.58 14.505 14.722-.011 8.13-6.455 14.63-14.556 14.685zm36.537-36.709c.006 8.14-6.4 14.642-14.511 14.731-8.111.09-14.943-6.758-14.838-14.874.103-8.022 6.79-14.59 14.798-14.537 8.116.056 14.545 6.541 14.55 14.68zm21.945-21.787c-.067 8.116-6.658 14.572-14.761 14.458-8.066-.113-14.654-6.83-14.525-14.809.13-8.06 6.816-14.553 14.875-14.444 8.16.111 14.479 6.6 14.411 14.795zm-175.847-.178c0 8.151-6.459 14.633-14.586 14.639-8.045.004-14.705-6.623-14.707-14.635 0-8.022 6.636-14.621 14.703-14.62 8.15.002 14.59 6.455 14.59 14.616zm58.677-131.858c-.02-8.056 6.605-14.614 14.726-14.577 8.19.036 14.558 6.5 14.495 14.708-.063 8.14-6.645 14.542-14.809 14.402-7.964-.135-14.393-6.619-14.412-14.533zm-51.137 7.456c8.052.075 14.373 6.428 14.39 14.461.015 8.18-6.47 14.604-14.68 14.541-7.987-.063-14.44-6.514-14.468-14.465-.028-8.085 6.6-14.613 14.758-14.537zm102.31 190.692c-.14 7.97-6.634 14.229-14.691 14.159-7.987-.07-14.437-6.533-14.453-14.481-.015-8.087 6.615-14.605 14.775-14.521 8.19.083 14.515 6.614 14.37 14.843zm-43.96-.1c-.099 7.989-6.538 14.28-14.594 14.26-7.996-.023-14.456-6.407-14.549-14.382-.093-8.067 6.518-14.657 14.672-14.621 8.204.036 14.573 6.524 14.471 14.743zm73.4-190.59c8.205.01 14.603 6.48 14.524 14.687-.077 8-6.486 14.31-14.54 14.313-8.146.005-14.754-6.645-14.602-14.693a14.531 14.531 0 0 1 14.617-14.308zm22.042 21.98c8.052.039 14.417 6.37 14.465 14.385.046 8.189-6.4 14.642-14.604 14.617-7.99-.025-14.455-6.422-14.54-14.39-.089-8.07 6.525-14.652 14.68-14.613zm-190.528 14.543c-.034-8.083 6.59-14.615 14.748-14.543 8.193.072 14.527 6.593 14.394 14.818-.13 7.97-6.613 14.238-14.669 14.18-7.99-.058-14.44-6.5-14.473-14.455zm131.945-43.876c-.1-8.06 6.46-14.607 14.607-14.584 8.16.023 14.552 6.52 14.451 14.688-.099 7.953-6.534 14.24-14.554 14.22-7.993-.02-14.404-6.352-14.504-14.324zm-87.927-.19c.048-7.958 6.452-14.345 14.436-14.395 8.179-.05 14.652 6.372 14.627 14.512-.026 7.984-6.375 14.34-14.38 14.397-8.155.057-14.73-6.443-14.683-14.514zm168.378 124.374c-8.023-.018-14.41-6.375-14.436-14.37-.026-7.98 6.356-14.405 14.357-14.452 8.194-.049 14.67 6.405 14.604 14.554-.065 7.966-6.5 14.287-14.525 14.268zM289.415 406.41c8.205-.12 14.763 6.264 14.777 14.382.015 7.99-6.347 14.39-14.352 14.44-8.054.052-14.458-6.176-14.602-14.197-.142-7.962 6.203-14.51 14.177-14.625zm220.196-43.93c8.005.037 14.405 6.48 14.366 14.458-.04 7.97-6.49 14.317-14.524 14.296-8.038-.022-14.378-6.416-14.33-14.453.047-8.04 6.427-14.34 14.488-14.301zm-234.295 14.57c-.108-8.032 6.207-14.505 14.215-14.57 8.051-.063 14.537 6.226 14.634 14.19a14.361 14.361 0 0 1-14.254 14.565c-8.088.082-14.488-6.137-14.595-14.184zm50.803 109.598c.066 7.937-6.336 14.411-14.296 14.46-8.059.047-14.405-6.194-14.464-14.226-.057-8.04 6.223-14.426 14.231-14.466 7.997-.039 14.464 6.294 14.53 14.232zm175.85.14c-.012 7.937-6.45 14.322-14.437 14.318-8.033-.004-14.337-6.325-14.327-14.363.01-8.03 6.34-14.34 14.372-14.327 7.973.013 14.404 6.435 14.392 14.372zM377.667 274.612c7.976.014 14.432 6.499 14.367 14.432-.065 7.803-6.403 14.135-14.22 14.204-8.071.07-14.425-6.189-14.46-14.24-.031-8.06 6.282-14.411 14.313-14.396zm-44.151 248.445c-8.003-.058-14.23-6.485-14.118-14.574.108-7.873 6.393-14.064 14.278-14.06 7.98.002 14.444 6.47 14.397 14.402-.048 7.947-6.536 14.291-14.557 14.232zm66.09 21.982c-8.034-.001-14.317-6.354-14.269-14.427.048-7.89 6.279-14.153 14.134-14.208 8.002-.055 14.5 6.313 14.543 14.254.04 7.94-6.415 14.383-14.408 14.38zm80.352-36.204c-.054 7.948-6.543 14.284-14.565 14.223-8-.062-14.223-6.494-14.109-14.584.112-7.872 6.402-14.058 14.287-14.051 7.98.007 14.441 6.479 14.387 14.412zm-58.404-234.223c7.986-.015 14.463 6.423 14.442 14.356-.02 7.945-6.497 14.32-14.51 14.28-8.017-.041-14.256-6.441-14.164-14.531.088-7.877 6.356-14.09 14.232-14.105zM289.6 479.072c-7.866-.043-14.104-6.326-14.13-14.229-.023-7.915 6.168-14.261 14.009-14.359 7.99-.099 14.558 6.306 14.599 14.239.04 7.925-6.484 14.393-14.478 14.35zm219.583 0c-7.822-.135-13.964-6.521-13.9-14.456.064-7.88 6.36-14.131 14.234-14.133 7.965-.001 14.48 6.559 14.37 14.467-.111 7.955-6.677 14.261-14.704 14.122zm-65.538 65.902c-7.812.038-14.185-6.269-14.245-14.095-.062-7.867 6.147-14.283 13.94-14.407 7.897-.126 14.556 6.42 14.535 14.285-.023 7.742-6.465 14.18-14.23 14.217zM253.553 398.801c.015-7.837 6.335-14.193 14.133-14.216 7.752-.02 14.224 6.35 14.337 14.112.114 7.844-6.503 14.45-14.415 14.39-7.795-.058-14.071-6.436-14.055-14.286zm292.244-.057c.075 7.853-6.557 14.429-14.464 14.344-7.796-.085-14.042-6.477-14.008-14.334.035-7.83 6.385-14.173 14.181-14.168 7.754.005 14.217 6.408 14.291 14.158zM487.513 296.66c7.753-.011 14.222 6.372 14.32 14.13.1 7.847-6.524 14.442-14.433 14.372-7.796-.068-14.06-6.451-14.037-14.304.022-7.834 6.353-14.186 14.15-14.198zm-189.998 14.394c-.057-7.865 6.158-14.275 13.953-14.394 7.893-.119 14.55 6.437 14.519 14.297-.032 7.743-6.477 14.174-14.24 14.205-7.805.032-14.176-6.285-14.232-14.108zm58.232 233.92c-7.812.05-14.2-6.248-14.27-14.07-.07-7.87 6.124-14.295 13.916-14.433 7.896-.14 14.562 6.39 14.558 14.261-.003 7.732-6.444 14.191-14.204 14.241zM275.56 332.595c.123-7.79 6.685-14.11 14.458-13.925 7.77.187 14.153 6.845 13.926 14.53-.232 7.82-6.775 14.09-14.53 13.918-7.801-.17-13.978-6.647-13.854-14.523zm234.247-13.924c7.765.173 14.159 6.823 13.948 14.507-.216 7.818-6.752 14.099-14.51 13.94-7.8-.158-13.99-6.627-13.875-14.502.115-7.793 6.663-14.118 14.437-13.945zm-176.069-43.934c7.773.044 14.22 6.602 14.106 14.352-.113 7.806-6.672 14.195-14.415 14.039-7.67-.155-13.869-6.48-13.88-14.164-.015-7.834 6.405-14.272 14.19-14.227zm211.937 167.924c.106 7.752-6.346 14.303-14.121 14.335-7.79.034-14.195-6.4-14.178-14.234.019-7.827 6.488-14.248 14.262-14.158 7.639.09 13.932 6.392 14.037 14.057zm-80.068-167.924c7.77.032 14.224 6.582 14.124 14.335-.099 7.661-6.395 13.97-14.031 14.058-7.777.088-14.245-6.326-14.267-14.149-.02-7.837 6.387-14.276 14.173-14.244zM267.568 456.997c-7.663-.102-13.916-6.407-13.965-14.081-.049-7.845 6.313-14.3 14.107-14.311 7.764-.01 14.244 6.503 14.193 14.27-.05 7.787-6.584 14.224-14.335 14.122zm117.948-190.121c.039-7.775 6.553-14.203 14.269-14.08 7.65.122 13.855 6.388 13.92 14.055.067 7.78-6.322 14.252-14.078 14.262-7.752.01-14.148-6.444-14.11-14.237zm131.888 88.235c-.11-7.807 6.175-14.288 13.955-14.39 7.738-.1 14.202 6.305 14.234 14.108.033 7.783-6.387 14.235-14.134 14.208-7.61-.029-13.947-6.307-14.055-13.926zm-263.748-.215c-.008-7.773 6.521-14.257 14.234-14.133 7.677.123 13.852 6.404 13.861 14.1.01 7.832-6.447 14.261-14.192 14.134-7.643-.125-13.894-6.465-13.903-14.1zm137.938 197.767c.02 7.725-6.136 14.01-13.826 14.116-7.728.106-14.257-6.436-14.178-14.206.077-7.63 6.477-13.957 14.085-13.925 7.68.032 13.898 6.293 13.919 14.015zm37.942-285.921c.12-7.636 6.562-13.937 14.158-13.847 7.698.09 13.855 6.359 13.84 14.089-.016 7.719-6.226 13.989-13.899 14.036-7.738.046-14.22-6.52-14.099-14.278zm6.016 286.137c-.078 7.704-6.396 13.96-14.038 13.898-7.626-.061-13.955-6.431-13.963-14.053-.008-7.772 6.596-14.27 14.3-14.073 7.73.198 13.779 6.48 13.7 14.228zM341.61 266.997c-.024-7.772 6.556-14.274 14.271-14.1 7.721.175 13.791 6.454 13.725 14.199-.065 7.708-6.358 13.964-14.007 13.923-7.62-.04-13.965-6.397-13.989-14.022zm-52.028 255.757c-7.655-.092-13.962-6.51-13.886-14.13.076-7.644 6.515-13.965 14.133-13.873 7.745.093 13.836 6.33 13.784 14.12-.05 7.733-6.359 13.975-14.031 13.883zm219.818 0c-7.654-.086-13.965-6.501-13.894-14.122.073-7.645 6.507-13.967 14.126-13.881 7.745.088 13.84 6.325 13.792 14.112-.047 7.734-6.35 13.978-14.024 13.89zm-183.805 7.888c.032 7.77-6.102 14.021-13.822 14.09-7.61.068-14.04-6.283-14.092-13.919-.054-7.636 6.258-14.018 13.92-14.078 7.702-.062 13.96 6.158 13.994 13.907zm175.846.216c-.054 7.731-6.366 13.97-14.037 13.872-7.657-.097-13.956-6.514-13.875-14.134.081-7.645 6.52-13.96 14.138-13.863 7.744.098 13.83 6.338 13.774 14.125zm-233.655-30.16c-7.65.046-14.062-6.331-14.039-13.966.022-7.515 6.174-13.731 13.737-13.882 7.751-.153 14.05 5.992 14.106 13.764.056 7.818-6.037 14.036-13.804 14.084zm277.576-13.788c-.056 7.759-6.384 13.946-14.1 13.784-7.558-.158-13.716-6.382-13.742-13.89-.026-7.647 6.357-13.996 14.032-13.957 7.79.04 13.867 6.228 13.81 14.063zM231.8 420.776c.035-7.51 6.168-13.674 13.72-13.792 7.789-.12 14.012 5.942 14.066 13.702.055 7.8-6.015 13.955-13.793 13.988-7.675.033-14.028-6.278-13.993-13.898zm335.521-.009c.022 7.787-6.099 13.921-13.875 13.906-7.679-.013-14.006-6.373-13.909-13.978.096-7.526 6.25-13.64 13.8-13.71 7.792-.075 13.963 6.007 13.984 13.782zM479.364 553.14c-.174 7.572-6.384 13.475-14.05 13.354-7.565-.119-13.704-6.346-13.652-13.85.053-7.68 6.41-13.84 14.148-13.713 7.79.13 13.735 6.36 13.554 14.21zM231.858 376.63a13.857 13.857 0 0 1 13.941-13.55c7.808.03 13.852 6.188 13.756 14.013-.093 7.607-6.186 13.57-13.852 13.555-7.71-.016-14.028-6.411-13.846-14.018zm335.43.743c-.207 7.558-6.462 13.434-14.13 13.272-7.556-.157-13.682-6.448-13.569-13.93.117-7.705 6.472-13.793 14.226-13.628 7.782.166 13.688 6.43 13.473 14.286zM333.671 566.495c-7.714.006-14.038-6.357-13.891-13.974.147-7.568 6.318-13.601 13.9-13.592 7.812.009 13.877 6.147 13.8 13.967-.076 7.614-6.147 13.594-13.81 13.599zM509.836 275.21c7.626.13 13.559 6.274 13.466 13.939-.094 7.614-6.217 13.568-13.898 13.513-7.599-.054-13.742-6.216-13.715-13.762.026-7.701 6.354-13.825 14.147-13.69zM245.63 478.468c-7.626-.046-13.728-6.226-13.637-13.814.09-7.63 6.226-13.616 13.896-13.556 7.655.058 13.674 6.167 13.613 13.815-.06 7.628-6.171 13.6-13.872 13.555zm321.607-13.658c-.012 7.64-6.083 13.66-13.77 13.657-7.637-.003-13.763-6.113-13.744-13.71.02-7.608 6.15-13.677 13.797-13.659 7.677.02 13.73 6.068 13.717 13.712zM253.976 310.744c.12-7.64 6.258-13.591 13.937-13.514 7.649.077 13.65 6.205 13.57 13.859-.08 7.624-6.207 13.574-13.914 13.51-7.62-.062-13.713-6.273-13.593-13.855zm263.767.13c.03-7.61 6.162-13.667 13.811-13.643 7.673.024 13.721 6.082 13.702 13.727-.019 7.637-6.095 13.65-13.784 13.643-7.637-.01-13.759-6.13-13.729-13.726zm-140.236-79.586c7.7-.046 13.814 5.923 13.88 13.547.065 7.647-5.947 13.756-13.604 13.82-7.67.064-13.805-5.915-13.9-13.545-.093-7.591 6.004-13.776 13.624-13.822zm44.168-.001c7.666.035 13.706 6.11 13.675 13.753-.032 7.63-6.12 13.632-13.81 13.614-7.631-.018-13.744-6.154-13.697-13.75.047-7.614 6.179-13.651 13.832-13.617zm-145.726 57.645c.004-7.604 6.134-13.692 13.775-13.683 7.681.01 13.742 6.048 13.741 13.69 0 7.642-6.06 13.674-13.747 13.681-7.64.005-13.772-6.089-13.769-13.688zm123.795 299.403c-7.677.056-13.732-5.883-13.799-13.53-.066-7.63 5.947-13.733 13.567-13.765 7.652-.033 13.771 5.954 13.83 13.533.06 7.592-5.984 13.707-13.598 13.762zm87.995-335.03a13.63 13.63 0 0 1 13.526 13.836c-.093 7.58-6.228 13.518-13.9 13.457-7.616-.06-13.602-6.197-13.493-13.832.108-7.644 6.187-13.544 13.867-13.462zm-189.721 13.681c-.018-7.634 6.017-13.68 13.654-13.682 7.636-.002 13.73 6.036 13.747 13.62.016 7.586-6.052 13.653-13.682 13.675-7.657.023-13.7-5.974-13.72-13.613zM443.486 588.27c-7.513-.034-13.42-5.962-13.456-13.5-.034-7.552 5.818-13.569 13.295-13.67 7.635-.103 13.87 5.948 13.92 13.51.05 7.558-6.13 13.693-13.759 13.66zM245.972 319.307c7.414.09 13.462 6.215 13.444 13.62-.017 7.564-6.223 13.627-13.87 13.55-7.491-.077-13.358-6.06-13.346-13.61.012-7.679 6.079-13.652 13.772-13.56zM355.604 588.27c-7.517-.018-13.445-5.929-13.496-13.458-.053-7.555 5.781-13.594 13.25-13.712 7.64-.12 13.887 5.903 13.962 13.467.077 7.557-6.094 13.721-13.716 13.703zm211.547-255.377c.004 7.562-6.194 13.648-13.835 13.585-7.496-.063-13.38-6.03-13.383-13.575-.002-7.54 5.884-13.525 13.373-13.595 7.623-.072 13.842 6.03 13.845 13.585zM210.298 398.85c-.005-7.504 5.92-13.508 13.377-13.554 7.519-.046 13.825 6.27 13.696 13.72-.128 7.383-6.282 13.395-13.678 13.36-7.466-.034-13.391-6.017-13.395-13.526zm378.773.023c-.022 7.502-6.35 13.647-13.905 13.503-7.446-.142-13.253-6.205-13.17-13.75a13.44 13.44 0 0 1 13.6-13.33c7.368.065 13.498 6.243 13.475 13.577zm-255.25-167.444c7.368.073 13.49 6.26 13.455 13.594-.035 7.505-6.364 13.636-13.919 13.485-7.44-.149-13.243-6.223-13.153-13.766a13.442 13.442 0 0 1 13.616-13.313zm131.587.001c7.393-.074 13.563 5.894 13.75 13.294.186 7.441-6.088 13.792-13.616 13.784-7.47-.007-13.426-5.97-13.452-13.467-.028-7.513 5.868-13.538 13.318-13.61zM267.85 544.24c-7.452.063-13.515-5.927-13.563-13.398-.045-7.503 5.89-13.572 13.335-13.632 7.374-.061 13.574 6.022 13.662 13.404.087 7.329-6.06 13.563-13.434 13.626zm277.206-13.389c-.094 7.384-6.287 13.45-13.671 13.388-7.45-.064-13.375-6.127-13.323-13.635.05-7.465 6.132-13.469 13.57-13.396 7.372.072 13.517 6.318 13.424 13.643zm43.963-88.142c.073 7.33-6.08 13.554-13.452 13.606-7.452.054-13.504-5.94-13.544-13.416-.04-7.5 5.907-13.563 13.353-13.614 7.372-.05 13.57 6.047 13.643 13.424zm-378.693.268c-.07-7.514 5.828-13.598 13.274-13.69 7.376-.096 13.584 5.943 13.72 13.343.132 7.316-6 13.59-13.373 13.684-7.453.096-13.55-5.875-13.62-13.337zm79.43 123.216c-7.426.026-13.48-6.062-13.46-13.534.022-7.454 6.153-13.53 13.562-13.44 7.252.09 13.246 6.087 13.347 13.358.103 7.344-6.068 13.591-13.45 13.616zm219.741 0c-7.432-.017-13.44-6.122-13.39-13.604.052-7.446 6.228-13.503 13.63-13.368 7.252.132 13.234 6.178 13.282 13.425.048 7.36-6.144 13.563-13.522 13.547zM210.382 354.835c.02-7.4 6.176-13.504 13.522-13.41 7.244.094 13.184 6.05 13.282 13.316.098 7.367-5.991 13.556-13.37 13.589-7.368.033-13.455-6.081-13.434-13.495zm35.572 167.361c-7.347.137-13.539-5.94-13.59-13.337-.053-7.419 5.991-13.553 13.364-13.566 7.367-.013 13.49 6.146 13.441 13.522-.047 7.25-5.969 13.246-13.215 13.381zM566.9 508.898c-.106 7.407-6.32 13.457-13.659 13.298-7.252-.157-13.13-6.158-13.144-13.419-.014-7.41 6.087-13.528 13.45-13.484 7.379.043 13.46 6.24 13.353 13.605zm21.985-154.087c.049 7.374-6.075 13.532-13.442 13.52-7.376-.016-13.416-6.147-13.364-13.567.053-7.394 6.255-13.48 13.593-13.338 7.253.141 13.165 6.131 13.213 13.385zM386.259 223.088c-.048-7.402 6.098-13.576 13.444-13.51 7.276.069 13.192 6.017 13.249 13.322.059 7.428-6.046 13.57-13.425 13.507-7.236-.06-13.222-6.071-13.268-13.32zm4.636 373.656c-.038 7.336-5.961 13.28-13.244 13.292-7.358.013-13.481-6.238-13.341-13.621.136-7.233 6.306-13.228 13.487-13.106 7.323.124 13.135 6.087 13.098 13.435zm43.955-.353c.14 7.501-5.823 13.642-13.25 13.645-7.217.002-13.276-6.029-13.33-13.268-.052-7.244 5.87-13.313 13.137-13.457 7.246-.144 13.305 5.752 13.443 13.08zM324.952 574.83c-.068 7.333-6.038 13.266-13.31 13.229-7.229-.036-13.256-6.083-13.28-13.323-.024-7.245 5.936-13.302 13.191-13.407 7.402-.105 13.47 6.008 13.4 13.5zm175.849-.005c-.066 7.333-6.031 13.267-13.305 13.234-7.228-.032-13.258-6.077-13.286-13.318-.027-7.382 6.237-13.582 13.552-13.412 7.338.171 13.105 6.142 13.039 13.496zm-70.523-351.96c.077-7.25 6.217-13.274 13.427-13.175 7.354.102 13.131 6.038 13.073 13.435-.057 7.358-6.048 13.281-13.333 13.181-7.255-.099-13.243-6.213-13.167-13.441zm-87.924-.045c.105-7.249 6.272-13.26 13.471-13.128 7.37.135 13.105 6.068 13.029 13.478-.077 7.352-6.102 13.27-13.377 13.136-7.268-.134-13.225-6.256-13.123-13.486zm189.038 30.914c7.358-.075 13.259 5.8 13.266 13.206.005 7.398-5.895 13.31-13.231 13.256-7.28-.054-13.295-6.169-13.187-13.404.106-7.142 5.992-12.985 13.152-13.058zm-307.878 246.27c-7.164-.18-12.996-6.102-13.011-13.214-.015-7.261 6.057-13.294 13.332-13.246 7.38.047 13.148 5.947 13.084 13.385-.063 7.369-6.102 13.26-13.405 13.076zm365.104-13.266c.012 7.4-5.878 13.313-13.217 13.27-7.278-.045-13.3-6.155-13.2-13.394.1-7.14 5.98-12.987 13.141-13.069 7.355-.084 13.265 5.79 13.276 13.193zM254.467 266.904c.032-7.125 5.866-13.018 13.037-13.169 7.335-.153 13.325 5.707 13.376 13.088.05 7.425-5.75 13.339-13.111 13.368-7.261.027-13.336-6.04-13.302-13.287zm299.1 8.896c7.388.051 13.101 5.89 13.03 13.313-.068 7.351-6.043 13.144-13.382 12.978-7.142-.161-12.964-6.064-12.969-13.147-.005-7.24 6.03-13.196 13.32-13.144zm-307.665-.001c7.39.095 13.058 5.949 12.96 13.385a13.04 13.04 0 0 1-13.452 12.907c-7.145-.205-12.944-6.146-12.898-13.217.046-7.25 6.107-13.168 13.39-13.075zm30.625-31.012c.145-7.172 5.998-12.888 13.19-12.88 7.41.007 13.156 5.832 13.08 13.255-.077 7.215-5.837 12.887-13.09 12.89-7.318.003-13.325-6.044-13.18-13.265zM509.6 231.906c7.257.04 12.968 5.729 13.01 12.962.043 7.411-5.754 13.217-13.163 13.183-7.174-.033-13.035-5.83-13.114-12.971-.082-7.244 5.932-13.215 13.267-13.174zm87.83 175.849c7.412-.003 13.17 5.812 13.103 13.233-.067 7.217-5.815 12.898-13.068 12.913-7.315.015-13.33-6.017-13.202-13.243.127-7.167 5.978-12.9 13.167-12.903zm-395.73 26.14c-7.177-.04-13.028-5.84-13.097-12.979-.07-7.25 5.94-13.209 13.274-13.162 7.397.048 13.106 5.91 12.995 13.34-.109 7.197-5.917 12.842-13.172 12.801zM478.617 596.82c-.063 7.222-5.84 12.893-13.11 12.868-7.217-.024-13.05-5.817-13.075-12.982-.023-7.306 5.971-13.154 13.372-13.043 7.243.106 12.875 5.891 12.813 13.157zM188.662 376.771c.068-7.188 5.894-12.923 13.128-12.923 7.267 0 13.015 5.688 13.055 12.92.04 7.396-5.813 13.192-13.234 13.107-7.208-.083-13.017-5.962-12.949-13.104zM597.34 363.85c7.28-.047 13.078 5.594 13.162 12.81.088 7.411-5.71 13.25-13.123 13.216-7.215-.03-13.048-5.835-13.06-12.996-.013-7.163 5.802-12.983 13.02-13.03zm-21.726-65.944c7.245.063 12.931 5.817 12.908 13.064-.023 7.373-5.95 13.114-13.38 12.958-7.197-.149-12.97-6.127-12.793-13.247.18-7.223 6.011-12.839 13.265-12.775zM333.656 609.687c-7.222-.009-13.058-5.773-13.108-12.947-.05-7.3 5.936-13.173 13.335-13.08 7.243.09 12.896 5.866 12.847 13.124-.049 7.226-5.808 12.911-13.074 12.903zM210.713 310.862c.04-7.222 5.845-12.935 13.116-12.91 7.258.024 12.993 5.783 12.969 13.019-.025 7.223-5.807 12.93-13.077 12.911-7.252-.02-13.048-5.822-13.008-13.02zm88.02-87.883c.008-7.27 5.77-12.962 13.072-12.912 7.24.05 12.983 5.897 12.885 13.12-.099 7.195-5.974 12.828-13.276 12.723-7.094-.102-12.69-5.807-12.682-12.93zm188.329-12.91c7.323-.185 13.276 5.35 13.476 12.526.2 7.233-5.47 13.186-12.682 13.316-7.346.132-13.144-5.419-13.27-12.705-.123-7.116 5.425-12.959 12.476-13.137zM201.518 477.668c-7.226-.106-12.797-5.964-12.606-13.254.185-7.111 5.835-12.56 12.983-12.521 7.192.039 12.964 5.908 12.863 13.08-.101 7.16-5.986 12.802-13.24 12.695zm408.9-12.734c-.082 7.165-5.95 12.826-13.203 12.733-7.235-.09-12.817-5.925-12.647-13.215.166-7.11 5.81-12.583 12.948-12.56 7.2.024 12.982 5.871 12.901 13.042zM377.775 188.15c7.037.06 12.77 5.794 12.802 12.808.031 7.151-5.834 12.947-13.06 12.905-7.1-.042-12.684-5.666-12.707-12.799-.023-7.283 5.692-12.976 12.965-12.914zm43.9 0c7.047.034 12.794 5.73 12.862 12.746.07 7.147-5.782 12.985-12.997 12.967-7.256-.019-12.872-5.784-12.761-13.103.106-7.102 5.776-12.645 12.897-12.61zM399.21 631.474c-7.049-.17-12.49-5.96-12.361-13.15.126-7.079 5.89-12.618 13.015-12.506 7.015.108 12.752 5.991 12.659 12.977-.097 7.164-6.071 12.854-13.313 12.68zm-153.576-65.942c-7.096-.048-12.673-5.714-12.658-12.859.013-7.126 5.637-12.78 12.73-12.8 7.048-.019 12.852 5.668 12.949 12.688.099 7.135-5.808 13.019-13.021 12.971zm307.788 0c-7.104-.026-12.705-5.669-12.712-12.807-.008-7.132 5.593-12.809 12.678-12.851 7.197-.043 13.112 5.871 13.002 13-.109 7.026-5.905 12.683-12.968 12.658zm44.219-245.469c7.017.085 12.768 5.933 12.709 12.925-.06 7.16-6.022 12.884-13.257 12.732-7.056-.148-12.523-5.915-12.416-13.096.107-7.084 5.848-12.647 12.964-12.56zm-66.073 267.431c-7.09.03-12.78-5.636-12.802-12.751-.022-7.126 5.622-12.847 12.697-12.868 7.01-.021 12.876 5.774 12.917 12.762.038 6.97-5.796 12.826-12.812 12.857zm-263.686 0a12.712 12.712 0 0 1-12.888-12.666c-.055-7.134 5.546-12.888 12.61-12.952 7.015-.065 12.896 5.67 13 12.675.102 6.953-5.715 12.872-12.722 12.944zM201.85 345.704c-7.097.03-12.78-5.632-12.801-12.753-.02-7.127 5.624-12.847 12.699-12.866 7.014-.021 12.877 5.774 12.916 12.764.039 6.976-5.793 12.826-12.814 12.855zm21.905 197.802c-6.913-.006-12.593-5.61-12.692-12.525-.104-7.125 5.507-12.953 12.554-13.037 6.997-.084 12.922 5.722 12.976 12.716.053 6.97-5.825 12.853-12.838 12.846zm351.765 0c-7.03.03-12.743-5.668-12.763-12.731-.018-7.07 5.654-12.814 12.673-12.832 6.966-.02 12.828 5.789 12.863 12.742.035 6.938-5.797 12.793-12.773 12.822zM355.822 631.43c-7.06.092-12.848-5.622-12.875-12.71-.028-7.108 5.688-12.875 12.742-12.853 6.996.02 12.875 5.952 12.787 12.902-.086 6.868-5.786 12.571-12.654 12.661zm87.76 0c-7.06.003-12.75-5.76-12.711-12.875.04-7.079 5.863-12.803 12.906-12.687 6.863.112 12.56 5.843 12.625 12.7.066 6.965-5.808 12.86-12.82 12.862zm22.252-443.168c6.843.17 12.481 5.929 12.485 12.746.005 6.963-5.877 12.803-12.841 12.752-7.003-.05-12.673-5.867-12.596-12.926.076-7.016 5.981-12.748 12.952-12.572zm-132.092-.004c6.965.044 12.801 5.984 12.684 12.91-.116 6.862-5.79 12.52-12.63 12.594-6.992.073-12.79-5.689-12.802-12.724-.012-7.047 5.752-12.825 12.748-12.78zM509.687 609.42c-6.988.1-12.813-5.65-12.845-12.68-.03-7.05 5.709-12.841 12.707-12.823 6.964.018 12.813 5.93 12.728 12.868-.083 6.853-5.746 12.536-12.59 12.635zm-219.939-.033c-6.99.026-12.757-5.818-12.688-12.861.067-6.876 5.758-12.55 12.615-12.573 6.983-.022 12.82 5.88 12.717 12.865-.1 6.89-5.789 12.543-12.644 12.569zm329.86-223.26c6.87.126 12.494 5.848 12.496 12.713.001 7-5.896 12.83-12.858 12.713-6.867-.117-12.468-5.826-12.47-12.71 0-7.031 5.864-12.842 12.832-12.715zm-439.605 25.386c-6.812.14-12.672-5.519-12.816-12.378-.15-7.034 5.595-12.947 12.594-12.964 6.882-.015 12.546 5.627 12.61 12.561.063 6.927-5.472 12.638-12.388 12.781zm21.886 109.904c-6.972.075-12.807-5.814-12.72-12.838.084-6.863 5.862-12.556 12.69-12.5 6.895.055 12.505 5.727 12.512 12.653.009 6.928-5.585 12.612-12.482 12.685zm395.798-.003c-6.802.17-12.688-5.474-12.857-12.33-.174-7.03 5.545-12.956 12.548-13.004 6.87-.048 12.56 5.58 12.647 12.513.086 6.928-5.417 12.647-12.338 12.82zM179.94 455.426c-6.81.107-12.646-5.616-12.725-12.48-.078-6.863 5.568-12.65 12.443-12.756 6.874-.104 12.588 5.529 12.656 12.474.068 6.969-5.445 12.656-12.374 12.762zm439.324-25.235c6.872-.117 12.597 5.512 12.672 12.458.075 6.974-5.424 12.658-12.36 12.777-6.808.118-12.654-5.6-12.74-12.464-.087-6.87 5.542-12.655 12.428-12.77zm-65.979-197.759c6.914-.139 12.608 5.462 12.651 12.443.043 6.994-5.523 12.652-12.45 12.66-6.857.004-12.615-5.789-12.564-12.642.05-6.74 5.592-12.325 12.363-12.46zm-307.464-.004c6.962.061 12.451 5.7 12.378 12.718-.072 6.951-5.855 12.581-12.719 12.385-6.764-.195-12.285-5.827-12.294-12.543-.009-6.87 5.776-12.619 12.635-12.56zm-22.253 21.988c6.914-.14 12.606 5.458 12.649 12.438.042 6.993-5.516 12.646-12.445 12.655-6.858.009-12.612-5.777-12.562-12.633.048-6.738 5.588-12.323 12.358-12.46zm351.912-.002c6.95.017 12.481 5.646 12.434 12.653-.048 6.962-5.776 12.59-12.659 12.44-6.757-.15-12.303-5.754-12.347-12.48-.045-6.872 5.693-12.63 12.572-12.613zm43.751 112.942c-6.779-.128-12.336-5.754-12.33-12.482.005-6.892 5.805-12.573 12.71-12.449 6.885.123 12.225 5.57 12.222 12.463-.004 7.01-5.654 12.6-12.601 12.468zm-439.565-24.931c6.994-.083 12.563 5.47 12.544 12.505-.02 6.858-5.429 12.335-12.275 12.43-6.873.092-12.689-5.665-12.655-12.528.033-6.757 5.595-12.329 12.386-12.407zm351.952-131.887c6.88.079 12.263 5.51 12.285 12.394.025 7.019-5.563 12.609-12.526 12.53-6.765-.074-12.354-5.668-12.395-12.406-.044-6.882 5.727-12.598 12.636-12.518zM311.35 631.12c-6.791-.222-12.28-5.912-12.175-12.623.108-6.91 5.957-12.502 12.853-12.288 7.029.218 12.27 5.852 12.059 12.966-.201 6.773-5.951 12.166-12.737 11.945zm-43.442-420.58c6.88.118 12.227 5.563 12.227 12.45 0 7.013-5.634 12.593-12.589 12.473-6.775-.117-12.334-5.735-12.336-12.467 0-6.89 5.792-12.572 12.698-12.455zM487.62 631.126c-6.88.06-12.667-5.714-12.6-12.571.068-6.762 5.648-12.308 12.432-12.355 6.997-.048 12.53 5.513 12.49 12.553-.04 6.852-5.476 12.312-12.322 12.373zM201.758 276.632c6.892-.01 12.314 5.329 12.367 12.178.052 6.882-5.252 12.322-12.118 12.433-6.97.113-12.688-5.48-12.643-12.365.044-6.77 5.574-12.233 12.394-12.246zm395.778 0c6.881.041 12.248 5.43 12.25 12.3.002 6.863-5.367 12.265-12.239 12.317-6.962.052-12.666-5.636-12.528-12.49.138-6.8 5.678-12.168 12.517-12.127zM399.537 166.661c6.87-.034 12.345 5.29 12.45 12.108.11 7.04-5.29 12.594-12.293 12.645-6.914.05-12.637-5.64-12.56-12.486.077-6.752 5.618-12.233 12.403-12.267zm219.755 332.355c-6.82-.057-12.318-5.636-12.213-12.394.107-6.815 5.637-12.174 12.496-12.109 6.865.066 12.226 5.528 12.161 12.394-.064 6.832-5.546 12.166-12.444 12.11zM421.618 652.885c-6.843.01-12.366-5.452-12.374-12.24-.008-6.781 5.512-12.264 12.347-12.264 6.89.002 12.311 5.387 12.317 12.238.006 6.854-5.405 12.253-12.29 12.266zm-44.143-.001c-6.817-.068-12.31-5.666-12.186-12.42.125-6.82 5.659-12.16 12.52-12.083 6.864.077 12.213 5.55 12.136 12.418-.076 6.827-5.572 12.153-12.47 12.085zM355.71 166.779c6.88.026 12.276 5.442 12.254 12.3-.023 6.846-5.46 12.219-12.352 12.203-6.833-.016-12.346-5.525-12.31-12.301.038-6.797 5.559-12.227 12.408-12.202zm88.043 0c6.863.077 12.211 5.55 12.135 12.418-.076 6.828-5.572 12.152-12.47 12.084-6.817-.068-12.31-5.665-12.186-12.419.125-6.82 5.658-12.16 12.521-12.083zM179.646 499.015c-6.817-.067-12.311-5.665-12.188-12.418.125-6.82 5.66-12.16 12.523-12.083 6.862.076 12.21 5.55 12.133 12.418-.075 6.828-5.57 12.152-12.469 12.083zM509.49 188.807c6.898-.008 12.335 5.403 12.312 12.254-.024 6.845-5.494 12.201-12.41 12.153-6.71-.047-12.049-5.357-12.13-12.069-.085-6.836 5.36-12.33 12.228-12.338zm-219.748 0c6.886.016 12.303 5.463 12.25 12.316-.056 6.838-5.55 12.164-12.474 12.091-6.844-.074-12.247-5.67-12.06-12.497.184-6.727 5.545-11.926 12.284-11.91zm329.535 110.004c6.667-.065 12.162 5.218 12.326 11.853.167 6.734-5.372 12.35-12.183 12.348-6.725 0-12.016-5.283-12.044-12.024-.029-6.75 5.212-12.112 11.901-12.177zm-439.641 24.201c-6.707-.069-11.917-5.414-11.881-12.187.037-6.733 5.347-12.022 12.064-12.015 6.79.007 12.34 5.656 12.164 12.381-.176 6.644-5.655 11.89-12.347 11.821zm44.187 263.753c-6.702.026-12.045-5.302-12.063-12.03-.018-6.733 5.292-12.114 11.973-12.13 6.603-.018 12.151 5.466 12.184 12.04.033 6.571-5.476 12.092-12.094 12.12zm351.605 0c-6.691-.018-11.988-5.383-11.971-12.123.019-6.724 5.376-12.068 12.066-12.038 6.604.03 12.125 5.57 12.092 12.134-.035 6.583-5.566 12.042-12.187 12.026zm-109.713 65.944c-6.707.075-12.105-5.221-12.162-11.932-.057-6.754 5.194-12.162 11.873-12.23 6.612-.066 12.178 5.345 12.283 11.942.105 6.55-5.388 12.145-11.994 12.22zm-131.879-.001c-6.708.08-12.11-5.213-12.169-11.923-.06-6.756 5.186-12.166 11.864-12.237 6.614-.07 12.181 5.334 12.291 11.933.111 6.548-5.38 12.149-11.986 12.227zm307.491-243.971c6.606-.04 12.162 5.408 12.23 11.994.065 6.561-5.436 12.116-12.047 12.166-6.703.051-12.072-5.264-12.109-11.983-.037-6.74 5.247-12.136 11.926-12.177zm-483.506 24.16c-6.695 0-12.009-5.35-12.004-12.088.004-6.727 5.344-12.085 12.031-12.072 6.601.012 12.136 5.534 12.126 12.098-.009 6.582-5.53 12.061-12.153 12.062zm439.555 131.859c-6.531-.04-11.826-5.31-11.906-11.85-.082-6.738 5.204-12.191 11.876-12.252 6.592-.06 12.186 5.463 12.199 12.04.012 6.575-5.564 12.1-12.169 12.062zm-351.9 43.962c-6.532-.149-11.707-5.476-11.706-12.053.002-6.712 5.412-12.108 12.083-12.051 6.59.056 12.134 5.716 11.993 12.245-.142 6.618-5.766 12.008-12.37 11.858zm308.2 0c-6.68.105-12.131-5.25-12.17-11.953-.04-6.727 5.31-12.15 11.983-12.15 6.59 0 12.162 5.593 12.095 12.145-.064 6.447-5.454 11.859-11.908 11.958zm87.938-219.812c-6.678.111-12.138-5.238-12.183-11.938-.046-6.725 5.295-12.155 11.966-12.163 6.593-.008 12.161 5.571 12.107 12.13-.054 6.447-5.434 11.864-11.89 11.971zm-483.531-.001c-6.677.14-12.169-5.195-12.234-11.885-.067-6.736 5.239-12.177 11.914-12.215 6.593-.038 12.175 5.507 12.16 12.079-.016 6.435-5.385 11.886-11.84 12.021zM201.93 564.73c-6.5.087-11.951-5.187-12.09-11.695-.143-6.735 5.14-12.262 11.807-12.352 6.58-.088 12.209 5.49 12.179 12.068-.03 6.455-5.43 11.892-11.896 11.98zm109.912-397.723c6.469.097 11.854 5.534 11.88 11.99.026 6.585-5.586 12.137-12.178 12.05-6.52-.089-11.785-5.435-11.8-11.982-.014-6.696 5.466-12.156 12.098-12.058zm175.747.001c6.606.034 12.143 5.7 11.972 12.254-.168 6.501-5.604 11.81-12.067 11.785-6.656-.025-12.002-5.526-11.9-12.245.099-6.516 5.5-11.826 11.995-11.794zm43.862 463.62c-6.488-.03-11.844-5.414-11.864-11.932-.02-6.523 5.277-11.93 11.778-12.021 6.603-.093 12.164 5.49 12.071 12.118-.09 6.512-5.512 11.866-11.985 11.836zm110.062-177.823c6.49.075 11.845 5.5 11.835 11.995-.01 6.634-5.655 12.153-12.232 11.96-6.525-.193-11.716-5.63-11.623-12.174.094-6.495 5.562-11.855 12.02-11.78zm-483.86 23.955c-6.504-.11-11.78-5.524-11.744-12.053.037-6.508 5.42-11.892 11.898-11.9 6.476-.009 11.883 5.363 11.953 11.873.072 6.626-5.507 12.192-12.107 12.08zm109.893 153.868c-6.506-.118-11.773-5.536-11.731-12.064.043-6.508 5.434-11.89 11.91-11.89 6.475 0 11.88 5.379 11.942 11.886.064 6.627-5.523 12.188-12.121 12.068zm351.821-88.024c-6.474-.043-11.875-5.55-11.79-12.023.083-6.353 5.358-11.629 11.721-11.72 6.52-.094 11.88 5.236 11.895 11.833.018 6.593-5.305 11.953-11.826 11.91zm-439.504.001c-6.452.045-11.927-5.429-11.909-11.907.017-6.35 5.221-11.657 11.604-11.836 6.498-.182 11.94 5.126 12.01 11.715.071 6.604-5.163 11.982-11.705 12.028zM157.847 321.11c6.565.02 11.729 5.283 11.682 11.906-.05 6.576-5.408 11.833-11.913 11.686-6.341-.144-11.563-5.425-11.605-11.735-.042-6.452 5.372-11.877 11.836-11.857zm483.539 0c6.562-.01 11.757 5.243 11.727 11.862-.03 6.585-5.352 11.845-11.87 11.73-6.336-.112-11.583-5.376-11.65-11.69-.07-6.452 5.319-11.89 11.793-11.902zm-263.84-175.851c6.55-.059 11.802 5.194 11.799 11.8-.003 6.591-5.284 11.87-11.81 11.803-6.464-.066-11.833-5.563-11.717-11.996.116-6.33 5.392-11.55 11.729-11.608zm43.99 0c6.554-.038 11.784 5.218 11.771 11.827-.014 6.588-5.316 11.861-11.836 11.775-6.327-.084-11.599-5.342-11.69-11.659-.095-6.446 5.278-11.905 11.755-11.944zm-21.875 529.08c-6.465.038-11.927-5.436-11.83-11.856.094-6.346 5.37-11.54 11.74-11.558 6.63-.02 11.758 5.164 11.703 11.83-.052 6.462-5.149 11.546-11.613 11.584zm-175.86-463.033c6.484.024 11.565 5.07 11.622 11.54.058 6.652-5.09 11.874-11.69 11.86-6.342-.012-11.64-5.227-11.745-11.562-.107-6.443 5.302-11.863 11.813-11.838zm351.758 0c6.485.06 11.528 5.12 11.562 11.602.034 6.637-5.158 11.85-11.751 11.798-6.344-.049-11.625-5.302-11.687-11.623-.062-6.45 5.369-11.838 11.876-11.778zm21.869 22.06c6.502-.007 11.598 5.024 11.643 11.498.045 6.501-4.938 11.62-11.42 11.731-6.537.112-11.994-5.232-11.94-11.691.053-6.353 5.31-11.529 11.717-11.538zm-307.575 418.89c-6.538.076-11.978-5.31-11.874-11.756.103-6.371 5.363-11.497 11.777-11.474 6.496.022 11.562 5.08 11.58 11.56.02 6.492-5.002 11.594-11.483 11.67zm219.66-.002c-6.395-.003-11.668-5.192-11.726-11.54-.058-6.468 5.372-11.787 11.93-11.69 6.484.099 11.472 5.21 11.43 11.713-.043 6.47-5.144 11.52-11.634 11.517zm-307.57-418.889c6.486.078 11.495 5.177 11.469 11.674-.029 6.616-5.325 11.733-11.96 11.553-6.388-.173-11.577-5.577-11.395-11.863.187-6.39 5.468-11.441 11.886-11.364zm153.654 440.804c-6.423-.025-11.662-5.264-11.616-11.613.047-6.387 5.286-11.513 11.738-11.487 6.494.028 11.557 5.125 11.529 11.609-.026 6.469-5.144 11.517-11.651 11.49zm87.968 0c-6.43-.005-11.676-5.212-11.662-11.57.015-6.374 5.253-11.537 11.696-11.53 6.504.01 11.582 5.085 11.574 11.566-.007 6.475-5.105 11.54-11.608 11.535zm110.05-484.702c6.48.057 11.518 5.187 11.462 11.674-.056 6.457-5.206 11.478-11.717 11.422-6.419-.056-11.642-5.34-11.543-11.677.101-6.404 5.34-11.476 11.797-11.42zm-307.735 0c6.48.057 11.518 5.187 11.463 11.674-.056 6.457-5.207 11.478-11.718 11.422-6.42-.056-11.641-5.34-11.542-11.677.1-6.404 5.34-11.476 11.797-11.42zm88.095-43.906c6.45.13 11.443 5.396 11.26 11.877-.184 6.417-5.48 11.305-12.034 11.106-6.251-.188-11.248-5.45-11.108-11.697.145-6.462 5.36-11.417 11.882-11.286zm131.601-.005c6.497.014 11.596 5.134 11.547 11.598-.049 6.451-5.222 11.465-11.75 11.392-6.44-.073-11.588-5.397-11.39-11.779.197-6.33 5.256-11.224 11.593-11.21zm-307.822 374.64c-6.367-.028-11.351-4.986-11.406-11.347-.057-6.501 5.037-11.587 11.568-11.552 6.315.034 11.387 5.067 11.44 11.35.053 6.44-5.108 11.578-11.602 11.55zm483.608 0c-6.373-.019-11.36-4.96-11.43-11.321-.07-6.503 5.014-11.603 11.543-11.577 6.318.023 11.398 5.043 11.463 11.324.067 6.442-5.085 11.594-11.576 11.574zm-461.675-264.69c6.493-.05 11.677 5.07 11.65 11.504-.026 6.289-5.076 11.34-11.39 11.396-6.54.057-11.653-5.003-11.62-11.502.03-6.356 5.008-11.35 11.36-11.397zm439.866-.001c6.309.048 11.37 5.1 11.405 11.385.036 6.439-5.136 11.557-11.635 11.514-6.36-.042-11.338-5.022-11.374-11.38-.038-6.5 5.069-11.568 11.604-11.52zM135.675 387.428c6.478-.067 11.719 5.104 11.664 11.507-.053 6.264-5.175 11.307-11.487 11.312-6.382.004-11.362-4.938-11.404-11.318-.042-6.393 4.88-11.435 11.227-11.5zm527.72 22.819c-6.382.004-11.36-4.94-11.401-11.32-.04-6.391 4.883-11.434 11.23-11.498 6.332-.065 11.505 4.879 11.659 11.143.158 6.4-5.031 11.672-11.488 11.675zM267.782 190.404c-6.386.023-11.372-4.939-11.389-11.333-.016-6.4 4.948-11.413 11.31-11.422 6.291-.01 11.465 5.098 11.491 11.342.026 6.24-5.124 11.39-11.412 11.413zm263.855-22.756c6.269.061 11.404 5.275 11.329 11.505-.076 6.255-5.258 11.293-11.572 11.251-6.365-.043-11.277-5.072-11.226-11.494.052-6.376 5.089-11.323 11.469-11.262zm131.618 263.798c6.234-.064 11.46 5.004 11.563 11.212.103 6.165-5.051 11.419-11.272 11.49-6.334.074-11.384-4.869-11.44-11.198-.055-6.37 4.856-11.439 11.149-11.504zM135.94 454.148c-6.328.046-11.348-4.92-11.382-11.258-.032-6.36 4.912-11.408 11.21-11.444 6.234-.035 11.445 5.071 11.506 11.272.06 6.176-5.106 11.386-11.334 11.43zm175.74 219.785c-6.278-.008-11.284-5.098-11.238-11.429.045-6.292 5.2-11.337 11.46-11.217 6.064.115 11.113 5.205 11.166 11.256.052 6.175-5.168 11.397-11.388 11.39zm176.01-22.648c6.06.082 11.126 5.137 11.224 11.198.099 6.16-5.108 11.426-11.327 11.45-6.279.025-11.317-5.045-11.297-11.37.02-6.298 5.137-11.361 11.4-11.278zM135.93 366.198c-6.271.047-11.342-5.019-11.337-11.329.004-6.304 5.099-11.38 11.359-11.317 6.202.06 11.402 5.381 11.26 11.519-.14 6.086-5.205 11.081-11.281 11.127zm527.553-22.647c6.204.053 11.406 5.363 11.274 11.507-.133 6.225-5.413 11.281-11.63 11.14-6.125-.141-10.988-5.148-10.99-11.315-.002-6.305 5.085-11.385 11.346-11.332zm-22.102-65.912c6.184-.016 11.45 5.302 11.337 11.448-.112 6.08-5.208 11.116-11.274 11.14-6.243.024-11.322-5.139-11.256-11.44.064-6.119 5.098-11.133 11.193-11.148zm-483.667 22.587c-6.106-.063-11.081-5.089-11.11-11.222-.031-6.285 5.118-11.444 11.34-11.367 6.048.076 11.145 5.19 11.195 11.233.05 6.167-5.236 11.422-11.425 11.356zm65.937 329.624c-6.079-.08-11.096-5.222-11.036-11.31.06-6.083 5.227-11.169 11.264-11.085 6.143.086 11.053 5.14 10.992 11.312-.062 6.164-5.123 11.164-11.22 11.083zm351.655-22.391c6.088-.112 11.176 4.875 11.26 11.039.086 6.172-4.803 11.242-10.948 11.355-6.026.11-11.222-4.966-11.304-11.042-.083-6.097 4.896-11.241 10.992-11.352zm22.164-21.986c6.127.021 11.1 5.06 11.087 11.227-.014 6.162-5.027 11.19-11.14 11.172-6.058-.018-11.14-5.146-11.126-11.227.014-6.086 5.125-11.193 11.179-11.172zm-395.834 22.398c-6.088-.105-11.08-5.253-11.003-11.347.077-6.08 5.272-11.161 11.3-11.051 6.15.11 11.04 5.174 10.959 11.348-.08 6.163-5.166 11.156-11.256 11.05zM399.48 146.269c-6.087-.096-11.087-5.24-11.017-11.333.07-6.08 5.253-11.165 11.286-11.066 6.147.101 11.046 5.161 10.974 11.335-.073 6.163-5.15 11.16-11.243 11.064zm-109.803 21.92c-6.074-.02-11.154-5.182-11.084-11.259.068-5.955 4.99-10.899 10.96-11.007 6.11-.11 11.159 4.883 11.187 11.067.03 6.197-4.934 11.22-11.063 11.2zm219.65-.002c-5.965-.137-10.878-5.106-10.925-11.052-.048-6.089 5.041-11.22 11.121-11.214 6.145.006 11.073 5.025 11.026 11.23-.045 6.182-5.123 11.176-11.222 11.036zM135.607 497.902c-5.971-.168-10.858-5.15-10.882-11.094-.022-6.09 5.096-11.21 11.165-11.172 6.154.04 11.047 5.064 10.982 11.274-.067 6.18-5.176 11.164-11.266 10.992zm527.658-22.264c6.118-.086 11.143 4.913 11.156 11.101.014 6.191-4.974 11.21-11.098 11.165-6.08-.044-11.14-5.214-11.05-11.29.087-5.957 5.029-10.892 10.992-10.976zM179.876 585.83c-6.05.057-11.199-5.077-11.189-11.155.01-5.951 4.874-10.927 10.857-11.111 6.094-.186 11.213 4.785 11.288 10.962.077 6.212-4.804 11.246-10.956 11.304zm439.31-22.266c6.099-.172 11.202 4.803 11.269 10.982.067 6.21-4.83 11.242-10.978 11.284-6.054.041-11.191-5.099-11.168-11.176.023-5.95 4.898-10.922 10.878-11.09zM355.788 146.132c-6.057.102-11.239-5.032-11.212-11.104.027-5.955 4.953-10.91 10.934-11 6.16-.093 11.131 4.867 11.113 11.087-.018 6.06-4.794 10.915-10.835 11.017zm65.639 527.422c6.156-.11 11.147 4.844 11.14 11.061-.007 6.063-4.765 10.923-10.81 11.043-6.05.12-11.25-5.005-11.238-11.079.01-5.955 4.92-10.917 10.908-11.025zm-43.783-.002A10.944 10.944 0 0 1 388.6 684.43c.068 6.233-4.825 11.235-10.984 11.228-5.945-.007-10.952-4.939-11.057-10.892-.107-6.073 4.983-11.225 11.084-11.213zM443.44 146.13c-5.96-.09-10.91-5.07-10.94-11.008-.034-6.09 5.117-11.187 11.204-11.096 6.055.092 10.822 4.925 10.84 10.997.022 6.21-4.968 11.2-11.105 11.107zM245.732 629.698c6.11-.003 10.893 4.737 10.933 10.835.04 6.116-4.638 10.937-10.73 11.061-6.12.122-11.288-4.958-11.23-11.04.055-5.982 5.004-10.854 11.027-10.856zm307.989.002c6.118.14 10.74 4.938 10.679 11.087-.062 6.076-4.9 10.838-10.983 10.808-5.994-.03-10.958-4.971-10.98-10.93-.021-6.101 5.129-11.106 11.284-10.965zM135.363 321.71c-5.877-.207-10.576-5.165-10.426-11.001.16-6.202 5.272-10.868 11.575-10.565 5.885.282 10.358 5.188 10.18 11.166-.179 6.029-5.177 10.617-11.329 10.4zm22.59 220.205c6.107.058 10.821 4.898 10.722 11.01-.098 6.057-5.01 10.716-11.155 10.579-5.898-.131-10.636-4.966-10.61-10.827.024-6.02 4.95-10.821 11.043-10.762zm483.366.002c6.133-.034 10.94 4.707 10.941 10.79 0 6.084-4.813 10.835-10.939 10.8-5.929-.035-10.689-4.703-10.82-10.613-.134-5.986 4.752-10.943 10.818-10.977zm21.779-241.79c6.158-.124 11.05 4.525 11.143 10.589.092 6.116-4.625 10.95-10.737 11.006-6.09.053-11.02-4.765-11.034-10.782-.014-5.87 4.73-10.694 10.628-10.813zM465.6 673.897c5.945.013 10.709 4.728 10.745 10.635.037 6.051-4.854 10.843-10.981 10.76-5.96-.084-10.581-4.834-10.518-10.813.065-5.979 4.756-10.597 10.754-10.583zm-131.858 0c5.94.023 10.695 4.755 10.717 10.663.021 6.051-4.88 10.826-11.01 10.731-5.957-.094-10.565-4.858-10.488-10.84.078-5.979 4.778-10.579 10.781-10.555zM685.28 410.16c5.954-.036 10.774 4.659 10.84 10.557.062 5.887-4.696 10.708-10.629 10.76-6.013.057-10.706-4.548-10.75-10.548-.045-6.012 4.575-10.733 10.54-10.77zm-571.446 21.318c-5.98-.007-10.623-4.69-10.603-10.699.022-5.992 4.707-10.647 10.691-10.62 5.932.026 10.716 4.818 10.69 10.708-.026 5.9-4.818 10.618-10.778 10.611zm483.781-219.813c-6.015.073-10.727-4.511-10.793-10.5-.066-6.012 4.533-10.757 10.483-10.815 5.952-.06 10.79 4.61 10.885 10.506.095 5.877-4.66 10.737-10.575 10.809zm-66.253 440.287c5.95-.06 10.79 4.61 10.885 10.506.094 5.876-4.659 10.737-10.574 10.809-6.015.074-10.727-4.51-10.794-10.5-.067-6.01 4.533-10.756 10.483-10.815zm-263.586-.001c5.928.02 10.718 4.809 10.7 10.693-.02 5.896-4.814 10.627-10.762 10.622-5.976-.004-10.626-4.686-10.613-10.684.015-5.985 4.7-10.652 10.675-10.631zM201.73 211.665c-5.97-.021-10.601-4.722-10.57-10.725.032-5.987 4.727-10.63 10.714-10.59 5.922.038 10.7 4.85 10.659 10.734-.043 5.897-4.847 10.602-10.802 10.58zm-21.92 21.95c-5.976 0-10.618-4.707-10.575-10.724.042-5.97 4.806-10.623 10.779-10.527 5.732.092 10.449 4.83 10.502 10.55.055 5.853-4.796 10.702-10.706 10.702zm439.757.002c-5.985.062-10.7-4.6-10.714-10.59-.012-5.996 4.678-10.694 10.647-10.664 5.885.03 10.734 4.944 10.635 10.78-.095 5.737-4.816 10.414-10.568 10.474zM113.905 387.484c-5.979.018-10.642-4.677-10.615-10.686.026-5.977 4.77-10.644 10.741-10.568 5.733.074 10.462 4.79 10.541 10.512.08 5.848-4.762 10.724-10.667 10.742zm373.672-241.792c-5.978.015-10.638-4.682-10.609-10.69.03-5.979 4.775-10.643 10.748-10.563 5.733.076 10.46 4.796 10.534 10.518.076 5.85-4.767 10.72-10.673 10.735zm-175.949 0c-5.956-.03-10.575-4.775-10.506-10.793.069-5.96 4.867-10.587 10.846-10.458 5.724.122 10.427 4.905 10.436 10.616.01 5.861-4.859 10.664-10.776 10.635zm374.001 241.79c-6.001.117-10.769-4.49-10.829-10.468-.061-6.01 4.57-10.758 10.523-10.783 5.901-.025 10.777 4.808 10.758 10.661-.018 5.72-4.715 10.478-10.452 10.59zM223.655 189.626c-5.783-.06-10.396-4.722-10.42-10.533-.024-5.957 4.755-10.738 10.664-10.668 5.693.068 10.494 4.874 10.537 10.547.045 5.817-4.91 10.714-10.78 10.654zm351.832 0c-5.93.01-10.625-4.776-10.553-10.764.07-5.795 4.747-10.433 10.527-10.436 5.848-.004 10.791 4.989 10.67 10.776-.123 5.713-4.922 10.415-10.644 10.425zm87.825 330.528c5.815-.048 10.816 4.997 10.675 10.768-.142 5.713-5.001 10.428-10.694 10.373-5.756-.056-10.402-4.78-10.398-10.575.003-5.79 4.666-10.518 10.417-10.566zm-527.28 0c5.687.116 10.48 5.025 10.413 10.667-.068 5.829-5.154 10.687-10.964 10.473-5.764-.213-10.247-5.01-10.129-10.84.116-5.752 4.952-10.417 10.68-10.3zm-22.219-65.943c5.819-.03 10.806 5.029 10.642 10.795-.162 5.72-5.028 10.417-10.716 10.345-5.752-.074-10.386-4.811-10.37-10.603.016-5.783 4.698-10.507 10.445-10.537zm571.543 0c5.678-.008 10.53 4.776 10.612 10.464.084 5.787-4.938 10.77-10.757 10.676-5.754-.094-10.365-4.841-10.334-10.638.032-5.78 4.735-10.493 10.48-10.501zM157.918 255.506c-5.722.062-10.511-4.675-10.553-10.438-.043-5.778 4.629-10.564 10.371-10.624 5.68-.058 10.541 4.729 10.605 10.443.063 5.684-4.719 10.557-10.423 10.619zm483.542 0c-5.727.036-10.489-4.712-10.513-10.48-.022-5.777 4.674-10.55 10.413-10.583 5.687-.03 10.532 4.777 10.567 10.485.034 5.685-4.772 10.542-10.467 10.578zm-88.07-87.982c-5.732-.068-10.422-4.905-10.326-10.653.092-5.594 4.732-10.22 10.323-10.29 5.698-.074 10.488 4.708 10.489 10.47.002 5.754-4.79 10.541-10.485 10.473zm-131.665-44.027c-5.67.092-10.542-4.754-10.512-10.456.03-5.575 4.654-10.246 10.244-10.346 5.736-.103 10.46 4.625 10.438 10.444-.023 5.657-4.548 10.266-10.17 10.358zm-44.014-.001c-5.679.055-10.519-4.807-10.46-10.507.058-5.578 4.713-10.232 10.296-10.296 5.749-.064 10.43 4.668 10.384 10.498-.046 5.658-4.601 10.25-10.22 10.305zM245.64 167.46c-5.576-.077-10.232-4.754-10.278-10.325-.047-5.711 4.794-10.554 10.48-10.487 5.633.069 10.167 4.655 10.206 10.323.04 5.814-4.678 10.568-10.407 10.489zm439.885 175.85c-5.668.112-10.557-4.722-10.544-10.43.014-5.716 4.91-10.52 10.586-10.38 5.645.14 10.112 4.747 10.105 10.421-.009 5.656-4.523 10.278-10.147 10.39zm-571.555.001c-5.676.078-10.535-4.774-10.495-10.479.039-5.575 4.68-10.245 10.266-10.332 5.739-.088 10.453 4.647 10.421 10.47-.03 5.655-4.571 10.263-10.192 10.341zm395.596 330.973c5.673.03 10.173 4.567 10.19 10.273.016 5.695-4.454 10.28-10.108 10.372-5.677.09-10.566-4.797-10.475-10.472.09-5.581 4.811-10.202 10.393-10.173zm-219.876.002c5.666-.015 10.21 4.506 10.253 10.204.046 5.708-4.373 10.3-10.038 10.439-5.667.136-10.591-4.723-10.542-10.406.046-5.572 4.738-10.223 10.327-10.237zm110.038 22.095c5.735.06 10.117 4.547 10.07 10.312-.044 5.71-4.591 10.172-10.295 10.104-5.625-.067-10.271-4.776-10.193-10.33.078-5.592 4.783-10.147 10.418-10.086zm263.515-419.205c-5.626-.087-10.26-4.815-10.16-10.363.102-5.599 4.813-10.131 10.45-10.054 5.733.077 10.097 4.575 10.038 10.344-.058 5.707-4.625 10.16-10.328 10.072zm-527.474-.097c-5.524-.035-10.028-4.43-10.172-9.925-.146-5.554 4.488-10.263 10.145-10.308 5.773-.047 10.244 4.357 10.249 10.096.006 5.74-4.464 10.173-10.222 10.137zm307.745 419.453c5.628-.022 10.059 4.241 10.176 9.791.12 5.742-4.285 10.268-10.032 10.306-5.69.038-10.331-4.564-10.248-10.162.08-5.504 4.565-9.914 10.104-9.935zm-87.442.008c5.558.176 9.8 4.668 9.693 10.266-.107 5.693-4.714 9.995-10.515 9.817-5.497-.168-9.919-4.823-9.759-10.273.167-5.664 4.834-9.991 10.581-9.81zM685.41 498.754c5.576.012 10.004 4.393 10.037 9.93.034 5.693-4.516 10.144-10.275 10.054-5.562-.086-9.933-4.57-9.859-10.11.075-5.556 4.501-9.886 10.097-9.874zM333.353 123.078a9.94 9.94 0 0 1-9.73-10.23c.153-5.71 4.769-9.961 10.579-9.743 5.494.208 9.763 4.863 9.545 10.409-.218 5.519-4.762 9.702-10.394 9.564zm-65.825 21.982c-5.566-.089-9.915-4.559-9.84-10.114.074-5.704 4.662-10.032 10.451-9.864 5.512.161 9.818 4.748 9.661 10.293-.156 5.527-4.662 9.775-10.272 9.685zm263.963.002c-5.59-.01-9.996-4.368-10.033-9.927-.039-5.702 4.497-10.147 10.264-10.059a9.961 9.961 0 0 1 9.853 10.11c-.06 5.537-4.499 9.886-10.084 9.876zM113.865 498.754c5.583-.002 10.022 4.356 10.074 9.894.053 5.692-4.484 10.164-10.238 10.09-5.566-.07-9.949-4.531-9.898-10.073.051-5.555 4.472-9.908 10.062-9.911zm351.65-375.673c-5.583-.022-9.998-4.412-10.017-9.96-.018-5.546 4.377-9.977 9.949-10.025 5.599-.05 10.078 4.248 10.188 9.776.113 5.697-4.382 10.232-10.12 10.209zM597.61 630.682c5.523.073 9.956 4.61 9.87 10.104-.086 5.504-4.596 9.845-10.174 9.792-5.59-.054-9.869-4.465-9.795-10.096.074-5.604 4.474-9.873 10.1-9.8zm-395.835.001c5.55 0 10.032 4.43 10.048 9.927.015 5.504-4.444 9.95-10 9.97-5.613.018-9.967-4.312-9.977-9.922-.009-5.612 4.333-9.975 9.93-9.975zm417.709-21.981c5.544.026 10.008 4.495 9.984 9.994-.024 5.507-4.503 9.91-10.072 9.902-5.604-.01-9.938-4.375-9.916-9.99.024-5.606 4.392-9.933 10.004-9.906zm-439.631 0c5.546.022 10.013 4.485 9.994 9.985-.018 5.507-4.495 9.915-10.062 9.91-5.607-.004-9.945-4.365-9.926-9.98.018-5.606 4.385-9.938 9.994-9.915zm461.921-21.94c5.335.164 9.678 4.67 9.63 9.99-.048 5.481-4.615 9.897-10.157 9.823-5.583-.074-9.811-4.505-9.698-10.167.111-5.582 4.603-9.818 10.226-9.646zm-483.584 0c5.334.164 9.679 4.67 9.631 9.99-.05 5.481-4.614 9.897-10.157 9.823-5.583-.073-9.811-4.505-9.7-10.167.113-5.582 4.603-9.818 10.226-9.646zm-66.21-197.81c5.456.05 10.037 4.778 9.849 10.162-.188 5.333-4.688 9.644-10.028 9.604-5.561-.041-9.841-4.505-9.728-10.148a9.776 9.776 0 0 1 9.907-9.618zm615.37 0c5.469 0 10.076 4.656 9.957 10.063-.118 5.319-4.6 9.695-9.936 9.704-5.578.009-9.9-4.41-9.83-10.05.07-5.433 4.393-9.715 9.809-9.717zM575.355 652.76c5.438-.063 10.117 4.619 10.003 10.013-.114 5.314-4.636 9.717-9.951 9.688-5.384-.03-9.704-4.398-9.716-9.82-.012-5.418 4.29-9.817 9.664-9.881zm-351.914.001c5.424-.193 10.18 4.363 10.223 9.796.043 5.266-4.43 9.813-9.739 9.904-5.377.091-9.829-4.215-9.929-9.604-.104-5.447 4.066-9.904 9.445-10.096zm483.724-219.81c5.436-.108 10.134 4.522 10.075 9.935-.056 5.298-4.557 9.75-9.872 9.762-5.377.012-9.745-4.334-9.789-9.741-.045-5.425 4.213-9.846 9.586-9.955zm-615.187.037c5.309.061 9.784 4.623 9.72 9.909-.064 5.322-4.6 9.773-9.903 9.718-5.357-.056-9.694-4.504-9.652-9.899.04-5.366 4.513-9.789 9.835-9.728zM685.42 298.749c-5.34.03-9.769-4.385-9.791-9.764-.022-5.377 4.36-9.833 9.699-9.863 5.291-.03 9.828 4.466 9.862 9.772.032 5.296-4.456 9.824-9.77 9.855zm-571.483 0c-5.338.046-9.782-4.362-9.814-9.74-.034-5.378 4.333-9.84 9.672-9.887 5.288-.046 9.834 4.437 9.884 9.746.051 5.294-4.427 9.835-9.742 9.88zm373.763 398.013c5.314.103 9.757 4.693 9.648 9.971-.11 5.334-4.666 9.75-9.96 9.651-5.353-.099-9.659-4.572-9.585-9.962.072-5.355 4.587-9.763 9.897-9.66zm-176.16.002c5.277-.104 9.849 4.33 9.96 9.658.111 5.275-4.332 9.863-9.648 9.964-5.324.101-9.826-4.29-9.898-9.653-.073-5.38 4.238-9.865 9.586-9.969zm351.76-131.832c5.312-.065 9.796 4.406 9.794 9.766-.002 5.354-4.492 9.823-9.802 9.753-5.331-.07-9.7-4.594-9.604-9.946.092-5.186 4.433-9.509 9.613-9.573zm-527.377 0c5.345.056 9.712 4.57 9.609 9.932-.102 5.372-4.671 9.77-9.955 9.582-5.346-.19-9.614-4.766-9.431-10.11.176-5.17 4.634-9.459 9.777-9.404zM91.8 364.637c-5.323-.06-9.707-4.584-9.618-9.928.085-5.184 4.415-9.509 9.595-9.586 5.309-.078 9.796 4.383 9.804 9.746.007 5.356-4.47 9.827-9.781 9.768zm615.533.001c-5.168-.015-9.553-4.317-9.682-9.5-.131-5.342 4.197-9.889 9.532-10.014 5.304-.124 9.817 4.307 9.863 9.682.045 5.357-4.39 9.847-9.713 9.832zm-417.58-241.95c-5.156.032-9.575-4.292-9.662-9.458-.09-5.298 4.436-9.813 9.748-9.725 5.29.088 9.392 4.3 9.375 9.627-.018 5.307-4.19 9.521-9.46 9.555zm219.664-.004c-5.178-.066-9.525-4.45-9.521-9.603.006-5.308 4.603-9.75 9.901-9.566 5.314.186 9.302 4.407 9.223 9.765-.079 5.285-4.354 9.471-9.603 9.404zm44.216 552.445c5.314.082 9.364 4.272 9.302 9.624-.063 5.295-4.315 9.427-9.608 9.337-5.218-.09-9.53-4.501-9.422-9.644.108-5.201 4.49-9.397 9.728-9.317zm-308.03.005c5.323-.077 9.537 4.018 9.596 9.323.06 5.342-4.008 9.552-9.311 9.636-5.202.084-9.618-4.165-9.719-9.352-.099-5.159 4.194-9.53 9.435-9.606zM92.02 477.392c5.177.062 9.215 4.086 9.273 9.24.06 5.327-4.043 9.5-9.365 9.524-5.27.022-9.592-4.242-9.558-9.432.033-5.212 4.359-9.394 9.65-9.332zm87.824-288.971c-5.271.02-9.59-4.25-9.55-9.44.038-5.072 4.175-9.22 9.294-9.318 5.36-.103 9.572 3.942 9.63 9.244.058 5.326-4.052 9.495-9.374 9.514zm219.556-87.93c-5.116-.102-9.264-4.26-9.303-9.324-.04-5.2 4.264-9.447 9.554-9.432 5.342.017 9.433 4.16 9.378 9.5-.055 5.303-4.279 9.364-9.629 9.257zm220.052 87.93c-5.27.013-9.585-4.265-9.537-9.453.05-5.216 4.38-9.384 9.671-9.311 5.317.075 9.361 4.284 9.251 9.628-.107 5.13-4.207 9.123-9.385 9.136zm88.037 288.971c5.177.062 9.215 4.086 9.273 9.24.061 5.327-4.043 9.5-9.365 9.524-5.27.022-9.592-4.242-9.558-9.432.033-5.21 4.36-9.394 9.65-9.332zm-65.997-267.069c-5.322.038-9.586-4.18-9.513-9.41.073-5.12 4.191-9.172 9.354-9.2 5.353-.031 9.502 4.097 9.452 9.405-.048 5.144-4.11 9.168-9.293 9.205zm-483.55.001c-5.325.053-9.598-4.144-9.548-9.378.05-5.111 4.167-9.19 9.322-9.233 5.35-.045 9.52 4.075 9.486 9.372-.032 5.147-4.08 9.187-9.26 9.239zm285.673-109.965c-5.23.01-9.333-4.037-9.347-9.223-.014-5.18 4.08-9.268 9.294-9.278 5.191-.009 9.341 4.083 9.358 9.225.015 5.138-4.124 9.265-9.305 9.276zm153.81 65.943c-5.222-.014-9.31-4.097-9.29-9.28.019-5.184 4.128-9.234 9.353-9.22 5.179.014 9.316 4.143 9.3 9.282-.016 5.143-4.17 9.23-9.363 9.218zm-395.745-.001c-5.22-.05-9.27-4.172-9.198-9.365.069-5.196 4.189-9.185 9.433-9.136 5.167.05 9.273 4.225 9.21 9.37-.06 5.138-4.24 9.178-9.445 9.13zm153.847-65.944c-5.219-.058-9.259-4.188-9.178-9.385.082-5.195 4.205-9.172 9.452-9.115 5.168.057 9.264 4.24 9.192 9.39-.07 5.14-4.256 9.167-9.466 9.11zm329.715 443.105c5.21-.055 9.394 3.973 9.467 9.11.074 5.154-4.019 9.334-9.19 9.39-5.254.058-9.373-3.914-9.453-9.112-.08-5.192 3.968-9.333 9.176-9.388zm-571.424-.001c5.195-.021 9.354 4.054 9.386 9.196.03 5.143-4.098 9.283-9.276 9.305-5.24.02-9.343-4.003-9.375-9.195-.03-5.182 4.053-9.285 9.265-9.306zm263.928 175.847c5.165.042 9.277 4.21 9.227 9.35-.052 5.134-4.229 9.19-9.424 9.15-5.219-.04-9.257-4.143-9.2-9.347.057-5.2 4.158-9.195 9.397-9.153zm43.825.001c5.185-.014 9.343 4.076 9.364 9.213.023 5.136-4.114 9.271-9.288 9.287-5.24.016-9.318-4.007-9.339-9.21-.02-5.199 4.044-9.275 9.263-9.29zm241.76-487.114c-5.07-.02-9.03-3.927-9.118-8.999-.09-5.25 3.883-9.367 9.082-9.405 5.178-.04 9.378 4.07 9.39 9.186.013 5.114-4.172 9.238-9.355 9.218zm-527.799-.006c-5.035-.128-8.89-4.148-8.865-9.247.023-5.225 4.105-9.226 9.336-9.153 5.14.072 9.27 4.34 9.131 9.44-.139 5.116-4.399 9.092-9.602 8.96zm571.91 87.89c-5.077.038-9.096-3.851-9.196-8.902-.106-5.275 3.847-9.392 9.05-9.425 5.132-.032 9.38 4.2 9.31 9.277-.068 4.963-4.17 9.013-9.164 9.05zm-615.484 0c-5.075.032-9.087-3.864-9.182-8.917-.099-5.271 3.862-9.385 9.063-9.41 5.131-.026 9.376 4.218 9.297 9.292-.078 4.963-4.183 9.005-9.178 9.036zm131.738-175.88c-5.006-.037-8.992-4.081-8.994-9.122 0-5.032 3.994-9.101 8.982-9.146 5.071-.045 9.408 4.308 9.283 9.318-.124 4.939-4.315 8.986-9.27 8.95zm351.79 0c-5.01.012-9.045-3.997-9.086-9.028-.04-5.047 3.9-9.144 8.89-9.24 5.07-.097 9.435 4.196 9.378 9.224-.058 4.924-4.229 9.032-9.182 9.044zm-44.1 553.278c4.894-.075 9.15 4.062 9.24 8.978.09 4.873-4.07 9.14-8.99 9.22-4.948.08-9.098-3.987-9.154-8.97-.058-5.008 3.942-9.153 8.904-9.228zm-263.605-.002c4.906.03 9.106 4.263 9.077 9.146-.029 4.906-4.247 9.072-9.162 9.051-4.959-.02-9.009-4.134-8.989-9.135.018-4.985 4.132-9.092 9.074-9.062zm198.001 22.033c4.79.149 8.773 4.224 8.805 9.005.033 4.916-4.165 9.128-9.069 9.099-4.938-.03-9.008-4.208-8.943-9.181.065-4.954 4.318-9.074 9.207-8.923zm-132.151 0c4.897-.03 9.1 4.19 9.069 9.104-.031 4.789-4.01 8.856-8.802 8.999-4.904.146-9.143-3.957-9.208-8.915-.067-4.974 4.005-9.16 8.94-9.189zM685.376 253.96c-4.911 0-9.043-4.224-8.948-9.15.091-4.793 4.14-8.794 8.919-8.813 4.929-.02 8.987 4.15 8.901 9.149-.083 4.84-4.081 8.813-8.872 8.814zM487.473 100.09c-4.78-.05-8.81-4.072-8.875-8.858-.068-4.925 4.096-9.142 8.993-9.106 4.8.035 8.768 4.017 8.83 8.86.065 4.995-4.026 9.156-8.948 9.105zM113.876 253.96c-4.908.007-9.046-4.216-8.956-9.142.087-4.793 4.13-8.795 8.911-8.821 4.927-.025 8.991 4.144 8.909 9.14-.078 4.843-4.071 8.817-8.864 8.823zm197.732-153.87c-4.779-.061-8.802-4.088-8.86-8.872-.06-4.926 4.114-9.138 9.01-9.091 4.802.046 8.76 4.03 8.815 8.876.056 4.994-4.042 9.15-8.965 9.088zM69.782 411.957c4.871-.08 8.856 3.842 8.903 8.759.048 4.935-3.8 8.925-8.68 9-4.794.073-8.936-3.963-9.004-8.777-.07-4.815 3.93-8.904 8.781-8.982zm659.56-.003c4.884.007 8.786 3.959 8.779 8.89-.007 4.918-3.95 8.884-8.813 8.869-4.82-.016-8.89-4.096-8.878-8.903.01-4.818 4.08-8.863 8.913-8.856zM707.12 521.988c4.974-.132 8.904 3.645 8.962 8.609.057 4.976-3.759 8.892-8.69 8.917-4.843.026-8.937-4.031-8.907-8.826.03-4.692 3.883-8.574 8.635-8.7zm22.132-136.344c-4.717-.046-8.645-3.886-8.776-8.58-.135-4.8 3.861-8.887 8.748-8.946 4.975-.06 8.836 3.752 8.841 8.733.006 4.96-3.885 8.842-8.813 8.793zM91.833 521.984c4.975-.027 8.8 3.805 8.78 8.796-.02 4.947-3.953 8.816-8.874 8.73-4.718-.083-8.626-3.956-8.718-8.639-.094-4.809 3.923-8.86 8.812-8.887zM70.064 385.629c-4.84.097-8.964-3.877-9.018-8.688-.053-4.807 3.986-8.825 8.867-8.818 4.97.007 8.757 3.853 8.712 8.849-.044 4.803-3.763 8.562-8.56 8.657zm175.609-263.891c-4.75-.032-8.63-3.84-8.703-8.543-.076-4.809 3.95-8.785 8.857-8.746 4.84.039 8.556 3.726 8.603 8.536.048 4.969-3.773 8.788-8.757 8.753zm307.625-.002c-4.742-.085-8.604-3.969-8.6-8.65.004-4.825 4.06-8.728 8.974-8.637 4.97.092 8.66 4.012 8.487 9.011-.165 4.766-4.017 8.364-8.861 8.276zm176.24 334.482c4.792.082 8.485 3.881 8.433 8.675-.053 4.792-3.81 8.47-8.648 8.463-4.777-.007-8.623-3.774-8.672-8.495-.05-4.846 3.942-8.727 8.887-8.642zm-659.5 0c4.803.053 8.521 3.817 8.501 8.607-.02 4.793-3.759 8.51-8.58 8.533-4.928.022-8.882-3.96-8.73-8.793.15-4.741 4.011-8.401 8.81-8.348zm87.615 175.909c4.841-.07 8.675 3.568 8.773 8.325.1 4.768-3.619 8.614-8.404 8.693-4.846.079-8.657-3.542-8.76-8.324-.103-4.77 3.618-8.625 8.391-8.694zm483.721-.001c4.82-.013 8.612 3.702 8.64 8.463.025 4.765-3.74 8.535-8.545 8.557-4.824.02-8.607-3.687-8.633-8.462-.025-4.778 3.732-8.545 8.538-8.558zm-461.447 21.98c4.776.052 8.533 3.871 8.476 8.616-.058 4.746-3.877 8.438-8.69 8.398-4.795-.039-8.505-3.822-8.446-8.612.059-4.786 3.842-8.456 8.66-8.402zm439.667 0c4.773.072 8.512 3.914 8.429 8.662-.082 4.748-3.913 8.411-8.735 8.352-4.788-.06-8.48-3.867-8.396-8.658.084-4.784 3.879-8.428 8.702-8.356zM135.842 610.19c4.77-.004 8.655 3.914 8.555 8.63-.098 4.6-3.881 8.28-8.521 8.29-4.716.011-8.372-3.56-8.458-8.256-.088-4.889 3.578-8.659 8.424-8.664zm527.491.001c4.78-.029 8.68 3.854 8.61 8.575-.065 4.598-3.835 8.312-8.467 8.345-4.729.034-8.402-3.507-8.51-8.203-.113-4.898 3.525-8.688 8.367-8.717zM70.061 341.317c-4.706.078-8.425-3.492-8.521-8.179-.097-4.743 3.396-8.507 8.044-8.665 4.732-.16 8.796 3.692 8.833 8.373.037 4.543-3.763 8.396-8.356 8.471zm659.22 0c-4.686-.023-8.306-3.675-8.315-8.389-.01-4.72 3.586-8.403 8.26-8.456 4.726-.053 8.722 3.927 8.618 8.584-.1 4.57-3.95 8.282-8.563 8.26zm-22.261-65.95c-4.645-.161-8.13-3.925-8.022-8.664.104-4.667 3.858-8.265 8.527-8.174 4.557.089 8.379 3.985 8.335 8.497-.047 4.687-4.095 8.506-8.84 8.342zm-615.282 0c-4.673-.068-8.244-3.753-8.216-8.476.028-4.69 3.685-8.355 8.345-8.362 4.711-.006 8.682 4.039 8.516 8.675-.166 4.572-4.04 8.232-8.645 8.164zm197.704 444.766c4.73-.139 8.778 3.743 8.783 8.42.006 4.535-3.819 8.367-8.403 8.418-4.7.053-8.392-3.53-8.469-8.224-.077-4.736 3.438-8.48 8.09-8.614zm220.47.004c4.55.193 8.3 4.216 8.114 8.706-.194 4.721-4.287 8.393-9.052 8.122-4.624-.264-8-4.103-7.8-8.875.19-4.639 4.052-8.153 8.737-7.953zM421.738 77.512c-4.625.08-8.396-3.599-8.456-8.25-.06-4.68 3.563-8.453 8.187-8.529 4.525-.075 8.473 3.733 8.57 8.259.093 4.483-3.762 8.44-8.3 8.52zm-44.107-.001c-4.63-.002-8.317-3.727-8.313-8.395.005-4.665 3.713-8.395 8.334-8.384 4.525.01 8.436 3.912 8.43 8.406-.007 4.503-3.915 8.375-8.451 8.373zM201.847 676.2c4.527.034 8.425 3.959 8.39 8.45-.035 4.52-3.947 8.356-8.494 8.331-4.634-.024-8.3-3.76-8.276-8.434.024-4.662 3.759-8.381 8.38-8.347zm395.753 0c4.536.089 8.394 4.064 8.292 8.545-.103 4.54-4.033 8.31-8.584 8.236-4.64-.077-8.247-3.84-8.18-8.53.066-4.647 3.859-8.341 8.472-8.251zm-483.587-87.816c4.567.11 8.248 4.053 8.055 8.625-.19 4.437-3.997 8.057-8.362 7.95-4.536-.11-8.251-4.077-8.071-8.618.172-4.383 4.047-8.06 8.378-7.957zm571.263.003c4.52-.065 8.367 3.813 8.314 8.378-.05 4.431-3.726 8.136-8.132 8.198-4.495.064-8.37-3.837-8.322-8.379.048-4.39 3.764-8.134 8.14-8.197zM399.573 742.253c4.53-.028 8.343 3.863 8.261 8.432-.08 4.43-3.783 8.119-8.18 8.145-4.51.028-8.347-3.885-8.27-8.43.074-4.397 3.813-8.118 8.19-8.147zm131.78-642.947c-4.423-.106-8.125-3.948-8.038-8.34.087-4.409 3.956-8.147 8.332-8.05 4.498.098 8.01 3.786 7.944 8.342-.066 4.516-3.792 8.155-8.238 8.048zm-263.637.004c-4.397-.012-8.183-3.813-8.177-8.209.006-4.4 3.795-8.184 8.198-8.182 4.48.002 8.092 3.665 8.087 8.203-.004 4.522-3.646 8.201-8.108 8.188zm461.394 401.4c4.568-.133 8.172 3.335 8.226 7.915.054 4.598-3.429 8.18-7.97 8.199-4.422.019-8.21-3.748-8.175-8.127.034-4.258 3.607-7.862 7.92-7.987zm-659.212-.006c4.568-.005 8.047 3.532 8.008 8.14-.04 4.563-3.666 8.092-8.193 7.974-4.294-.113-7.893-3.721-7.951-7.975-.06-4.388 3.686-8.135 8.136-8.14zM355.483 742.5c4.565-.104 8.144 3.382 8.176 7.967.034 4.588-3.483 8.159-8.022 8.147-4.43-.011-8.19-3.796-8.123-8.175.068-4.267 3.654-7.84 7.969-7.94zm87.88 0c4.568-.128 8.168 3.342 8.22 7.923.051 4.597-3.437 8.178-7.978 8.192-4.424.015-8.207-3.752-8.168-8.133.038-4.258 3.614-7.86 7.926-7.981zm22.075-665.437c-4.335-.06-7.916-3.602-7.959-7.872-.042-4.4 3.694-8.043 8.197-7.988 4.582.055 7.978 3.621 7.84 8.228-.132 4.394-3.624 7.693-8.079 7.632zm-131.601.007c-4.487.08-8.257-3.557-8.245-7.957.01-4.273 3.568-7.828 7.912-7.904 4.473-.078 7.972 3.183 8.124 7.572.16 4.607-3.224 8.207-7.791 8.289zM223.635 698.659c4.455-.061 7.948 3.226 8.087 7.609.145 4.588-3.27 8.188-7.826 8.252-4.484.064-8.238-3.594-8.201-7.992.035-4.274 3.602-7.81 7.94-7.87zm351.958-.006c4.564.062 7.973 3.65 7.826 8.241-.14 4.38-3.65 7.686-8.088 7.62-4.328-.065-7.904-3.616-7.94-7.883-.034-4.4 3.707-8.04 8.202-7.978zm65.59-533.83c-4.285-.094-7.596-3.454-7.616-7.732-.022-4.427 3.434-7.844 7.904-7.816 4.409.028 7.886 3.555 7.809 7.921-.077 4.363-3.647 7.724-8.097 7.627zm-483.36.003c-4.326-.002-7.663-3.217-7.8-7.514-.14-4.447 3.208-7.966 7.644-8.034 4.426-.067 7.981 3.343 8.026 7.696.044 4.358-3.46 7.854-7.87 7.852zm549.593 402.138c4.21.025 7.681 3.423 7.76 7.597.082 4.3-3.493 7.87-7.86 7.85-4.313-.02-7.61-3.283-7.67-7.586-.06-4.466 3.32-7.885 7.77-7.86zm-44.01-380.207c-4.329.004-7.646-3.232-7.727-7.538-.084-4.484 3.265-7.915 7.724-7.913 4.362.003 7.92 3.605 7.814 7.91-.105 4.179-3.584 7.538-7.812 7.54zm-527.525 0c-4.33.013-7.654-3.214-7.745-7.518-.095-4.484 3.245-7.925 7.7-7.933 4.364-.008 7.93 3.583 7.836 7.89-.092 4.178-3.564 7.548-7.791 7.562zM91.94 566.965c4.209.022 7.683 3.417 7.766 7.59.086 4.3-3.488 7.876-7.854 7.857-4.313-.017-7.614-3.278-7.676-7.58-.065-4.467 3.313-7.888 7.763-7.867zM70.013 296.66c-4.326.044-7.677-3.153-7.797-7.441-.127-4.488 3.173-7.961 7.603-8.005 4.353-.043 7.953 3.514 7.902 7.81-.05 4.17-3.504 7.593-7.708 7.636zm659.163-.004c-4.434-.078-7.688-3.569-7.525-8.07.156-4.271 3.556-7.457 7.869-7.374 4.179.08 7.628 3.564 7.635 7.716.008 4.302-3.61 7.805-7.98 7.728zM619.468 142.79c-4.314.013-7.64-3.22-7.73-7.511-.092-4.483 3.239-7.926 7.679-7.934 4.348-.01 7.923 3.59 7.828 7.883-.092 4.17-3.568 7.55-7.777 7.562zm-439.745-.036c-4.261-.041-7.553-3.395-7.55-7.687.006-4.282 3.32-7.654 7.564-7.69 4.315-.034 7.97 3.639 7.845 7.885-.123 4.152-3.67 7.532-7.86 7.492zm-131.94 248.4c4.164-.073 7.731 3.292 7.895 7.447.168 4.234-3.459 7.927-7.776 7.918-4.246-.009-7.577-3.344-7.6-7.615-.026-4.273 3.258-7.676 7.48-7.75zm703.531-.002c4.154 0 7.695 3.46 7.767 7.588.072 4.251-3.601 7.858-7.923 7.778-4.236-.078-7.498-3.467-7.464-7.752.036-4.26 3.392-7.613 7.62-7.614zm-65.92-182.496c-4.22.012-7.632-3.456-7.595-7.72.035-4.235 3.56-7.681 7.75-7.575 4.013.103 7.442 3.548 7.514 7.548.073 4.125-3.501 7.734-7.67 7.747zm-571.52-.004c-4.212.004-7.623-3.474-7.58-7.728.041-4.223 3.582-7.67 7.76-7.558 4.01.11 7.428 3.557 7.492 7.556.064 4.12-3.515 7.726-7.673 7.73zm637.362 226.506c4.124-.05 7.768 3.54 7.765 7.653-.002 3.985-3.39 7.472-7.41 7.628-4.192.163-7.763-3.23-7.845-7.455-.083-4.254 3.288-7.776 7.49-7.826zM487.478 742.892c4.124-.04 7.762 3.56 7.75 7.668-.012 3.987-3.403 7.466-7.423 7.614-4.194.155-7.756-3.243-7.832-7.47-.076-4.25 3.305-7.77 7.505-7.812zm-175.6 0c4.008.105 7.431 3.553 7.497 7.551.068 4.12-3.509 7.728-7.667 7.735-4.21.008-7.626-3.469-7.586-7.722.04-4.225 3.576-7.674 7.756-7.564zM48.01 435.202c4.134.062 7.659 3.77 7.484 7.875-.172 4.047-3.654 7.379-7.657 7.327-4.161-.055-7.578-3.664-7.443-7.864.128-4.015 3.638-7.398 7.616-7.338zm.025-72.797c-3.987.076-7.527-3.374-7.595-7.401-.067-4.034 3.311-7.539 7.354-7.633 4.027-.093 7.48 3.291 7.54 7.392.06 4.117-3.232 7.564-7.299 7.642zm197.679 358.642c4.007-.03 7.39 3.327 7.45 7.395.06 4.088-3.155 7.495-7.21 7.635-4.084.143-7.722-3.443-7.687-7.577.034-4.004 3.45-7.423 7.447-7.453zm505.715-358.642c-3.986.076-7.527-3.374-7.595-7.401-.066-4.034 3.312-7.539 7.354-7.633 4.028-.093 7.479 3.29 7.54 7.392.06 4.117-3.231 7.564-7.3 7.642zM597.086 120.6c-4.04-.257-7.262-3.775-7.116-7.772.144-4 3.69-7.364 7.643-7.253 4.198.118 7.456 3.707 7.227 7.962-.219 4.048-3.803 7.314-7.754 7.063zm-395.188.013c-4.097.075-7.68-3.549-7.591-7.678.087-4.004 3.565-7.399 7.54-7.361 4.023.038 7.349 3.423 7.362 7.493.01 4.075-3.28 7.472-7.311 7.546zm351.714 600.429c4.187.09 7.477 3.679 7.268 7.926-.2 4.054-3.757 7.328-7.717 7.103-4.034-.228-7.28-3.738-7.157-7.735.124-4 3.648-7.38 7.606-7.294zm-44.047-644.51c-4.007.024-7.497-3.451-7.475-7.44.024-3.869 3.27-7.186 7.186-7.337 4.094-.16 7.485 3.09 7.548 7.232.065 4.155-3.173 7.521-7.26 7.545zm-219.983-.006c-3.904-.087-7.202-3.359-7.297-7.24-.099-4.013 3.293-7.49 7.352-7.538 4.108-.049 7.393 3.25 7.382 7.41-.013 4.135-3.368 7.46-7.437 7.368zm417.653 153.588c-4.01-.053-7.226-3.311-7.143-7.238.083-3.966 3.337-7.049 7.384-6.999 4.057.049 7.121 3.191 7.063 7.238-.059 4.021-3.222 7.054-7.304 6.999zm-615.257.005c-4.038.04-7.292-3.071-7.355-7.031-.063-3.931 3.157-7.166 7.172-7.207 4.086-.041 7.23 2.993 7.276 7.022.045 4.043-3.034 7.176-7.093 7.216zm659.098 249.606c4.07-.105 7.29 2.898 7.378 6.884.09 3.988-3.029 7.175-7.056 7.21-4.048.033-7.218-3.077-7.206-7.07.012-3.849 3.026-6.923 6.884-7.024zM69.734 545.668c4.084-.071 7.267 2.955 7.315 6.956.05 4.003-3.084 7.135-7.137 7.137-4.048.002-7.217-3.158-7.159-7.141.054-3.843 3.11-6.886 6.981-6.952zm659.623-.003c4.058.01 7.178 3.143 7.124 7.15-.054 3.996-3.247 7.02-7.328 6.942-3.882-.075-6.923-3.115-6.969-6.965-.046-3.975 3.137-7.138 7.173-7.127zM47.76 479.723c4.065-.069 7.256 2.973 7.303 6.963.047 3.985-3.1 7.13-7.136 7.13-4.04.001-7.18-3.149-7.122-7.145.055-3.857 3.082-6.88 6.955-6.948zM399.747 54.136c-3.966.052-7.02-2.86-7.11-6.785-.094-3.948 2.811-7.066 6.704-7.194 4.062-.132 7.364 2.987 7.377 6.972.012 3.842-3.085 6.957-6.97 7.008zm175.677 43.918c-3.881-.02-6.882-3.085-6.855-7 .026-3.885 3.11-6.94 6.967-6.904 3.783.036 7.008 3.281 6.974 7.015-.034 3.765-3.27 6.91-7.086 6.89zm-351.546.001c-3.883.057-6.964-2.957-7.005-6.85-.042-3.904 2.96-7.01 6.815-7.053 3.786-.043 7.06 3.112 7.124 6.863.063 3.748-3.124 6.984-6.934 7.04zM443.57 54.053c-3.674-.006-6.707-2.96-6.82-6.647-.122-3.87 2.853-7.07 6.668-7.174 3.687-.1 7.064 3.145 7.117 6.841.053 3.691-3.234 6.985-6.965 6.98zm-88.035 0c-3.817-.07-6.813-3.248-6.712-7.12.097-3.688 3.116-6.672 6.78-6.702 3.703-.032 7.032 3.27 7.01 6.953-.022 3.712-3.346 6.937-7.078 6.869zM377.93 765.62c3.616.18 6.704 3.44 6.634 7.009-.074 3.75-3.488 6.96-7.215 6.785-3.703-.175-6.588-3.264-6.538-7.001.052-3.858 3.325-6.98 7.119-6.793zm43.36 0c3.715-.194 7.146 3.019 7.234 6.773.084 3.573-2.988 6.833-6.612 7.018-3.807.194-7.076-2.903-7.139-6.763-.059-3.737 2.813-6.835 6.517-7.028zm330.276-447.853c-3.755.172-7.048-3.04-7.038-6.864.01-3.677 3.06-6.783 6.71-6.835 3.591-.052 6.787 3.053 6.886 6.69.098 3.618-2.917 6.842-6.558 7.01zm-703.394 0c-3.754.172-7.048-3.04-7.038-6.864.01-3.677 3.059-6.783 6.71-6.835 3.59-.052 6.788 3.053 6.887 6.69.097 3.618-2.918 6.842-6.56 7.01zm483.364 426.026c3.533.02 6.496 2.944 6.603 6.52.111 3.745-2.825 6.9-6.506 6.99-3.593.09-6.836-3.082-6.865-6.71-.027-3.631 3.147-6.821 6.768-6.8zm-263.892.004c3.66-.063 6.742 3.029 6.736 6.76-.007 3.722-3.12 6.822-6.765 6.739-3.487-.08-6.52-3.1-6.615-6.583-.097-3.622 3.006-6.853 6.644-6.916zm395.619-87.923c3.658-.091 6.762 2.987 6.774 6.72.013 3.724-3.072 6.834-6.724 6.779-3.627-.056-6.745-3.295-6.654-6.911.088-3.496 3.1-6.501 6.604-6.588zm-527.21-.004c3.555.14 6.41 3.109 6.438 6.694.027 3.726-3.038 6.844-6.693 6.809-3.627-.035-6.76-3.26-6.686-6.881.075-3.632 3.356-6.763 6.942-6.622zm505.307 22.007c3.685-.035 6.701 3.025 6.677 6.775-.025 3.73-3.125 6.785-6.78 6.677-3.504-.102-6.499-3.11-6.574-6.598-.077-3.624 3.035-6.82 6.677-6.854zm-483.473-.004c3.699.039 6.637 3.123 6.56 6.889-.075 3.72-3.245 6.743-6.884 6.563-3.515-.174-6.455-3.222-6.466-6.704-.013-3.625 3.168-6.786 6.79-6.748zM70.025 251.588c-3.624.076-6.832-3.064-6.8-6.657.03-3.48 3.006-6.447 6.54-6.523 3.633-.08 6.531 2.642 6.667 6.259.144 3.805-2.67 6.844-6.407 6.92zm659.305-.004c-3.645-.001-6.784-3.195-6.667-6.781.114-3.507 3.121-6.396 6.661-6.401 3.781-.006 6.628 2.933 6.545 6.757-.078 3.614-2.939 6.425-6.539 6.425zM685.348 634.06c3.78-.013 6.636 2.922 6.56 6.742-.073 3.616-2.925 6.432-6.526 6.44-3.64.007-6.79-3.182-6.681-6.768.105-3.505 3.106-6.4 6.647-6.414zm-571.5 0c3.78-.009 6.632 2.928 6.552 6.75-.075 3.615-2.933 6.43-6.533 6.432-3.642.003-6.787-3.19-6.673-6.776.11-3.506 3.114-6.397 6.654-6.406zm219.994 132.133c3.63.072 6.386 2.973 6.252 6.581-.133 3.598-3.052 6.221-6.754 6.068-3.44-.14-6.155-2.979-6.112-6.39.044-3.56 2.972-6.332 6.614-6.259zm131.694.003c3.663-.01 6.481 2.781 6.45 6.387-.033 3.607-2.887 6.329-6.569 6.263-3.617-.064-6.439-3.009-6.287-6.565.146-3.452 2.91-6.076 6.406-6.085zm154.228-65.938c3.5.144 6.16 2.971 6.085 6.466-.08 3.636-3.013 6.323-6.74 6.177-3.486-.14-6.194-3.008-6.108-6.468.09-3.616 3.058-6.325 6.763-6.174zm-440.288 0c3.723-.15 6.665 2.536 6.752 6.165.082 3.502-2.57 6.329-6.073 6.476-3.71.154-6.678-2.548-6.773-6.165-.091-3.465 2.612-6.337 6.094-6.476zm132.3-646.853c-3.56.032-6.26-2.565-6.336-6.098-.076-3.56 2.497-6.307 6.014-6.422 3.61-.117 6.62 2.746 6.608 6.283-.01 3.402-2.836 6.206-6.286 6.237zm175.848 0c-3.56.032-6.259-2.565-6.335-6.098-.076-3.559 2.497-6.307 6.013-6.422 3.61-.117 6.62 2.746 6.61 6.283-.012 3.402-2.837 6.206-6.288 6.237zm263.768 471.097c3.377.04 6.284 2.97 6.244 6.296-.04 3.352-2.966 6.176-6.376 6.15-3.505-.026-6.156-2.745-6.125-6.281.03-3.521 2.757-6.206 6.257-6.165zm-43.928 87.925c3.39.06 6.309 3.085 6.187 6.417-.12 3.24-2.936 5.973-6.204 6.02-3.528.05-6.257-2.664-6.253-6.218.004-3.54 2.766-6.28 6.27-6.219zM245.753 75.338c-3.525.002-6.205-2.744-6.158-6.31.045-3.39 2.632-6.034 5.993-6.122 3.392-.088 6.411 2.779 6.467 6.14.054 3.349-2.892 6.29-6.302 6.292zm307.446-.003c-3.364-.146-5.884-2.817-5.872-6.23.012-3.537 2.781-6.271 6.284-6.203 3.39.067 6.303 3.103 6.171 6.432-.135 3.384-3.167 6.148-6.583 6zM47.662 524.51c3.39-.141 6.438 2.668 6.558 6.042.118 3.344-2.787 6.338-6.2 6.39-3.529.052-6.26-2.662-6.258-6.215.003-3.4 2.544-6.077 5.9-6.217zm44.034 87.923c3.392-.102 6.418 2.751 6.49 6.115.07 3.345-2.868 6.302-6.277 6.316-3.384.013-6.05-2.542-6.175-5.92-.132-3.573 2.462-6.407 5.962-6.51zm681.868-197.778c3.226.162 5.98 3.065 5.932 6.248-.053 3.354-3.111 6.238-6.452 6.084-3.284-.151-5.877-2.923-5.84-6.238.038-3.437 2.989-6.264 6.36-6.094zm-747.819-.001c3.325-.126 6.385 2.814 6.4 6.15.015 3.331-3.015 6.28-6.357 6.184-3.28-.094-5.933-2.833-5.943-6.14-.01-3.297 2.631-6.07 5.9-6.194zm747.661-31.674c-3.225.07-6.099-2.73-6.156-6.003-.057-3.273 2.682-6.144 5.937-6.224 3.216-.077 6.11 2.737 6.174 6.005.064 3.253-2.709 6.151-5.955 6.222zm-747.452-.023c-3.223.006-6.046-2.827-6.055-6.075-.007-3.244 2.8-6.093 6.023-6.11 3.231-.017 6.04 2.804 6.05 6.078.01 3.272-2.779 6.102-6.018 6.107zM597.51 722.582c3.192.039 5.759 2.633 5.81 5.87.052 3.387-2.651 6.155-5.954 6.096-3.102-.056-5.836-2.777-5.902-5.873-.067-3.235 2.808-6.131 6.046-6.093zm-395.903.01c3.168-.12 5.876 2.398 6.038 5.618.172 3.414-2.358 6.234-5.694 6.347-3.047.102-5.93-2.547-6.136-5.64-.214-3.221 2.512-6.199 5.792-6.325zm-175.63-263.54c3.289.014 5.755 2.502 5.733 5.781-.021 3.264-2.54 5.731-5.822 5.703-3.21-.026-5.874-2.666-5.845-5.793.03-3.144 2.702-5.707 5.935-5.692zm747.336 0c3.289.005 5.767 2.486 5.754 5.761-.012 3.264-2.523 5.742-5.802 5.724-3.21-.015-5.883-2.647-5.867-5.772.016-3.142 2.683-5.717 5.915-5.713zM47.62 272.573c-3.114-.135-5.523-2.67-5.449-5.732.078-3.218 2.742-5.638 6.051-5.497 3.125.134 5.463 2.616 5.403 5.733-.064 3.257-2.668 5.64-6.005 5.496zm703.871.009c-3.295.08-5.94-2.431-5.937-5.631.005-3.2 2.656-5.701 5.95-5.613 3.122.084 5.521 2.53 5.518 5.628-.003 3.095-2.41 5.54-5.53 5.616zM70.096 591.13c3.092.085 5.512 2.579 5.465 5.633-.047 3.056-2.518 5.447-5.64 5.456-3.31.009-5.745-2.52-5.597-5.81.139-3.111 2.604-5.366 5.772-5.28zm659.453.002c3.094.094 5.502 2.594 5.442 5.652-.058 3.06-2.531 5.435-5.66 5.434-3.305 0-5.733-2.54-5.574-5.83.15-3.111 2.62-5.352 5.792-5.256zM135.853 140.616c-3.165.003-5.557-2.327-5.601-5.46-.045-3.115 2.31-5.554 5.434-5.626 3.279-.075 5.874 2.44 5.818 5.642-.053 3.058-2.526 5.44-5.651 5.444zm527.503 0c-3.155-.016-5.542-2.374-5.563-5.501-.02-3.115 2.351-5.532 5.481-5.585 3.135-.054 5.645 2.262 5.77 5.321.132 3.206-2.409 5.779-5.688 5.764zm-373.57 626.361c3.085.03 5.561 2.475 5.581 5.51.021 3.174-2.619 5.675-5.876 5.568-3.12-.103-5.42-2.547-5.345-5.68.077-3.115 2.494-5.428 5.64-5.398zM685.42 162.591c-3.281.02-5.708-2.493-5.582-5.78.119-3.106 2.567-5.381 5.704-5.302 3.059.078 5.508 2.585 5.476 5.604-.034 3.023-2.524 5.459-5.598 5.478zm-571.596-.002c-3.272-.022-5.66-2.575-5.487-5.866.163-3.101 2.64-5.332 5.785-5.21 3.055.119 5.468 2.669 5.384 5.688-.085 3.03-2.594 5.409-5.682 5.388zm395.742 604.388c3.09.018 5.573 2.442 5.61 5.48.037 3.036-2.4 5.53-5.48 5.602-3.168.077-5.609-2.177-5.73-5.29-.129-3.283 2.314-5.81 5.6-5.792zm131.769-648.41c-2.971-.036-5.281-2.32-5.359-5.299-.083-3.145 2.271-5.633 5.366-5.67 3.031-.036 5.654 2.512 5.654 5.495-.001 2.995-2.602 5.511-5.661 5.474zm131.64 219.817c-2.96-.158-5.158-2.538-5.128-5.548.033-3.132 2.514-5.524 5.629-5.43 3.046.094 5.56 2.767 5.403 5.748-.16 3.033-2.825 5.396-5.903 5.23zm-747.029.003c-2.99.002-5.332-2.245-5.446-5.224-.12-3.172 2.184-5.678 5.292-5.755 3.048-.078 5.69 2.417 5.74 5.417.05 3.004-2.518 5.56-5.586 5.562zm131.974-219.82c-3.092.05-5.525-2.374-5.518-5.492.008-2.965 2.261-5.342 5.185-5.473 3.016-.134 5.691 2.32 5.803 5.322.109 2.958-2.446 5.594-5.47 5.643zM707.41 184.4c-2.847.036-5.377-2.506-5.363-5.388.012-2.74 2.302-5.156 5.05-5.324 2.797-.173 5.46 2.321 5.545 5.194.085 2.872-2.389 5.481-5.233 5.518zM421.655 30.531c-2.847.037-5.377-2.505-5.363-5.387.012-2.741 2.302-5.156 5.05-5.325 2.797-.172 5.46 2.322 5.545 5.195.085 2.871-2.389 5.481-5.232 5.517zm-43.99 0c-2.852.017-5.362-2.531-5.334-5.415.026-2.74 2.333-5.148 5.076-5.298 2.8-.154 5.451 2.355 5.522 5.225.07 2.868-2.426 5.47-5.265 5.487zM91.805 184.393c-2.881-.056-5.311-2.622-5.224-5.518.084-2.746 2.444-5.114 5.178-5.196 2.816-.084 5.415 2.472 5.427 5.335.012 2.86-2.561 5.432-5.381 5.38zM531.697 52.352c-2.853.123-5.465-2.41-5.425-5.265.037-2.73 2.436-5.094 5.194-5.117 2.806-.023 5.09 2.227 5.141 5.067.053 2.83-2.133 5.195-4.91 5.315zm-307.9 693.009c2.8.017 5.058 2.3 5.08 5.137.022 2.814-2.22 5.18-4.981 5.257-2.853.081-5.437-2.497-5.355-5.339.079-2.736 2.508-5.07 5.256-5.055zm351.654.003c2.803-.01 5.078 2.253 5.12 5.09.041 2.825-2.163 5.19-4.935 5.296-2.707.102-5.223-2.197-5.39-4.927-.176-2.853 2.301-5.449 5.205-5.459zM267.733 52.354c-2.73.001-5.165-2.369-5.23-5.093-.07-2.865 2.496-5.39 5.38-5.298 2.8.09 4.988 2.415 4.953 5.265-.035 2.82-2.329 5.125-5.103 5.126zm351.728 43.724c-2.825.01-5.198-2.3-5.16-5.021.038-2.738 2.435-4.966 5.273-4.902 2.775.063 4.807 2.08 4.868 4.833.065 2.903-2.065 5.078-4.981 5.09zm-439.594 0c-2.82.024-5.21-2.274-5.19-4.994.018-2.592 2.218-4.806 4.884-4.915 2.962-.122 5.18 1.899 5.258 4.79.08 2.908-2.037 5.096-4.952 5.12zm219.494 693.485c2.962-.128 5.186 1.89 5.27 4.78.084 2.91-2.027 5.101-4.942 5.13-2.818.028-5.216-2.267-5.203-4.985.013-2.589 2.212-4.81 4.875-4.925zM773.36 503.907c2.815.032 4.875 2.055 4.895 4.809.02 2.904-2.183 4.972-5.188 4.872-2.726-.093-4.832-2.304-4.745-4.981.088-2.686 2.278-4.73 5.038-4.7zm-747.184.007c2.748.107 4.782 2.254 4.71 4.972-.071 2.724-2.173 4.71-4.977 4.703-2.73-.008-4.894-2.113-4.92-4.788-.03-2.803 2.304-5 5.187-4.887zm307.2-473.991c-2.587-.146-4.452-2.166-4.431-4.797.023-2.76 2.13-4.801 4.878-4.724 2.643.073 4.846 2.407 4.709 4.99-.138 2.622-2.484 4.683-5.156 4.53zm417.944 540.006c2.65 0 4.907 2.251 4.86 4.846-.048 2.607-2.354 4.754-5.02 4.675-2.745-.08-4.69-2.222-4.562-5.018.12-2.606 2.111-4.503 4.722-4.503zM465.333 29.924c-2.594-.112-4.49-2.103-4.503-4.727-.013-2.77 2.057-4.834 4.807-4.794 2.644.038 4.878 2.334 4.784 4.917-.094 2.619-2.416 4.719-5.088 4.604zm-109.39 759.82c2.633.146 4.783 2.56 4.561 5.124-.226 2.616-2.63 4.612-5.288 4.39-2.697-.226-4.53-2.504-4.26-5.297.245-2.561 2.373-4.36 4.986-4.216zm87.788-.005c2.644.074 4.844 2.41 4.706 4.993-.142 2.622-2.488 4.682-5.16 4.528-2.58-.148-4.45-2.175-4.428-4.8.024-2.759 2.134-4.799 4.882-4.721zM47.858 569.93c2.636-.034 4.933 2.191 4.927 4.773-.007 2.586-2.305 4.787-4.952 4.74-2.75-.049-4.72-2.155-4.624-4.947.087-2.61 2.044-4.533 4.648-4.566zm681.594-364.199c-2.566.067-4.67-1.924-4.769-4.512-.098-2.605 1.804-4.753 4.364-4.924 2.56-.17 5.062 2.145 5.077 4.702.014 2.414-2.212 4.67-4.672 4.734zm-659.72-.005c-2.579-.1-4.53-2.186-4.486-4.795.044-2.585 2.107-4.64 4.657-4.642 2.445 0 4.72 2.203 4.782 4.631.067 2.556-2.356 4.907-4.954 4.806zm703.4 87.664c-2.358-.102-4.418-2.292-4.325-4.602.094-2.333 2.3-4.376 4.637-4.293 2.464.088 4.29 2.083 4.213 4.605-.076 2.47-2.104 4.394-4.524 4.29zm-747.205-.048c-2.348-.007-4.47-2.097-4.468-4.401.002-2.314 2.105-4.366 4.479-4.372 2.497-.006 4.349 1.861 4.346 4.38-.002 2.494-1.892 4.4-4.357 4.393zm571.32-219.824c-2.364-.113-4.386-2.279-4.27-4.576.12-2.334 2.287-4.286 4.655-4.193 2.481.098 4.244 2.042 4.15 4.577-.094 2.498-2.054 4.311-4.535 4.192zm-395.66 0c-2.364-.113-4.386-2.279-4.27-4.576.12-2.334 2.288-4.286 4.656-4.193 2.48.098 4.244 2.042 4.15 4.577-.093 2.498-2.054 4.311-4.535 4.192zm44.15 694.947c2.33-.012 4.222 1.849 4.19 4.12-.034 2.276-1.965 4.062-4.312 3.987-2.415-.076-4.066-1.876-3.936-4.29.121-2.237 1.787-3.804 4.057-3.817zm307.716 0c2.333-.02 4.231 1.828 4.21 4.102-.023 2.273-1.949 4.07-4.295 4.005-2.416-.066-4.077-1.86-3.956-4.271.111-2.237 1.774-3.814 4.041-3.835zm241.766-365.62c-2.19-.035-3.9-1.78-3.904-3.983-.006-2.192 1.713-3.973 3.88-4.022 2.263-.05 4.279 1.97 4.169 4.18-.106 2.101-2.01 3.86-4.145 3.825zM4.013 394.838c2.104.028 4.005 1.887 4.042 3.953.04 2.222-2.021 4.168-4.291 4.053-2.188-.11-3.825-1.903-3.762-4.118.063-2.19 1.845-3.917 4.01-3.888zm483.476 395.668c2.233-.034 4.238 2.014 4.108 4.198-.125 2.094-2.032 3.835-4.145 3.783-2.156-.051-3.86-1.823-3.85-4.001.01-2.162 1.753-3.947 3.887-3.98zm-175.95.003c2.077-.09 4.037 1.65 4.204 3.731.176 2.183-1.784 4.245-4.038 4.25-2.159.004-3.907-1.724-3.947-3.903-.04-2.174 1.64-3.987 3.781-4.078zM795.37 438.884c2.05.063 3.878 2.051 3.775 4.11-.102 2.076-2.118 3.888-4.138 3.72-2.084-.173-3.758-2.178-3.563-4.264.181-1.925 2.05-3.621 3.926-3.565zM113.915 680.678c1.897.03 3.692 1.775 3.813 3.706.127 2.065-1.663 4.05-3.729 4.136-2.042.084-3.965-1.785-3.984-3.874-.02-2.086 1.863-4 3.9-3.968zm637.49-453.766c-1.867.055-3.735-1.641-3.915-3.553-.195-2.072 1.48-4.08 3.554-4.26 2.006-.172 4.015 1.644 4.115 3.72.1 2.072-1.7 4.032-3.754 4.093zM3.826 438.895c2.032-.087 3.995 1.804 4.021 3.874.027 2.05-1.898 3.984-3.932 3.955-2.068-.029-3.876-1.954-3.802-4.049.067-1.95 1.784-3.698 3.713-3.78zM685.24 680.686c2.032-.086 3.995 1.805 4.021 3.875.027 2.05-1.899 3.984-3.933 3.955-2.068-.03-3.875-1.954-3.802-4.049.068-1.95 1.785-3.698 3.714-3.78zm-21.86 22.001c1.92-.006 3.733 1.75 3.83 3.708.103 2.096-1.751 4.078-3.815 4.08-1.93.001-3.734-1.743-3.831-3.704-.105-2.107 1.736-4.076 3.817-4.084zM47.78 226.884c-1.95-.088-3.674-1.88-3.694-3.842-.023-2.106 1.92-4.035 3.971-3.946 1.936.085 3.681 1.904 3.702 3.86.024 2.106-1.919 4.023-3.98 3.929zm88.173 475.797c1.942.067 3.691 1.864 3.727 3.831.04 2.11-1.88 4.033-3.949 3.957-1.948-.072-3.683-1.852-3.719-3.816-.038-2.103 1.887-4.043 3.941-3.972zM289.524 28.87c-1.95-.111-3.656-1.962-3.558-3.86.097-1.9 1.98-3.605 3.89-3.525 2.012.084 3.565 1.807 3.48 3.86-.086 2.034-1.822 3.638-3.813 3.525zm220.142.022c-1.88.083-3.789-1.66-3.889-3.55-.102-1.933 1.566-3.729 3.559-3.834 2.024-.106 3.731 1.463 3.811 3.504.081 2.031-1.501 3.793-3.481 3.88zM3.75 358.515c-1.859-.108-3.472-1.732-3.521-3.545-.053-1.94 1.71-3.697 3.719-3.705 2.075-.008 3.664 1.63 3.612 3.721-.053 2.07-1.756 3.648-3.81 3.53zm88.122 300.446c2.058-.008 3.681 1.675 3.627 3.76-.053 2.067-1.798 3.692-3.829 3.566-1.816-.113-3.482-1.804-3.529-3.582-.053-1.94 1.737-3.735 3.731-3.744zM795.3 358.57c-1.957.016-3.8-1.806-3.771-3.73.028-1.929 1.906-3.689 3.868-3.624 2.038.066 3.605 1.819 3.488 3.901-.107 1.901-1.703 3.438-3.585 3.453zM707.27 658.966c2.057-.048 3.72 1.608 3.702 3.687-.015 1.92-1.505 3.515-3.401 3.64-1.917.127-3.861-1.602-3.956-3.518-.096-1.96 1.634-3.762 3.655-3.81zM25.916 549.326c2.04-.018 3.511 1.383 3.527 3.36.017 1.992-1.422 3.412-3.467 3.425-2.006.012-3.58-1.46-3.596-3.363-.017-1.892 1.546-3.402 3.536-3.421zm747.307.003c2.05-.043 3.53 1.328 3.573 3.309.042 1.995-1.377 3.438-3.415 3.474-2.008.036-3.592-1.407-3.637-3.315-.047-1.894 1.49-3.426 3.479-3.468zM157.865 725.182c1.991.011 3.461 1.462 3.45 3.404-.012 1.94-1.5 3.363-3.503 3.351-1.98-.013-3.513-1.502-3.499-3.402.016-1.893 1.573-3.364 3.552-3.353zm483.596 0c1.991.017 3.455 1.472 3.436 3.417-.019 1.938-1.51 3.355-3.513 3.337-1.983-.018-3.507-1.51-3.485-3.413.024-1.895 1.583-3.359 3.562-3.342zM223.504 50.431c-1.834-.129-3.088-1.532-3.03-3.39.056-1.846 1.403-3.166 3.252-3.186 1.957-.023 3.523 1.521 3.457 3.407-.067 1.9-1.701 3.31-3.68 3.17zm352.145.003c-2.006.092-3.504-1.328-3.487-3.309.012-1.834 1.346-3.206 3.175-3.269 1.947-.068 3.56 1.442 3.549 3.32-.01 1.746-1.43 3.175-3.236 3.258zM795.1 483.491c1.723-.095 3.353 1.286 3.529 2.99.189 1.822-1.403 3.53-3.313 3.558-1.822.024-3.216-1.325-3.27-3.164-.05-1.84 1.255-3.286 3.054-3.384zm-65.763 153.925c1.637.002 3.294 1.696 3.241 3.315-.053 1.65-1.775 3.218-3.422 3.116-1.763-.11-3.106-1.687-2.96-3.476.133-1.62 1.554-2.957 3.141-2.955zm-659.693.012c1.626-.152 3.387 1.383 3.492 3.045.103 1.63-1.485 3.335-3.15 3.385-1.588.048-3.045-1.25-3.215-2.864-.187-1.765 1.134-3.402 2.873-3.566zM4.028 483.545c1.64.043 3.257 1.774 3.164 3.386-.095 1.665-1.833 3.186-3.479 3.045-1.609-.137-2.9-1.55-2.91-3.176-.008-1.766 1.512-3.3 3.225-3.255zM399.451 6.358c-1.738-.11-3.122-1.77-2.929-3.513.174-1.578 1.725-2.93 3.251-2.84 1.658.098 3.152 1.877 2.952 3.521-.188 1.557-1.773 2.928-3.274 2.832zM619.234 747.7c1.744-.118 3.054 1.097 3.058 2.836.004 1.575-1.129 2.799-2.677 2.89-1.552.09-3.173-1.374-3.179-2.873-.005-1.377 1.346-2.754 2.798-2.853zm-439.34-.017c1.588.04 2.729 1.181 2.772 2.77.045 1.735-1.236 3.018-2.953 2.957-1.462-.053-2.836-1.374-2.887-2.775-.057-1.519 1.475-2.993 3.069-2.952zM443.422 5.837c-1.556-.076-2.741-1.334-2.645-2.806.098-1.466 1.417-2.58 2.966-2.5 1.614.082 2.685 1.246 2.596 2.82-.088 1.577-1.252 2.568-2.917 2.486zm351.697 307.735c-1.556-.077-2.74-1.335-2.645-2.807.098-1.466 1.417-2.579 2.966-2.5 1.614.083 2.685 1.246 2.596 2.822-.088 1.576-1.252 2.567-2.917 2.485zm-791.154.006c-1.553.003-2.837-1.197-2.837-2.651 0-1.46 1.277-2.657 2.83-2.655 1.607.002 2.772 1.115 2.775 2.65.003 1.546-1.151 2.653-2.768 2.656zm769.21-65.962c-1.624-.051-2.438-1.011-2.614-2.493-.181-1.521 1.086-2.755 2.68-2.777 1.64-.021 2.826 1.106 2.809 2.67-.017 1.555-1.24 2.65-2.874 2.6zm-747.226.002c-1.593.008-2.834-1.207-2.782-2.723.047-1.37 1.162-2.464 2.59-2.544 1.646-.09 2.877.973 2.932 2.537.055 1.564-1.108 2.723-2.74 2.73zM355.498 5.837c-1.558-.076-2.742-1.334-2.646-2.806.097-1.466 1.417-2.58 2.966-2.5 1.614.082 2.685 1.246 2.596 2.82-.088 1.577-1.252 2.568-2.917 2.486zM267.51 791.879c1.654-.111 2.888.928 2.967 2.497.078 1.564-1.073 2.745-2.7 2.77-1.591.025-2.856-1.177-2.827-2.688.028-1.362 1.14-2.484 2.56-2.58zm263.85-.003c1.627-.071 2.863 1.029 2.896 2.576.033 1.57-1.138 2.695-2.782 2.694-1.618-.003-2.477-.913-2.694-2.407-.22-1.521.988-2.793 2.58-2.863zm-153.906 22.006c1.597-.086 2.904 1.08 2.912 2.598.01 1.537-1.244 2.642-2.904 2.562-1.496-.072-2.532-1.12-2.529-2.557.003-1.423 1.072-2.526 2.521-2.603zm-44.037 0c1.596-.086 2.904 1.08 2.912 2.598.008 1.537-1.244 2.642-2.904 2.562-1.496-.072-2.532-1.12-2.529-2.557.003-1.423 1.072-2.526 2.521-2.603zm88.269-.008c1.465.054 2.57 1.105 2.634 2.506.068 1.524-1.153 2.68-2.81 2.662-1.516-.018-2.558-1.006-2.6-2.467-.045-1.575 1.172-2.76 2.776-2.701zm44.016 0c1.465.054 2.57 1.105 2.634 2.506.068 1.524-1.152 2.68-2.809 2.662-1.518-.018-2.559-1.006-2.6-2.467-.046-1.575 1.171-2.76 2.775-2.701z" opacity=".5"/>
</svg>
