<svg xmlns="http://www.w3.org/2000/svg" width="62" height="100" viewBox="0 0 62 100">
    <g fill="#231F20" fill-rule="evenodd">
        <path d="M0 0v61.63h3.379V3.37h54.36v54.888H9.753V51.88H6.375V61.63H61.115V0z"/>
        <path d="M6.264 48.871h6.455v6.379h41.648v-3.37h-38.27V45.5H6.264z"/>
        <path d="M6.264 42.493h13.042v6.378h35.061V45.5H22.684v-6.38H6.264z"/>
        <path d="M6.264 36.114H25.65v6.378h28.719v-3.37h-25.34v-6.379H6.264z"/>
        <path d="M6.264 29.31h25.791v6.379H54.367v-3.37H35.434V25.94H6.265z"/>
        <path d="M6.264 22.932H38.58v6.378h15.789v-3.37h-12.41v-6.38H6.264z"/>
        <path d="M6.264 16.34h38.52v6.379h9.583v-3.37h-6.205V12.97H6.264z"/>
        <path d="M54.639 16.34V6.591H6.264v3.371H51.26v6.378zM8.2 64.768V78.56H3.48V64.768H.33v16.935h9.146v1.116h3.15V78.56h-1.278V64.768zM24.11 67.91v-3.142H13.728v16.935h10.594v-3.142H16.88V74.7h5.955v-3.142H16.88V67.91zM25.426 64.768v16.935h3.15v-6.79h4.932v6.79h3.15V64.768h-3.15v7.002h-4.932v-7.002zM37.337 67.91h4.465v13.793h3.15V67.91h4.466v-3.142H37.337zM50.097 64.768v16.935h3.149v-4.881h7.87V64.768H50.097zm3.149 8.912h4.72v-5.77h-4.72v5.77zM1.884 83.176L.91 89.2H.33v2.392h1.375v-1.02H5.07v1.02h1.375V89.2h-.557v-6.024H1.884zm1.196 1.372h1.43V89.2H2.34l.74-4.652zM8.302 87.07h2.061v-2.522H8.302v2.521zm3.438-3.894H6.926v7.396h1.376v-2.13h3.438v-5.266zM13.617 87.81l.686-1.793.686 1.793h-1.372zm13.285 0l.686-1.793.685 1.793h-1.371zm-14.325 2.763l.51-1.39h2.43l.511 1.39h2.864v-3.38l2.053 4.02 2.053-4.02v3.38h2.865l.51-1.39h2.43l.51 1.39h1.49l-2.855-7.49h-.72l-2.855 7.486v-7.486h-.828l-2.6 5.105-2.6-5.105h-.829v7.485l-2.853-7.485h-.721l-2.855 7.49h1.49zM41.328 87.07h2.062v-2.522h-2.062v2.521zm-4.994 1.159l-.975 2.343h1.495l3.099-7.33v7.33h1.375v-2.13h3.438v-5.266h-6.289l-1.39 3.35-1.543-3.35h-6.136v1.372h1.95v6.024h1.377v-6.024h1.884l1.715 3.68zM45.62 90.573h1.375v-6.025h3.159v-1.372h-4.535zM55.263 90.573v-7.49h-.796l-2.734 4.202v-4.11h-1.376v7.49h.795l2.735-4.202v4.11zM60.319 83.083l-2.733 4.202v-4.11h-1.377v7.49h.796l2.735-4.202v4.11h1.376v-7.49zM4.53 92.243l-2.794 4.294V92.34H.33v7.653h.812l2.795-4.294v4.199h1.405v-7.654zM8.4 92.339v7.558h1.406v-2.179h3.511V92.34H8.4zm1.406 3.977h2.106v-2.575H9.806v2.575zM31.49 92.243l-2.793 4.294V92.34h-2.973l-2.154 2.785v-2.785h-1.405v2.785l-2.156-2.785H14.19v7.558h5.721l2.254-2.81v2.81h1.405v-2.81l2.253 2.81h1.467v.095h.814l2.795-4.294v4.199h1.405v-7.654h-.813zm-6.94 3.87l2.74-3.543v6.959l-2.74-3.417zm-8.954-2.372h3.227v-.68l2.36 3.051-2.265 2.825v-.443h-3.322v-1.722h2.658V95.37h-2.658v-1.628zM33.27 92.339v7.558h4.635v-1.402h-3.227V93.74h3.227v-1.402zM48.82 92.339h-1.533l-1.42 3.423-1.579-3.423h-5.796v7.558h4.634v-1.402h-3.228V93.74h3.228v-.467l1.97 4.228-.996 2.395h1.527l3.165-7.492v7.492H50.2v-2.179h3.512V92.34h-4.89zm1.379 3.977h2.106v-2.575h-2.106v2.575zM59.71 99.897h1.407v-7.558H59.71zM54.584 92.339v7.558h4.823V94.99H55.99v-2.652h-1.405zm1.405 6.155h2.013v-2.101h-2.013v2.1z"/>
    </g>
</svg>
