<svg xmlns="http://www.w3.org/2000/svg" xmlns:xlink="http://www.w3.org/1999/xlink" width="233" height="80" viewBox="0 0 233 80">
    <defs>
        <path id="a" d="M24.053 79.949h-.22l-10.526-2.313h21.248l-10.502 2.313zM13.307 64.247v-1.781h21.248v1.781H13.307zm0 3.793v-1.782h21.248v1.782H13.307zm0 3.793V70.05h21.248v1.782H13.307zm0 3.792v-1.782h21.248v1.782H13.307zm5.079-62.031a1.882 1.882 0 0 0-.738-.008L11.676 3.423a23.553 23.553 0 0 1 1.74-.958l5.198 10.782c-.165.21-.261.362-.228.347zm1.372-1.38c-.118.046-.246.13-.376.234L15.23 1.657c.613-.243 1.237-.46 1.873-.651l3.22 10.97c-.152.068-.298.134-.565.238zm1.97-.782l-.415.148L19.024.513a23.769 23.769 0 0 1 1.954-.328l1.36 11.07a6.488 6.488 0 0 0-.61.177zm-6.648 3.88c-.247.247-.492.498-.736.743L5.659 8.593c.427-.51.873-1.004 1.34-1.477l8.081 8.197zm1.592-1.339a6.22 6.22 0 0 0-.832.625L8.457 5.756a24.302 24.302 0 0 1 1.56-1.234l6.655 9.451zm7.82-3.03c-.371.024-.737.06-1.085.11L22.963.022c.325-.014.651-.022.98-.022.335 0 .668.009 1 .023l-.452 10.92zM28.87.515l-2.176 10.49a9.049 9.049 0 0 0-1.104-.087L26.917.186c.66.083 1.31.193 1.954.33zm7.678 21.108c.018-.36.025-.759.022-1.132l10.346-3.12c.187.64.35 1.289.485 1.948L36.55 21.623zm-.143 1.113l.003-.01 11.316-1.425c.08.66.133 1.327.16 2.001l-11.295.47c-.135-.343-.324-.662-.184-1.036zm-1.39-5.954c-.025-.146-.04-.297-.07-.445l8.506-6.151c.383.544.744 1.104 1.083 1.68l-9.16 5.53c-.19-.265-.336-.487-.358-.614zm1.487 2.435c-.037-.242-.23-.57-.463-.91l9.439-4.674c.29.6.555 1.212.796 1.838l-9.759 3.857c-.004-.04-.008-.079-.013-.111zm-2.26-3.76a19.94 19.94 0 0 1-.835-.75l7.486-7.583c.466.473.912.967 1.34 1.478l-7.99 6.855zm-3.508-2.71a26.91 26.91 0 0 0-.962-.533l4.705-9.745c.594.296 1.174.616 1.74.959l-5.483 9.319zm-1.95-1.023a19.09 19.09 0 0 0-1.018-.438l3.024-10.277c.636.192 1.261.408 1.873.651l-3.879 10.064zm3.277 1.82l-.38-.23 6.193-8.786c.538.39 1.059.803 1.561 1.235l-6.85 8.193a4.342 4.342 0 0 0-.524-.412zm3.293 18.788c.013-.304.029-.677.118-1.062l9.051 5.472c-.205.35-.416.694-.638 1.03-.138.211-.282.433-.429.662l-8.134-5.892c.018-.075.029-.147.032-.21zm-6.238 9.596c.428-.36.81-.764 1.148-1.191l6.352 16.51c-.805 2.07-2.062 3.208-2.062 3.208l-5.438-18.527zm3.658-7.024s.085.186.284.315l7.253 8.686a44.733 44.733 0 0 0-1.033 2.182l-6.849-9.729c.254-.867.345-1.454.345-1.454zm-16.33 25.55l3.562-17.185a9.102 9.102 0 0 1-1.368-.95l-5.334 18.135c-.018-.017-1.261-1.152-2.06-3.208l6.222-16.148a9.04 9.04 0 0 1-.93-1.464l-6.062 12.56c-.155-1.123-.462-2.312-.872-3.521l6.205-10.55c-.187-.34-.374-.68-.502-1.075l-.112-.34-6.604 9.371c-.323-.737-.67-1.47-1.03-2.185l7.126-8.526c-.022-.05-.044-.099-.069-.15-.175-.365-.442-.507-.724-.741l-7.367 7.465a63.13 63.13 0 0 0-1.042-1.805l7.702-6.61a11.246 11.246 0 0 1-.476-1.105L4.42 38.42a66.466 66.466 0 0 0-.421-.647c-.225-.342-.438-.691-.646-1.044l8.96-5.41a11.907 11.907 0 0 1-.33-1.098L2.41 34.963c-.29-.6-.558-1.211-.799-1.837 0 0 10.177-4.046 10.176-4.057a8.386 8.386 0 0 1-.026-1.098L.97 31.225a24.338 24.338 0 0 1-.483-1.946l11.275-2.394a3.24 3.24 0 0 0-.219-1.023L.163 27.297a24.711 24.711 0 0 1-.163-2l11.195-.467a3.445 3.445 0 0 1-.052-.243c-.048-.287-.136-.56-.222-.838l-10.92-.46c.027-.675.08-1.342.16-2l10.543 1.334c-.003-.12 0-.243.016-.373.028-.241.083-.487.155-.732L.486 19.306a24.5 24.5 0 0 1 .486-1.945l10.304 3.112c.16-.348.336-.682.503-.989L1.615 15.46c.24-.626.507-1.238.796-1.837l9.903 4.91c.19-.315.391-.616.6-.9l-9.558-5.776c.34-.576.7-1.137 1.084-1.68l9.153 6.628c.143-.155.288-.303.434-.438.273-.268-.915 1.19-1.046 1.775-.111.496-.052 1.19.33 1.266.202.042.52-.084.683-.149.237-.096.709-.778.983-.987.201-.155.75-.613 1.206-.48.456.133.476.58.706 1.175.117.3.22 1.448.222 1.74.003.464.324.906.141 1.527-.066.223-.272.388-.26.586.03.475 1.57.53 2.003.653.35.1.692.203 1.016.313.349.118.638.303.925.397.227.075.573.057.76.123 1.027.36.678 2.285.646 3.548-.02.757.264 1.61.286 2.28.015.42-.06.798.014 1.075.094.348.448.575.695.955.09.14.114.3.189.426.09.153.307.26.364.433a.71.71 0 0 1-.146.68c-.306.05-.498-.087-.706-.03-.459.127-.354.872-.413 1.444.083.148.284.073.467.08.279.15.592.416.981.46.273.03.438-.126.83-.133.392-.006 1.392.673 1.998.693.302.01.675-.12.675.109 0 .15.03.188-.042.316-.336.053-.644.057-.97-.042-.182-.055-.32-.242-.489-.26-.185-.02-.364.035-.534.048-.218.018-.432.05-.648.08-.208.03-.396.12-.597.183-.178.056-.394.163-.566.184-.367.046-.701-.14-1.088-.017-.015.201.363.282.39.525.01.096-.03.16-.069.223-.04.062-.372.112-.361.205.56.338 1.864.268 2.202.812-.036.543-.55.664-.436 1.264-.277.58-1.636.095-1.712.82-.02.2.2.64.347.851.107.154.401.58.596.764.189.18.39.234.535.33.362.235.882.307 1.187.468.218.116.344.402.596.534.18.094.404.06.52.2a16.78 16.78 0 0 0 1.357-.878l3.622 17.519h-3.03l-2.04-16.588a3.738 3.738 0 0 1-1.007.414c-.196.044-.394.079-.592.11l.647 16.064h-2.947l.661-16.033a5.614 5.614 0 0 1-1.215-.29c-.132-.048-.258-.098-.384-.148l-2.033 16.47h-3.03zm1.695-27.142c.236-.018.74-.6.95-.884.396-.538.855-1.268 1.246-1.646.181-.177.488-.328.55-.484.063-.162.016-.357.05-.505.105-.453.4-.646.456-1.054.034-.247-.09-.428-.087-.72.002-.16.107-.332.08-.504-.073-.466-.935-.65-1.622-.607-.197.012-.396.095-.594.123-.409.06-.883.028-1.102.31.027.184.251.387.116.752.246.428 1.373.037 1.628.458-.39.797-1.857.303-2.503.757-.11.708-.65 1.572-.37 2.52.054.188.215.312.302.49.214.438.36 1.037.9.994zm2.126-7.874c-.311-.254-1.517-.52-1.764-.047.304.393 1.392.303 1.764.047zm10.928 13.907c.282-.502.518-1.006.713-1.486l6.356 10.819c-.411 1.207-.72 2.395-.875 3.516l-6.194-12.85zm16.69-14.034a24.73 24.73 0 0 1-.163 2l-11.167-1.414c-.05-.11-.143-.1.084-.12.355-.029.177-.792.13-.936l11.117.47zm-13.219 8.735c.04-.084.11-.216.189-.371l7.538 6.476a64.531 64.531 0 0 0-1.044 1.804l-7.091-7.193c.192-.272.339-.57.408-.716zm12.73-4.753a24.386 24.386 0 0 1-.484 1.946l-11.04-3.335a6.92 6.92 0 0 0-.3-.875s.158-.064.348-.18l11.476 2.444zM46.27 33.14a24 24 0 0 1-.8 1.837l-9.6-4.762c.1-.37.102-.786.092-1.156L46.27 33.14zm-21.54-8.196c-.028-.435.208-.422.695-.447.423-.022 1.042-.255 1.455-.295.149-.015.328.026.499.021.369-.01.605-.158.885-.05.261.1.575.628.555.77-.083.612-1.455.156-1.677.702.36.424 1.108.352 1.685.521.578.17 1.035.451 1.165 1.004-.563.201-.841-.51-1.334-.474-.434.03-.541.702-1.226.454-.153-.056-.356-.415-.542-.412-.27.004-.271.416-.462.517-.476.252-.872-.11-1.104-.346-.109-.11-.28-.228-.308-.37-.1-.496.22-.496.156-.92-.046-.311-.423-.38-.442-.675zm-.107 7.425c-.017-.232.236-.318.457-.338.318-.03.486.09.486.32 0 .508-.918.357-.943.018z"/>
    </defs>
    <g fill="none" fill-rule="evenodd">
        <path fill="#333" fill-rule="nonzero" d="M24.209 79.949h-.22l-10.525-2.313h21.248l-10.503 2.313zM13.463 64.247v-1.781h21.248v1.781H13.463zm0 3.793v-1.782h21.248v1.782H13.463zm0 3.793V70.05h21.248v1.782H13.463zm0 3.792v-1.782h21.248v1.782H13.463zm5.08-62.031a1.882 1.882 0 0 0-.74-.008l-5.97-10.163a23.553 23.553 0 0 1 1.74-.958l5.198 10.782c-.165.21-.262.362-.229.347zm1.372-1.38c-.119.046-.247.13-.376.234L15.387 1.657c.612-.243 1.237-.46 1.872-.651l3.221 10.97c-.152.068-.299.134-.565.238zm1.97-.782c-.158.055-.294.104-.416.148L19.181.513a23.769 23.769 0 0 1 1.953-.328l1.36 11.07a6.488 6.488 0 0 0-.61.177zm-6.648 3.88c-.248.247-.492.498-.737.743L5.815 8.593c.427-.51.874-1.004 1.34-1.477l8.082 8.197zm1.591-1.339a6.22 6.22 0 0 0-.832.625L8.614 5.756a24.302 24.302 0 0 1 1.56-1.234l6.654 9.451zm7.82-3.03c-.37.024-.737.06-1.085.11L23.12.022c.325-.014.65-.022.98-.022.334 0 .667.009 1 .023l-.452 10.92zM29.028.515l-2.176 10.49a9.049 9.049 0 0 0-1.104-.087L27.074.186c.66.083 1.31.193 1.953.33zm7.677 21.108c.018-.36.025-.759.022-1.132l10.346-3.12c.187.64.35 1.289.486 1.948l-10.854 2.304zm-.142 1.113l.003-.01 11.316-1.425c.08.66.132 1.327.16 2.001l-11.295.47c-.136-.343-.325-.662-.184-1.036zm-1.39-5.954c-.026-.146-.04-.297-.07-.445l8.505-6.151c.384.544.745 1.104 1.083 1.68l-9.159 5.53c-.191-.265-.337-.487-.359-.614zm1.486 2.435c-.037-.242-.23-.57-.463-.91l9.44-4.674c.289.6.555 1.212.795 1.838l-9.758 3.857c-.004-.04-.009-.079-.014-.111zm-2.26-3.76a19.94 19.94 0 0 1-.834-.75l7.486-7.583c.466.473.912.967 1.339 1.478l-7.99 6.855zm-3.507-2.71a26.91 26.91 0 0 0-.962-.533l4.705-9.745c.593.296 1.174.616 1.74.959l-5.483 9.319zm-1.95-1.023a19.09 19.09 0 0 0-1.018-.438l3.024-10.277c.635.192 1.26.408 1.873.651l-3.88 10.064zm3.276 1.82l-.38-.23 6.194-8.786c.537.39 1.058.803 1.56 1.235l-6.849 8.193a4.342 4.342 0 0 0-.525-.412zm3.293 18.788c.013-.304.03-.677.119-1.062l9.05 5.472c-.205.35-.415.694-.637 1.03-.138.211-.283.433-.43.662l-8.133-5.892c.017-.075.028-.147.031-.21zm-6.238 9.596c.429-.36.81-.764 1.149-1.191l6.351 16.51c-.804 2.07-2.061 3.208-2.061 3.208l-5.439-18.527zm3.659-7.024s.084.186.284.315l7.252 8.686a44.733 44.733 0 0 0-1.032 2.182l-6.85-9.729c.254-.867.346-1.454.346-1.454zm-16.33 25.55l3.562-17.185a9.102 9.102 0 0 1-1.369-.95l-5.333 18.135c-.018-.017-1.262-1.152-2.06-3.208l6.221-16.148a9.04 9.04 0 0 1-.929-1.464l-6.062 12.56c-.155-1.123-.462-2.312-.873-3.521l6.205-10.55c-.186-.34-.373-.68-.502-1.075l-.111-.34-6.605 9.371c-.322-.737-.67-1.47-1.03-2.185l7.127-8.526c-.023-.05-.045-.099-.07-.15-.174-.365-.441-.507-.723-.741l-7.368 7.465a63.13 63.13 0 0 0-1.041-1.805l7.701-6.61a11.246 11.246 0 0 1-.475-1.105L4.576 38.42a66.466 66.466 0 0 0-.42-.647c-.226-.342-.439-.691-.646-1.044l8.959-5.41a11.907 11.907 0 0 1-.33-1.098l-9.574 4.742c-.29-.6-.558-1.211-.798-1.837 0 0 10.177-4.046 10.176-4.057a8.386 8.386 0 0 1-.027-1.098L1.127 31.225a24.338 24.338 0 0 1-.483-1.946l11.274-2.394a3.24 3.24 0 0 0-.218-1.023L.32 27.297a24.711 24.711 0 0 1-.164-2l11.196-.467a3.445 3.445 0 0 1-.052-.243c-.048-.287-.137-.56-.222-.838l-10.92-.46c.027-.675.08-1.342.16-2l10.542 1.334c-.003-.12 0-.243.016-.373.028-.241.083-.487.156-.732L.642 19.306a24.5 24.5 0 0 1 .486-1.945l10.304 3.112c.16-.348.336-.682.503-.989L1.771 15.46c.24-.626.508-1.238.797-1.837l9.903 4.91c.19-.315.39-.616.6-.9l-9.558-5.776c.339-.576.7-1.137 1.084-1.68l9.152 6.628c.143-.155.288-.303.434-.438.273-.268-.915 1.19-1.045 1.775-.112.496-.052 1.19.329 1.266.202.042.52-.084.683-.149.237-.096.71-.778.983-.987.202-.155.751-.613 1.207-.48.455.133.476.58.706 1.175.116.3.219 1.448.221 1.74.003.464.325.906.141 1.527-.065.223-.271.388-.26.586.03.475 1.57.53 2.003.653.351.1.693.203 1.017.313.348.118.637.303.925.397.226.075.572.057.76.123 1.026.36.677 2.285.645 3.548-.02.757.264 1.61.287 2.28.014.42-.061.798.014 1.075.093.348.448.575.695.955.09.14.114.3.188.426.09.153.307.26.364.433a.71.71 0 0 1-.146.68c-.305.05-.498-.087-.705-.03-.46.127-.355.872-.413 1.444.082.148.283.073.467.08.278.15.591.416.98.46.274.03.438-.126.83-.133.393-.006 1.393.673 1.999.693.302.01.674-.12.675.109 0 .15.028.188-.043.316-.336.053-.643.057-.97-.042-.182-.055-.32-.242-.488-.26-.186-.02-.365.035-.535.048-.217.018-.432.05-.648.08-.208.03-.396.12-.596.183-.179.056-.395.163-.567.184-.366.046-.701-.14-1.088-.017-.014.201.364.282.39.525.01.096-.03.16-.069.223-.039.062-.372.112-.36.205.559.338 1.863.268 2.201.812-.035.543-.55.664-.436 1.264-.277.58-1.636.095-1.711.82-.02.2.2.64.347.851.107.154.4.58.595.764.19.18.39.234.535.33.362.235.882.307 1.187.468.219.116.344.402.596.534.18.094.405.06.52.2a16.78 16.78 0 0 0 1.358-.878l3.621 17.519h-3.03l-2.039-16.588a3.738 3.738 0 0 1-1.008.414c-.196.044-.393.079-.591.11l.647 16.064h-2.948l.661-16.033a5.614 5.614 0 0 1-1.215-.29c-.132-.048-.257-.098-.384-.148l-2.032 16.47h-3.03zm1.694-27.142c.236-.018.741-.6.95-.884.396-.538.855-1.268 1.246-1.646.182-.177.488-.328.55-.484.064-.162.017-.357.05-.505.105-.453.401-.646.457-1.054.033-.247-.091-.428-.087-.72.002-.16.106-.332.08-.504-.074-.466-.935-.65-1.623-.607-.197.012-.396.095-.594.123-.409.06-.882.028-1.101.31.026.184.25.387.115.752.247.428 1.374.037 1.629.458-.39.797-1.858.303-2.503.757-.111.708-.651 1.572-.371 2.52.055.188.216.312.303.49.213.438.359 1.037.9.994zm2.127-7.874c-.312-.254-1.517-.52-1.764-.047.303.393 1.391.303 1.764.047zM31.35 39.345c.283-.502.518-1.006.714-1.486l6.355 10.819c-.411 1.207-.72 2.395-.875 3.516l-6.194-12.85zM48.041 25.31a24.73 24.73 0 0 1-.164 2l-11.166-1.414c-.05-.11-.143-.1.084-.12.354-.029.176-.792.13-.936l11.116.47zm-13.22 8.735c.041-.084.11-.216.19-.371l7.537 6.476a64.531 64.531 0 0 0-1.044 1.804l-7.09-7.193c.191-.272.338-.57.408-.716zm12.73-4.753a24.386 24.386 0 0 1-.484 1.946l-11.04-3.335a6.92 6.92 0 0 0-.3-.875s.158-.064.348-.18l11.477 2.444zm-1.125 3.847a24 24 0 0 1-.8 1.837l-9.6-4.762c.1-.37.102-.786.093-1.156l10.307 4.081zm-21.54-8.196c-.028-.435.208-.422.696-.447.422-.022 1.042-.255 1.454-.295.15-.015.328.026.5.021.368-.01.605-.158.884-.05.262.1.576.628.556.77-.084.612-1.456.156-1.677.702.36.424 1.107.352 1.684.521.579.17 1.035.451 1.165 1.004-.562.201-.84-.51-1.334-.474-.434.03-.54.702-1.225.454-.154-.056-.357-.415-.542-.412-.27.004-.272.416-.463.517-.475.252-.871-.11-1.104-.346-.108-.11-.279-.228-.308-.37-.099-.496.22-.496.157-.92-.047-.311-.424-.38-.443-.675zm-.106 7.425c-.017-.232.236-.318.456-.338.318-.03.486.09.486.32 0 .508-.917.357-.942.018z"/>
        <g transform="translate(.156)">
            <mask id="b" fill="#fff">
                <use xlink:href="#a"/>
            </mask>
            <g mask="url(#b)">
                <path fill="#100F10" fill-rule="nonzero" d="M-84.816-16.342h401.712v152.05H-84.816z"/>
            </g>
        </g>
        <g fill="#100F10" fill-rule="nonzero">
            <path d="M65.154 72.93c-.216 2.074-1.378 5.26-6.257 5.26-3.518 0-6.754-1.61-6.754-7.036 0-7.27 5.31-7.552 6.638-7.552 4.88 0 6.124 3.054 6.223 5.078h-3.186c-.299-2.307-2.124-2.406-2.871-2.406-.73 0-3.286.133-3.286 4.747 0 2.606 1.178 4.464 3.386 4.464 2.124 0 2.754-1.56 2.887-2.572h3.22v.016zM65.967 66.689v-2.672H77.55v2.672h-4.148v11.104h-3.253V66.689h-4.182zM84.803 64.017l5.177 13.792H86.53l-.88-2.572h-4.995l-.863 2.572h-3.419l5.161-13.792h3.27zm.132 8.863l-1.775-5.262-1.81 5.262h3.585zM94.511 77.81h-3.236V64.016h3.253v5.178h4.995v-5.178h3.253v13.792h-3.253v-5.942h-4.995v5.942zM114.558 64.017h3.253v13.792h-3.253v-8.996l-5.493 8.996h-3.252V64.017h3.252v8.896zM133.212 72.93c-.216 2.074-1.378 5.26-6.257 5.26-3.518 0-6.754-1.61-6.754-7.036 0-7.27 5.31-7.552 6.638-7.552 4.879 0 6.124 3.054 6.223 5.078h-3.186c-.299-2.307-2.124-2.406-2.871-2.406-.73 0-3.286.133-3.286 4.747 0 2.606 1.178 4.464 3.385 4.464 2.125 0 2.755-1.56 2.888-2.572h3.22v.016zM134.008 75.12c3.054.399 3.17-2.207 3.203-4.53l.1-6.573h10.222v13.792h-3.252V66.705h-3.884l-.1 4.814c-.066 2.655-.497 7.103-6.289 6.307V75.12zM157.358 64.017l5.178 13.792h-3.452l-.88-2.572h-4.995l-.863 2.572h-3.419l5.162-13.792h3.269zm.133 8.863l-1.776-5.262-1.809 5.262h3.585zM170.734 64.017c3.601 0 4.248 2.008 4.248 3.502 0 1.593-.946 2.44-2.257 2.871v.017c1.062.215 2.938.979 2.938 3.518 0 3.336-2.821 3.868-5.278 3.868h-6.555V64h6.904v.017zm-3.668 5.427h2.987c1.295 0 1.61-.88 1.61-1.41 0-.565-.315-1.345-1.759-1.345h-2.854v2.755h.016zm0 5.676h3.37c.563 0 1.791-.298 1.791-1.56 0-1.294-1.028-1.577-2.207-1.577h-2.954v3.137zM190.516 72.93c-.216 2.074-1.378 5.26-6.257 5.26-3.518 0-6.754-1.61-6.754-7.036 0-7.27 5.31-7.552 6.638-7.552 4.88 0 6.124 3.054 6.223 5.078h-3.186c-.299-2.307-2.124-2.406-2.871-2.406-.73 0-3.286.133-3.286 4.747 0 2.606 1.178 4.464 3.386 4.464 2.124 0 2.754-1.56 2.887-2.572h3.22v.016zM200.556 64.017h3.817l-5.526 6.307 5.841 7.485h-3.983l-4.879-6.738h-.033v6.738h-3.253V64.017h3.253v5.792h.033zM214.712 64.017h3.253v13.792h-3.253v-8.996l-5.493 8.996h-3.253V64.017h3.253v8.896zM229.747 64.017H233v13.792h-3.253v-8.996l-5.493 8.996h-3.253V64.017h3.253v8.896l5.493-8.896zm-4.464-3.386c0 .664.498 1.31 1.71 1.31 1.228 0 1.692-.63 1.709-1.31h2.19c-.182 2.572-3.236 2.722-3.9 2.722-1.028 0-3.767-.282-3.9-2.722h2.191z"/>
            <g>
                <path d="M56.922 53.145v-2.523h5.261c-.299-3.186-2.456-3.302-3.452-3.302-2.39 0-3.053 1.394-3.17 2.307H52.26c.15-2.225 1.71-4.98 6.29-4.98 5.709 0 7.152 3.868 7.152 7.104 0 7.087-5.061 7.469-6.937 7.469-4.198 0-6.455-2.357-6.654-5.361h3.302c.067 1.295 1.079 2.672 3.303 2.672 1.327 0 3.385-.448 3.468-3.386h-5.26zM66.846 56.133c3.054.398 3.17-2.208 3.203-4.531l.1-6.573h10.206v13.793h-3.253V47.718H73.22l-.1 4.813c-.066 2.656-.497 7.104-6.29 6.307v-2.705h.017zM93.366 50.506v2.54h-6.738v3.087h7.833v2.672H83.375V45.012h10.887v2.673h-7.634v2.788h6.738zM104.452 45.029h3.817l-5.527 6.307 5.842 7.486h-3.983l-4.879-6.739h-.033v6.739h-3.253V45.029h3.253v5.793h.033zM108.634 47.701V45.03h11.583v2.672h-4.148v11.104h-3.253V47.701zM128.399 45.029c2.788 0 5.194 1.046 5.194 4.448 0 4.316-3.6 4.581-5.277 4.581h-3.087v4.747h-3.253V45.012h6.423v.017zm-3.17 6.357h2.54c1.543 0 2.323-.548 2.323-1.892 0-1.876-1.593-1.793-2.324-1.793h-2.539v3.685zM134.987 51.917c0-3.203 1.544-7.286 6.97-7.286 4.747 0 6.97 3.12 6.97 7.286 0 4.183-2.223 7.286-6.97 7.286-5.443 0-6.97-4.066-6.97-7.286zm10.422 0c0-1.228-.133-4.614-3.468-4.614-2.224 0-3.469 1.46-3.469 4.614 0 3.602 1.66 4.614 3.469 4.614 3.319 0 3.468-3.452 3.468-4.614zM150.073 47.701V45.03h11.583v2.672h-4.149v11.104h-3.252V47.701zM173.39 50.506v2.54h-6.739v3.087h7.833v2.672H163.4V45.012h10.886v2.673h-7.634v2.805h6.738zM183.247 45.029l5.178 13.793h-3.452l-.88-2.573h-4.995l-.863 2.573h-3.419l5.162-13.793h3.269zm.133 8.863l-1.776-5.261-1.809 5.261h3.585zM187.197 47.701V45.03h11.583v2.672h-4.149v11.104h-3.252V47.701zM206.962 45.029c2.788 0 5.194 1.046 5.194 4.448 0 4.316-3.601 4.581-5.277 4.581h-3.087v4.747h-3.253V45.012h6.423v.017zm-3.17 6.357h2.54c1.543 0 2.322-.548 2.322-1.892 0-1.876-1.593-1.793-2.323-1.793h-2.539v3.685z"/>
            </g>
        </g>
    </g>
</svg>
